{"glyphs":{"0":{"ha":732,"x_min":90,"x_max":814,"o":"m 246 0 q 126 35 163 0 q 90 136 90 69 q 92 166 90 151 q 96 194 93 181 l 199 779 q 266 922 214 871 q 418 974 318 974 l 658 974 q 778 938 742 974 q 814 836 814 903 q 808 779 814 807 l 706 194 q 637 51 689 103 q 486 0 585 0 l 246 0 m 696 758 q 698 772 697 765 q 699 786 699 779 q 617 863 699 863 l 418 863 q 340 835 369 863 q 303 758 311 807 l 207 215 q 205 201 206 208 q 204 188 204 194 q 286 111 204 111 l 485 111 q 563 139 533 111 q 600 215 592 167 l 696 758 z "},"1":{"ha":390,"x_min":201,"x_max":483,"o":"m 203 0 l 354 863 l 201 863 l 222 974 l 483 974 l 311 0 l 203 0 z "},"2":{"ha":713,"x_min":64,"x_max":785,"o":"m 64 0 l 118 306 q 197 466 138 414 q 375 518 257 518 l 513 518 q 607 551 571 518 q 654 644 643 585 l 669 735 q 674 774 674 756 q 568 863 674 863 l 442 863 q 351 834 382 863 q 308 746 319 806 l 294 671 l 189 671 l 203 746 q 288 919 225 864 q 464 974 351 974 l 589 974 q 738 931 690 974 q 785 806 785 889 q 783 772 785 790 q 778 735 781 754 l 763 644 q 678 478 743 536 q 504 421 613 421 l 367 421 q 269 392 300 421 q 226 306 238 364 l 192 111 l 658 111 l 639 0 l 64 0 z "},"3":{"ha":707,"x_min":90,"x_max":781,"o":"m 271 0 q 138 36 183 0 q 92 147 92 72 q 92 174 90 160 q 97 203 94 188 l 114 303 l 219 303 l 203 204 q 201 192 201 197 q 200 181 200 188 q 290 111 200 111 l 443 111 q 582 232 561 111 l 600 335 q 602 351 601 343 q 603 365 603 358 q 578 432 603 407 q 503 457 553 457 l 357 457 l 372 540 l 528 540 q 610 569 581 540 q 649 646 640 597 l 668 757 q 670 772 669 764 q 671 786 671 779 q 585 863 671 863 l 425 863 q 307 761 325 863 l 290 671 l 185 671 l 201 763 q 446 974 239 974 l 606 974 q 781 838 781 974 q 776 792 781 817 l 753 663 q 706 549 739 588 q 622 501 672 510 q 688 460 663 494 q 713 372 713 426 q 708 329 713 351 l 690 228 q 431 0 649 0 l 271 0 z "},"4":{"ha":679,"x_min":65,"x_max":733,"o":"m 456 0 l 486 176 l 65 176 l 81 261 l 604 972 l 733 972 l 610 271 l 683 271 l 667 176 l 593 176 l 563 0 l 456 0 m 600 819 l 185 271 l 503 271 l 600 819 z "},"5":{"ha":707,"x_min":93,"x_max":804,"o":"m 265 0 q 93 144 93 0 q 94 171 93 158 q 99 199 96 183 l 117 303 l 222 303 l 204 200 q 203 188 203 193 q 203 178 203 183 q 283 110 203 110 l 451 110 q 572 224 551 110 l 597 365 q 599 381 599 374 q 600 396 600 389 q 517 472 600 472 l 157 472 l 246 974 l 804 974 l 783 863 l 322 863 l 271 569 l 543 569 q 711 422 711 569 q 710 395 711 410 q 706 365 708 381 l 681 224 q 601 56 661 111 q 432 0 540 0 l 265 0 z "},"6":{"ha":706,"x_min":94,"x_max":783,"o":"m 275 0 q 94 161 94 0 q 97 192 94 175 q 101 228 99 208 l 194 760 q 449 974 232 974 l 606 974 q 783 825 783 974 q 778 771 783 799 l 760 671 l 654 671 l 672 771 q 674 783 674 778 q 674 793 674 788 q 585 863 674 863 l 428 863 q 303 760 319 863 l 267 551 l 546 551 q 671 521 629 551 q 713 415 713 490 q 710 389 711 403 q 707 360 710 375 l 681 215 q 435 0 640 0 l 275 0 m 600 358 q 602 372 601 365 q 603 386 603 379 q 521 456 603 456 l 250 456 l 210 228 q 206 193 206 208 q 294 110 206 110 l 454 110 q 535 137 503 110 q 576 217 567 164 l 600 358 z "},"7":{"ha":625,"x_min":99,"x_max":783,"o":"m 99 0 l 607 864 l 204 864 l 224 974 l 783 974 l 218 0 l 99 0 z "},"8":{"ha":711,"x_min":94,"x_max":776,"o":"m 281 0 q 94 164 94 0 q 96 196 94 179 q 100 228 97 213 l 118 329 q 172 449 131 404 q 267 501 214 493 q 186 610 186 514 q 188 635 186 624 q 192 663 189 647 l 214 792 q 449 974 246 974 l 603 974 q 776 838 776 974 q 772 792 776 817 l 750 663 q 703 549 738 588 q 618 501 669 510 q 684 461 658 494 q 710 374 710 428 q 706 329 710 351 l 688 228 q 603 57 667 114 q 429 0 540 0 l 281 0 m 597 335 q 599 349 599 342 q 600 364 600 357 q 575 431 600 406 q 500 457 550 457 l 369 457 q 274 423 311 457 q 228 335 238 389 l 210 232 q 207 221 207 225 q 207 211 207 217 q 228 136 207 161 q 307 111 250 111 l 440 111 q 579 232 558 111 l 597 335 m 665 757 q 667 771 667 764 q 668 785 668 778 q 583 863 668 863 l 429 863 q 310 757 328 863 l 289 646 q 287 632 288 639 q 286 618 286 625 q 308 561 286 582 q 374 540 329 540 l 525 540 q 607 569 579 540 q 644 646 635 597 l 665 757 z "},"9":{"ha":706,"x_min":92,"x_max":781,"o":"m 272 0 q 139 35 185 0 q 93 146 93 71 q 94 172 92 158 q 99 201 96 186 l 115 303 l 221 303 l 204 201 q 202 190 203 194 q 201 179 201 185 q 290 110 201 110 l 447 110 q 572 214 553 110 l 610 426 l 332 426 q 206 458 249 426 q 164 561 164 489 q 165 590 164 576 q 169 618 167 604 l 194 757 q 276 922 214 869 q 443 974 339 974 l 601 974 q 781 811 781 974 q 775 744 781 772 l 681 214 q 428 0 643 0 l 272 0 m 667 744 q 669 763 668 754 q 669 779 669 772 q 581 863 669 863 l 421 863 q 300 756 319 863 l 276 619 q 274 606 275 613 q 274 593 274 600 q 356 524 274 524 l 626 524 l 667 744 z "},"\u0017":{"ha":267,"x_min":0,"x_max":0,"o":""}," ":{"ha":267,"x_min":0,"x_max":0,"o":""},"!":{"ha":303,"x_min":100,"x_max":376,"o":"m 150 286 l 272 974 l 376 974 l 254 286 l 150 286 m 100 0 l 136 208 l 242 208 l 206 0 l 100 0 z "},"\"":{"ha":528,"x_min":213,"x_max":632,"o":"m 213 636 l 240 974 l 368 974 l 276 636 l 213 636 m 476 636 l 504 974 l 632 974 l 540 636 l 476 636 z "},"#":{"ha":831,"x_min":117,"x_max":886,"o":"m 651 642 l 408 642 l 357 344 l 600 344 l 651 642 m 539 0 l 588 278 l 344 278 l 296 0 l 225 0 l 274 278 l 117 278 l 129 344 l 286 344 l 338 642 l 181 642 l 193 708 l 350 708 l 397 974 l 468 974 l 421 708 l 664 708 l 711 974 l 782 974 l 735 708 l 886 708 l 874 642 l 722 642 l 671 344 l 822 344 l 810 278 l 651 278 l 610 0 l 539 0 z "},"$":{"ha":704,"x_min":85,"x_max":775,"o":"m 321 0 l 338 93 l 85 93 l 103 193 l 469 193 q 549 220 522 193 q 586 299 576 247 l 593 339 q 595 355 594 347 q 596 369 596 363 q 576 424 596 406 q 513 443 557 443 l 321 443 q 203 476 235 443 q 172 564 172 508 q 174 593 172 578 q 178 625 175 608 l 190 690 q 263 833 208 786 q 414 881 317 881 l 476 881 l 493 974 l 556 974 l 539 881 l 775 881 l 757 779 l 406 779 q 326 753 351 779 q 290 674 301 726 l 283 638 q 281 627 281 632 q 281 618 281 622 q 299 554 281 575 q 363 533 317 533 l 554 533 q 671 501 639 533 q 703 414 703 469 q 701 383 703 399 q 697 351 700 368 l 685 283 q 458 93 650 93 l 400 93 l 383 0 l 321 0 z "},"%":{"ha":1067,"x_min":53,"x_max":1183,"o":"m 251 501 q 174 569 174 501 q 174 583 174 576 q 176 599 175 590 l 228 890 q 262 962 236 936 q 336 988 288 988 l 457 988 q 535 919 535 988 q 534 905 535 913 q 532 890 533 897 l 481 599 q 447 527 472 553 q 372 501 421 501 l 251 501 m 476 881 q 477 888 476 883 q 478 894 478 892 q 436 932 478 932 l 338 932 q 281 881 289 932 l 232 608 q 231 594 231 604 q 272 557 231 557 l 371 557 q 428 608 418 557 l 476 881 m 53 -44 l 1079 1024 l 1183 1024 l 157 -44 l 53 -44 m 790 -14 q 713 54 713 -14 q 713 68 713 61 q 715 83 714 75 l 767 375 q 801 447 775 421 q 875 472 826 472 l 996 472 q 1074 404 1074 472 q 1073 390 1074 397 q 1071 375 1072 382 l 1019 83 q 985 12 1011 38 q 911 -14 960 -14 l 790 -14 m 1015 365 q 1016 372 1015 368 q 1017 379 1017 376 q 975 417 1017 417 l 876 417 q 819 365 828 417 l 771 93 q 769 79 769 89 q 811 42 769 42 l 910 42 q 967 93 957 42 l 1015 365 z "},"&":{"ha":775,"x_min":94,"x_max":819,"o":"m 678 0 q 584 21 619 0 q 544 78 549 42 q 485 21 528 42 q 383 0 442 0 l 281 0 q 94 164 94 0 q 96 196 94 179 q 100 228 97 213 l 119 333 q 174 453 133 408 q 268 506 215 497 q 186 617 186 521 q 187 640 185 628 q 192 667 189 653 l 214 792 q 285 928 229 883 q 429 974 340 974 l 747 974 l 728 863 l 429 863 q 310 757 328 863 l 290 651 q 288 638 289 644 q 288 624 288 631 q 375 550 288 550 l 574 550 l 593 657 l 694 657 l 675 550 l 819 550 l 804 457 l 660 457 l 615 208 q 613 195 614 201 q 613 182 613 189 q 704 111 613 111 l 742 111 l 722 0 l 678 0 m 558 457 l 369 457 q 275 425 311 457 q 229 339 239 393 l 210 232 q 207 221 207 225 q 207 211 207 217 q 228 136 207 161 q 307 111 250 111 l 390 111 q 514 208 496 111 l 558 457 z "},"'":{"ha":264,"x_min":213,"x_max":368,"o":"m 213 636 l 240 974 l 368 974 l 276 636 l 213 636 z "},"(":{"ha":511,"x_min":154,"x_max":642,"o":"m 365 -208 q 279 -160 318 -189 q 213 -88 240 -131 q 169 11 185 -46 q 154 143 154 68 q 171 314 154 218 l 231 657 q 288 863 251 776 q 374 1012 325 950 q 483 1113 422 1074 q 610 1178 543 1153 l 642 1094 q 445 943 519 1047 q 342 671 371 839 l 276 299 q 264 164 264 225 q 426 -126 264 -54 l 365 -208 z "},")":{"ha":513,"x_min":42,"x_max":529,"o":"m 42 -126 q 340 299 282 -32 l 406 671 q 418 806 418 743 q 257 1094 418 1021 l 317 1178 q 403 1129 364 1158 q 469 1058 442 1100 q 513 958 497 1015 q 529 825 529 900 q 513 657 529 750 l 453 314 q 395 106 432 193 q 309 -42 358 19 q 199 -144 260 -104 q 72 -208 139 -183 l 42 -126 z "},"*":{"ha":688,"x_min":207,"x_max":758,"o":"m 596 472 l 483 656 l 364 475 l 278 533 l 425 696 l 207 753 l 240 840 l 449 757 l 428 974 l 536 974 l 518 757 l 728 840 l 758 749 l 539 697 l 683 532 l 596 472 z "},"+":{"ha":857,"x_min":143,"x_max":892,"o":"m 400 136 l 456 449 l 143 449 l 161 554 l 474 554 l 529 867 l 636 867 l 581 554 l 892 554 l 874 449 l 563 449 l 507 136 l 400 136 z "},",":{"ha":271,"x_min":53,"x_max":242,"o":"m 53 -129 l 132 208 l 242 208 l 135 -129 l 53 -129 z "},"-":{"ha":492,"x_min":122,"x_max":538,"o":"m 122 439 l 135 511 l 538 511 l 525 439 l 122 439 z "},".":{"ha":257,"x_min":75,"x_max":217,"o":"m 75 0 l 111 208 l 217 208 l 181 0 l 75 0 z "},"/":{"ha":643,"x_min":3,"x_max":811,"o":"m 3 -39 l 701 1011 l 811 1011 l 113 -39 l 3 -39 z "},":":{"ha":293,"x_min":97,"x_max":321,"o":"m 97 0 l 133 208 l 239 208 l 203 0 l 97 0 m 179 463 l 215 671 l 321 671 l 285 463 l 179 463 z "},";":{"ha":289,"x_min":54,"x_max":321,"o":"m 54 -129 l 133 208 l 243 208 l 136 -129 l 54 -129 m 179 463 l 215 671 l 321 671 l 285 463 l 179 463 z "},"<":{"ha":857,"x_min":140,"x_max":943,"o":"m 140 435 l 154 515 l 943 844 l 922 726 l 324 476 l 835 225 l 814 108 l 140 435 z "},"=":{"ha":857,"x_min":114,"x_max":921,"o":"m 114 282 l 132 389 l 863 389 l 844 282 l 114 282 m 172 611 l 190 718 l 921 718 l 903 611 l 172 611 z "},">":{"ha":857,"x_min":83,"x_max":885,"o":"m 83 108 l 104 225 l 701 476 l 192 726 l 213 844 l 885 515 l 871 435 l 83 108 z "},"?":{"ha":674,"x_min":168,"x_max":764,"o":"m 256 286 l 264 328 q 331 467 279 424 q 482 511 382 511 q 583 538 549 511 q 629 617 618 564 l 653 744 q 655 763 654 754 q 656 779 656 771 q 576 863 656 863 l 407 863 q 289 756 308 863 l 274 671 l 168 671 l 179 736 q 213 849 190 804 q 268 922 235 894 q 347 962 301 950 q 454 974 393 974 l 547 974 q 647 966 606 974 q 713 940 688 958 q 751 891 739 922 q 764 814 764 860 q 751 696 764 764 l 738 617 q 666 472 721 521 q 515 417 611 424 q 461 410 486 414 q 416 397 436 407 q 383 369 396 388 q 364 318 369 350 l 358 286 l 256 286 m 204 0 l 240 208 l 346 208 l 310 0 l 204 0 z "},"@":{"ha":769,"x_min":83,"x_max":864,"o":"m 238 0 q 119 32 154 0 q 83 126 83 64 q 88 175 83 147 l 203 828 q 256 940 217 907 q 371 974 296 974 l 749 974 q 835 953 807 974 q 864 881 864 933 q 858 828 864 856 l 767 304 l 458 304 q 392 319 410 304 q 374 363 374 335 q 374 376 374 369 q 376 390 375 383 l 415 613 q 450 674 422 651 q 536 697 478 697 l 747 697 l 768 819 q 769 831 769 826 q 769 840 769 836 q 756 877 769 867 q 717 888 743 888 l 393 888 q 307 813 319 888 l 199 200 q 197 186 197 193 q 196 172 196 179 q 279 99 196 99 l 731 99 l 713 0 l 238 0 m 735 629 l 561 629 q 519 618 533 629 q 499 579 504 607 l 469 421 q 468 408 468 418 q 478 385 468 393 q 517 378 489 378 l 690 378 l 735 629 z "},"A":{"ha":694,"x_min":22,"x_max":672,"o":"m 556 0 l 539 193 l 213 193 l 129 0 l 22 0 l 453 974 l 578 974 l 672 0 l 556 0 m 486 824 l 251 285 l 531 285 l 486 824 z "},"B":{"ha":703,"x_min":68,"x_max":774,"o":"m 68 0 l 240 974 l 599 974 q 774 838 774 974 q 769 792 774 817 l 747 667 q 700 554 735 594 q 615 506 665 514 q 681 466 656 499 q 706 379 706 433 q 701 333 706 358 l 683 228 q 424 0 643 0 l 68 0 m 593 333 q 595 348 594 340 q 596 363 596 356 q 571 431 596 406 q 496 457 546 457 l 257 457 l 196 111 l 436 111 q 575 232 554 111 l 593 333 m 661 757 q 663 772 663 765 q 664 786 664 779 q 578 863 664 863 l 328 863 l 274 550 l 522 550 q 604 579 575 550 q 643 657 633 608 l 661 757 z "},"C":{"ha":651,"x_min":96,"x_max":763,"o":"m 294 0 q 96 171 96 0 q 98 201 96 185 q 103 238 100 218 l 192 743 q 460 974 231 974 l 763 974 l 742 863 l 439 863 q 300 743 321 863 l 211 238 q 207 201 207 217 q 310 111 207 111 l 613 111 l 593 0 l 294 0 z "},"D":{"ha":713,"x_min":68,"x_max":783,"o":"m 68 0 l 240 974 l 568 974 q 783 783 783 974 q 781 747 783 767 q 776 708 779 728 l 699 265 q 390 0 653 0 l 68 0 m 667 708 q 671 753 671 731 q 547 863 671 863 l 328 863 l 196 111 l 413 111 q 589 265 561 111 l 667 708 z "},"E":{"ha":664,"x_min":68,"x_max":782,"o":"m 68 0 l 240 974 l 782 974 l 761 863 l 328 863 l 272 546 l 531 546 l 513 443 l 254 443 l 196 111 l 629 111 l 610 0 l 68 0 z "},"F":{"ha":600,"x_min":68,"x_max":742,"o":"m 68 0 l 240 974 l 742 974 l 721 863 l 328 863 l 268 522 l 526 522 l 508 419 l 250 419 l 176 0 l 68 0 z "},"G":{"ha":701,"x_min":96,"x_max":792,"o":"m 294 0 q 96 171 96 0 q 98 201 96 185 q 103 238 100 218 l 190 736 q 460 974 232 974 l 792 974 l 771 863 l 439 863 q 299 736 321 863 l 211 238 q 207 201 207 217 q 310 111 207 111 l 557 111 l 617 447 l 415 447 l 433 549 l 736 549 l 639 0 l 294 0 z "},"H":{"ha":714,"x_min":68,"x_max":818,"o":"m 536 0 l 614 438 l 254 438 l 176 0 l 68 0 l 240 974 l 349 974 l 272 543 l 632 543 l 708 974 l 818 974 l 646 0 l 536 0 z "},"I":{"ha":258,"x_min":75,"x_max":356,"o":"m 75 0 l 247 974 l 356 974 l 183 0 l 75 0 z "},"J":{"ha":615,"x_min":38,"x_max":724,"o":"m 38 0 l 57 111 l 342 111 q 485 238 463 111 l 594 863 l 371 863 l 392 974 l 724 974 l 593 238 q 318 0 551 0 l 38 0 z "},"K":{"ha":683,"x_min":68,"x_max":801,"o":"m 507 0 l 563 314 q 565 328 564 321 q 565 343 565 336 q 541 408 565 385 q 468 432 517 432 l 253 432 l 176 0 l 68 0 l 240 974 l 349 974 l 267 515 l 679 974 l 801 974 l 376 517 l 483 517 q 629 478 583 517 q 675 368 675 440 q 671 318 675 344 l 615 0 l 507 0 z "},"L":{"ha":532,"x_min":68,"x_max":521,"o":"m 68 0 l 240 974 l 347 974 l 194 111 l 521 111 l 501 0 l 68 0 z "},"M":{"ha":860,"x_min":63,"x_max":969,"o":"m 700 0 l 836 775 l 485 0 l 375 0 l 299 776 l 161 0 l 63 0 l 235 974 l 378 974 l 453 119 l 832 974 l 969 974 l 797 0 l 700 0 z "},"N":{"ha":692,"x_min":63,"x_max":801,"o":"m 525 0 l 297 771 l 161 0 l 63 0 l 235 974 l 351 974 l 572 232 l 704 974 l 801 974 l 629 0 l 525 0 z "},"O":{"ha":732,"x_min":93,"x_max":810,"o":"m 267 0 q 134 41 175 0 q 93 157 93 82 q 94 186 93 172 q 99 214 96 200 l 194 758 q 272 916 213 858 q 439 974 331 974 l 638 974 q 769 933 729 974 q 810 817 810 892 q 808 787 810 801 q 804 758 807 772 l 708 214 q 633 58 692 117 q 465 0 574 0 l 267 0 m 696 758 q 698 775 697 767 q 699 790 699 783 q 617 863 699 863 l 418 863 q 340 835 369 863 q 303 758 311 807 l 207 215 q 204 205 204 210 q 204 196 204 200 q 222 132 204 153 q 286 111 240 111 l 485 111 q 563 139 533 111 q 600 215 592 167 l 696 758 z "},"P":{"ha":681,"x_min":68,"x_max":779,"o":"m 68 0 l 240 974 l 600 974 q 779 808 779 974 q 777 774 779 793 q 772 736 775 756 l 749 599 q 493 369 708 369 l 242 369 l 176 0 l 68 0 m 663 735 q 667 775 667 757 q 578 863 667 863 l 328 863 l 260 472 l 510 472 q 639 599 617 472 l 663 735 z "},"Q":{"ha":782,"x_min":100,"x_max":813,"o":"m 274 0 q 141 42 182 0 q 100 156 100 85 q 101 183 100 169 q 106 210 103 196 l 203 763 q 278 916 219 858 q 442 974 338 974 l 644 974 q 772 931 732 974 q 813 817 813 889 q 807 763 813 790 l 692 107 l 788 107 l 768 0 l 274 0 m 700 763 q 702 776 701 769 q 703 789 703 782 q 683 843 703 824 q 624 863 664 863 l 421 863 q 347 835 374 863 q 311 763 319 808 l 213 207 q 210 194 211 200 q 210 182 210 189 q 289 107 210 107 l 585 107 l 700 763 z "},"R":{"ha":701,"x_min":68,"x_max":768,"o":"m 535 0 l 582 264 q 584 278 583 271 q 585 292 585 285 q 559 361 585 335 q 483 388 533 388 l 244 388 l 176 0 l 68 0 l 240 974 l 589 974 q 768 821 768 974 q 767 789 768 806 q 763 757 765 772 l 736 608 q 688 492 722 532 q 604 442 654 453 q 669 403 644 436 q 694 315 694 369 q 690 269 694 292 l 643 0 l 535 0 m 657 735 q 661 774 661 756 q 568 863 661 863 l 328 863 l 263 490 l 511 490 q 594 519 564 490 q 633 596 625 547 l 657 735 z "},"S":{"ha":685,"x_min":57,"x_max":771,"o":"m 57 0 l 76 111 l 415 111 q 517 142 478 111 q 567 240 556 174 l 581 325 q 583 341 582 333 q 583 356 583 349 q 482 438 583 438 l 344 438 q 158 597 158 438 q 164 656 158 632 l 178 731 q 266 913 201 853 q 450 974 331 974 l 771 974 l 750 863 l 429 863 q 333 830 367 863 q 286 731 299 797 l 272 656 q 269 645 269 650 q 269 636 269 640 q 292 564 269 588 q 372 540 314 540 l 510 540 q 694 383 694 540 q 693 355 694 369 q 689 325 692 340 l 675 240 q 585 59 656 118 q 396 0 514 0 l 57 0 z "},"T":{"ha":603,"x_min":182,"x_max":744,"o":"m 246 0 l 397 863 l 182 863 l 203 974 l 744 974 l 724 863 l 506 863 l 354 0 l 246 0 z "},"U":{"ha":725,"x_min":99,"x_max":833,"o":"m 297 0 q 99 171 99 0 q 101 201 99 185 q 106 238 103 218 l 236 974 l 344 974 l 214 238 q 210 201 210 217 q 314 111 210 111 l 451 111 q 594 238 572 111 l 725 974 l 833 974 l 703 238 q 428 0 661 0 l 297 0 z "},"V":{"ha":694,"x_min":194,"x_max":844,"o":"m 289 0 l 194 974 l 313 974 l 383 163 l 736 974 l 844 974 l 414 0 l 289 0 z "},"W":{"ha":1078,"x_min":194,"x_max":1228,"o":"m 713 0 l 675 757 l 364 0 l 246 0 l 194 974 l 307 974 l 339 176 l 665 974 l 765 974 l 807 176 l 1122 974 l 1228 974 l 835 0 l 713 0 z "},"X":{"ha":674,"x_min":19,"x_max":826,"o":"m 522 0 l 404 400 l 132 0 l 19 0 l 369 496 l 218 974 l 340 974 l 458 592 l 719 974 l 826 974 l 494 496 l 650 0 l 522 0 z "},"Y":{"ha":682,"x_min":189,"x_max":838,"o":"m 285 0 l 364 449 l 189 974 l 307 974 l 444 565 l 728 974 l 838 974 l 472 449 l 393 0 l 285 0 z "},"Z":{"ha":619,"x_min":50,"x_max":740,"o":"m 50 0 l 65 88 l 585 863 l 201 863 l 222 974 l 740 974 l 729 911 l 197 111 l 588 111 l 568 0 l 50 0 z "},"[":{"ha":500,"x_min":103,"x_max":644,"o":"m 103 -208 l 347 1178 l 644 1178 l 628 1089 l 438 1089 l 225 -117 l 415 -117 l 400 -208 l 103 -208 z "},"\\":{"ha":643,"x_min":188,"x_max":626,"o":"m 515 -39 l 188 1011 l 296 1011 l 626 -39 l 515 -39 z "},"]":{"ha":501,"x_min":28,"x_max":569,"o":"m 28 -208 l 43 -117 l 232 -117 l 444 1089 l 256 1089 l 272 1178 l 569 1178 l 325 -208 l 28 -208 z "},"^":{"ha":790,"x_min":131,"x_max":785,"o":"m 681 358 l 540 843 l 228 358 l 131 358 l 522 974 l 604 974 l 785 358 l 681 358 z "},"_":{"ha":642,"x_min":-31,"x_max":628,"o":"m -31 -171 l -17 -92 l 628 -92 l 614 -171 l -31 -171 z "},"`":{"ha":464,"x_min":225,"x_max":553,"o":"m 225 967 l 274 1022 l 553 808 l 518 772 l 225 967 z "},"a":{"ha":665,"x_min":79,"x_max":693,"o":"m 224 0 q 79 121 79 0 q 83 168 79 143 l 103 272 q 165 391 118 351 q 300 431 213 431 l 576 431 l 586 485 q 589 496 589 490 q 589 507 589 501 q 569 580 589 556 q 500 604 550 604 l 201 604 l 219 713 l 518 713 q 693 554 693 713 q 688 489 693 521 l 601 0 l 224 0 m 560 339 l 292 339 q 196 254 210 339 l 183 182 q 181 169 182 175 q 181 158 181 164 q 250 100 181 100 l 518 100 l 560 339 z "},"b":{"ha":672,"x_min":68,"x_max":703,"o":"m 68 0 l 240 974 l 344 974 l 297 713 l 528 713 q 703 554 703 713 q 697 489 703 521 l 650 224 q 403 0 610 0 l 68 0 m 593 485 q 595 503 594 494 q 596 521 596 513 q 506 604 596 604 l 279 604 l 192 107 l 418 107 q 547 226 526 107 l 593 485 z "},"c":{"ha":582,"x_min":94,"x_max":644,"o":"m 269 0 q 94 160 94 0 q 96 192 94 175 q 100 224 97 208 l 146 482 q 394 713 188 713 l 644 713 l 626 604 l 379 604 q 250 478 272 604 l 206 226 q 201 190 201 207 q 292 107 201 107 l 542 107 l 522 0 l 269 0 z "},"d":{"ha":672,"x_min":94,"x_max":776,"o":"m 269 0 q 94 160 94 0 q 96 192 94 175 q 100 224 97 208 l 147 489 q 394 713 188 713 l 624 713 l 671 974 l 776 974 l 604 0 l 269 0 m 606 604 l 381 604 q 251 485 272 604 l 206 226 q 201 190 201 207 q 293 107 201 107 l 518 107 l 606 604 z "},"e":{"ha":667,"x_min":94,"x_max":697,"o":"m 269 0 q 94 160 94 0 q 96 192 94 175 q 100 224 97 208 l 147 489 q 394 713 188 713 l 521 713 q 697 554 697 713 q 696 521 697 538 q 692 489 694 504 l 661 313 l 218 313 l 203 226 q 199 190 199 207 q 289 107 199 107 l 606 107 l 586 0 l 269 0 m 592 492 q 594 503 594 497 q 594 514 594 508 q 575 587 594 563 q 506 611 556 611 l 378 611 q 249 492 269 611 l 233 404 l 576 404 l 592 492 z "},"f":{"ha":388,"x_min":64,"x_max":518,"o":"m 64 0 l 200 769 q 422 974 235 974 l 518 974 l 500 878 l 407 878 q 303 781 319 878 l 290 713 l 481 713 l 465 621 l 279 621 l 169 0 l 64 0 z "},"g":{"ha":674,"x_min":104,"x_max":732,"o":"m 140 -221 l 157 -122 l 376 -122 q 458 -90 425 -122 q 503 4 492 -58 l 513 63 l 281 63 q 104 217 104 63 q 106 247 104 232 q 111 281 108 263 l 147 489 q 394 713 185 713 l 732 713 l 608 8 q 369 -221 568 -221 l 140 -221 m 608 604 l 381 604 q 251 485 272 604 l 214 276 q 210 242 210 257 q 301 160 210 160 l 529 160 l 608 604 z "},"h":{"ha":694,"x_min":68,"x_max":725,"o":"m 526 0 l 613 488 q 617 531 617 513 q 550 604 617 604 l 376 604 q 296 576 322 604 q 258 486 269 549 l 172 0 l 68 0 l 240 974 l 344 974 l 282 625 q 347 693 311 674 q 444 713 383 713 l 594 713 q 725 568 725 713 q 723 533 725 551 q 718 494 721 515 l 631 0 l 526 0 z "},"i":{"ha":256,"x_min":75,"x_max":353,"o":"m 217 807 l 247 974 l 353 974 l 322 807 l 217 807 m 75 0 l 200 713 l 306 713 l 181 0 l 75 0 z "},"j":{"ha":297,"x_min":-94,"x_max":401,"o":"m -94 -221 l -78 -122 l -3 -122 q 80 -90 46 -122 q 125 4 114 -58 l 249 713 l 354 713 l 231 8 q -8 -221 190 -221 l -94 -221 m 265 807 l 296 974 l 401 974 l 371 807 l 265 807 z "},"k":{"ha":660,"x_min":68,"x_max":744,"o":"m 500 0 l 532 185 q 536 210 535 199 q 538 232 538 221 q 515 305 538 288 q 443 322 492 322 l 229 322 l 172 0 l 68 0 l 240 974 l 344 974 l 243 403 l 615 713 l 744 713 l 358 404 l 483 404 q 608 362 569 404 q 646 254 646 319 q 642 210 646 232 l 604 0 l 500 0 z "},"l":{"ha":242,"x_min":68,"x_max":344,"o":"m 68 0 l 240 974 l 344 974 l 172 0 l 68 0 z "},"m":{"ha":1033,"x_min":68,"x_max":1063,"o":"m 864 0 l 950 488 q 954 529 954 510 q 888 604 954 604 l 763 604 q 694 577 722 604 q 656 488 667 550 l 569 0 l 467 0 l 553 488 q 557 529 557 510 q 489 604 557 604 l 376 604 q 296 576 322 604 q 258 486 269 549 l 172 0 l 68 0 l 193 713 l 293 713 l 278 625 q 344 693 307 674 q 440 713 381 713 l 535 713 q 654 608 644 713 q 726 690 682 667 q 828 713 769 713 l 932 713 q 1063 568 1063 713 q 1060 533 1063 551 q 1056 494 1058 515 l 968 0 l 864 0 z "},"n":{"ha":697,"x_min":68,"x_max":726,"o":"m 529 0 l 615 488 q 619 529 619 510 q 553 604 619 604 l 376 604 q 296 576 322 604 q 258 486 269 549 l 172 0 l 68 0 l 193 713 l 293 713 l 278 625 q 344 693 307 674 q 440 713 381 713 l 597 713 q 726 569 726 713 q 724 534 726 553 q 719 494 722 515 l 632 0 l 529 0 z "},"o":{"ha":683,"x_min":93,"x_max":715,"o":"m 292 0 q 138 32 182 0 q 93 142 93 64 q 96 188 93 163 q 104 242 99 213 l 144 471 q 176 589 157 542 q 227 663 196 636 q 304 701 258 690 q 417 713 350 713 l 517 713 q 671 680 626 713 q 715 568 715 647 q 713 522 715 546 q 706 471 710 497 l 665 242 q 591 60 643 119 q 432 0 539 0 l 292 0 m 604 489 q 608 536 608 515 q 591 589 608 574 q 535 604 574 604 l 361 604 q 254 506 271 604 l 204 222 q 200 176 200 194 q 217 123 200 139 q 274 107 235 107 l 447 107 q 554 206 538 107 l 604 489 z "},"p":{"ha":671,"x_min":29,"x_max":699,"o":"m 172 0 l 133 -222 l 29 -222 l 193 713 l 526 713 q 658 670 618 713 q 699 543 699 628 q 696 493 699 519 q 688 438 693 467 l 649 224 q 567 56 628 111 q 401 0 507 0 l 172 0 m 586 458 q 590 488 589 474 q 592 515 592 503 q 572 581 592 558 q 506 604 553 604 l 279 604 l 192 107 l 418 107 q 546 226 525 107 l 586 458 z "},"q":{"ha":674,"x_min":94,"x_max":731,"o":"m 463 -222 l 501 0 l 269 0 q 94 160 94 0 q 96 192 94 175 q 100 224 97 208 l 147 489 q 394 713 188 713 l 731 713 l 567 -222 l 463 -222 m 608 604 l 381 604 q 251 485 272 604 l 206 226 q 201 190 201 207 q 293 107 201 107 l 521 107 l 608 604 z "},"r":{"ha":500,"x_min":68,"x_max":586,"o":"m 68 0 l 193 713 l 293 713 l 278 625 q 344 693 307 674 q 440 713 381 713 l 586 713 l 568 604 l 376 604 q 296 576 322 604 q 258 486 269 549 l 172 0 l 68 0 z "},"s":{"ha":663,"x_min":64,"x_max":701,"o":"m 64 0 l 83 107 l 442 107 q 509 128 482 107 q 543 189 536 149 l 551 239 q 553 257 553 243 q 478 318 553 318 l 297 318 q 172 344 217 318 q 128 438 128 369 q 128 460 126 449 q 133 485 131 471 l 139 517 q 167 611 149 574 q 216 672 186 649 q 287 703 246 694 q 382 713 328 713 l 701 713 l 683 604 l 336 604 q 238 518 254 604 l 233 496 q 231 484 232 489 q 231 474 231 479 q 251 423 231 442 q 313 404 271 404 l 497 404 q 615 379 572 404 q 657 288 657 354 q 653 247 657 268 l 646 201 q 576 50 626 100 q 425 0 525 0 l 64 0 z "},"t":{"ha":401,"x_min":97,"x_max":474,"o":"m 263 0 q 97 158 97 0 q 99 191 97 174 q 104 228 101 208 l 232 956 l 338 956 l 294 713 l 474 713 l 458 621 l 279 621 l 208 224 q 204 186 204 203 q 290 99 204 99 l 364 99 l 346 0 l 263 0 z "},"u":{"ha":686,"x_min":94,"x_max":743,"o":"m 517 0 l 532 86 q 467 19 504 38 q 369 0 431 0 l 225 0 q 94 140 94 0 q 103 218 94 174 l 189 713 l 292 713 l 206 224 q 201 185 201 200 q 271 107 201 107 l 435 107 q 516 136 489 107 q 554 225 543 165 l 639 713 l 743 713 l 618 0 l 517 0 z "},"v":{"ha":638,"x_min":147,"x_max":740,"o":"m 265 0 l 147 713 l 263 713 l 346 139 l 629 713 l 740 713 l 374 0 l 265 0 z "},"w":{"ha":953,"x_min":147,"x_max":1056,"o":"m 621 0 l 572 556 l 326 0 l 226 0 l 147 713 l 256 713 l 307 147 l 554 713 l 651 713 l 703 147 l 951 713 l 1056 713 l 726 0 l 621 0 z "},"x":{"ha":651,"x_min":26,"x_max":751,"o":"m 497 0 l 372 289 l 139 0 l 26 0 l 333 361 l 174 713 l 294 713 l 418 432 l 644 713 l 751 713 l 456 361 l 622 0 l 497 0 z "},"y":{"ha":667,"x_min":107,"x_max":725,"o":"m 151 -221 l 168 -122 l 369 -122 q 451 -90 418 -122 q 496 4 485 -58 l 506 63 l 283 63 q 107 217 107 63 q 109 247 107 232 q 114 281 111 263 l 189 713 l 293 713 l 217 276 q 213 242 213 257 q 304 160 213 160 l 522 160 l 619 713 l 725 713 l 601 8 q 363 -221 561 -221 l 151 -221 z "},"z":{"ha":600,"x_min":50,"x_max":675,"o":"m 50 0 l 63 72 l 508 608 l 157 608 l 175 713 l 675 713 l 664 647 l 217 103 l 568 103 l 550 0 l 50 0 z "},"{":{"ha":561,"x_min":171,"x_max":707,"o":"m 351 -208 q 292 -201 322 -208 q 240 -174 263 -193 q 202 -125 217 -156 q 188 -47 188 -94 q 189 -17 188 -32 q 193 11 190 -3 l 250 335 q 255 367 253 353 q 257 394 257 382 q 228 450 257 450 l 171 450 l 189 553 l 246 553 q 308 660 289 553 l 364 979 q 397 1073 374 1035 q 453 1134 421 1111 q 522 1167 486 1157 q 593 1178 558 1178 l 707 1178 l 689 1082 l 600 1082 q 515 1040 556 1082 q 458 901 475 997 l 411 632 q 331 499 394 538 q 369 414 369 469 q 365 367 369 393 l 308 50 q 303 23 306 36 q 303 -4 301 10 q 328 -87 303 -62 q 388 -111 353 -111 l 479 -111 l 463 -208 l 351 -208 z "},"|":{"ha":524,"x_min":169,"x_max":529,"o":"m 169 -176 l 408 1179 l 529 1179 l 290 -176 l 169 -176 z "},"}":{"ha":561,"x_min":28,"x_max":567,"o":"m 28 -208 l 44 -111 l 133 -111 q 175 -103 154 -111 q 215 -75 196 -94 q 247 -25 233 -56 q 269 50 261 6 l 326 367 q 351 447 335 417 q 404 499 368 478 q 368 583 368 526 q 372 632 368 604 l 419 901 q 424 933 422 917 q 425 965 425 950 q 401 1055 425 1028 q 342 1082 378 1082 l 254 1082 l 272 1178 l 382 1178 q 442 1170 413 1178 q 494 1144 471 1163 q 531 1098 517 1126 q 544 1028 544 1069 q 540 979 544 1006 l 485 660 q 480 626 482 640 q 478 601 478 611 q 508 553 478 553 l 567 553 l 549 450 l 490 450 q 453 424 469 450 q 426 335 438 397 l 369 11 q 333 -97 358 -54 q 276 -164 308 -139 q 208 -199 244 -189 q 136 -208 171 -208 l 28 -208 z "},"~":{"ha":857,"x_min":135,"x_max":903,"o":"m 879 478 q 654 386 796 386 q 572 406 610 386 q 499 449 535 425 q 426 493 464 474 q 342 513 388 513 q 238 489 288 513 q 135 399 189 465 l 157 528 q 239 592 190 568 q 356 617 288 617 q 448 597 407 617 q 526 552 489 576 q 599 508 563 528 q 678 488 635 488 q 799 517 744 488 q 903 617 854 546 l 879 478 z "}," ":{"ha":267,"x_min":0,"x_max":0,"o":""},"¡":{"ha":303,"x_min":100,"x_max":376,"o":"m 326 688 l 204 0 l 100 0 l 222 688 l 326 688 m 376 974 l 340 765 l 235 765 l 271 974 l 376 974 z "},"¢":{"ha":699,"x_min":114,"x_max":789,"o":"m 440 93 l 424 0 l 363 0 l 379 93 l 310 93 q 161 136 208 93 q 114 268 114 179 q 122 350 114 304 l 171 624 q 260 817 194 754 q 449 881 326 881 l 518 881 l 535 974 l 596 974 l 579 881 l 789 881 l 769 769 l 453 769 q 342 731 381 769 q 289 613 303 692 l 244 360 q 240 333 242 346 q 239 307 238 321 q 353 204 239 204 l 669 204 l 650 93 l 440 93 z "},"£":{"ha":824,"x_min":69,"x_max":929,"o":"m 69 0 l 93 136 l 211 136 l 264 431 l 144 431 l 163 533 l 282 533 l 303 657 q 646 974 357 974 l 929 974 l 904 838 l 651 838 q 447 642 481 838 l 429 533 l 843 533 l 825 431 l 411 431 l 358 136 l 776 136 l 753 0 l 69 0 z "},"¤":{"ha":686,"x_min":108,"x_max":743,"o":"m 531 281 q 460 250 497 261 q 386 239 424 239 q 315 251 347 239 q 257 282 282 263 l 156 196 l 108 254 l 204 336 q 176 439 176 381 q 197 526 176 485 q 251 600 217 567 l 185 683 l 251 743 l 322 654 q 392 685 354 674 q 467 696 429 696 q 594 656 543 696 l 694 743 l 743 683 l 647 601 q 670 554 663 582 q 678 497 678 526 q 657 410 678 451 q 601 335 636 368 l 667 254 l 599 196 l 531 281 m 606 490 q 565 594 606 553 q 457 635 524 635 q 379 619 417 635 q 313 578 342 604 q 266 517 283 551 q 249 444 249 483 q 290 341 249 382 q 397 300 331 300 q 476 315 439 300 q 542 356 514 331 q 588 417 571 382 q 606 490 606 451 z "},"¥":{"ha":975,"x_min":201,"x_max":1078,"o":"m 417 0 l 478 346 l 201 346 l 215 426 l 492 426 l 508 522 l 240 975 l 386 975 l 600 606 l 946 975 l 1078 975 l 658 533 l 639 426 l 907 426 l 893 346 l 625 346 l 564 0 l 417 0 z "},"¦":{"ha":524,"x_min":168,"x_max":528,"o":"m 168 -176 l 285 482 l 406 482 l 289 -176 l 168 -176 m 417 550 l 296 550 l 407 1179 l 528 1179 l 417 550 z "},"§":{"ha":739,"x_min":114,"x_max":751,"o":"m 224 -250 l 243 -142 l 397 -142 q 501 -110 468 -142 q 546 -11 535 -78 l 568 115 l 335 115 q 231 126 274 115 q 163 156 189 136 q 125 204 136 175 q 114 271 114 233 q 116 301 114 285 q 121 338 118 318 l 194 753 q 221 848 203 807 q 269 917 239 889 q 344 959 300 944 q 451 974 389 974 l 642 974 l 622 865 l 468 865 q 365 833 397 865 q 321 733 332 800 l 299 607 l 529 607 q 702 567 653 607 q 751 450 751 526 q 750 418 751 435 q 746 386 749 401 l 672 -31 q 644 -124 663 -83 q 596 -193 626 -165 q 521 -235 565 -221 q 414 -250 476 -250 l 224 -250 m 613 371 q 617 413 617 393 q 593 480 617 457 q 511 503 569 503 l 281 503 l 254 351 q 250 308 250 328 q 274 242 250 264 q 354 219 299 219 l 586 219 l 613 371 z "},"¨":{"ha":542,"x_min":207,"x_max":653,"o":"m 513 814 l 542 979 l 653 979 l 624 814 l 513 814 m 207 814 l 236 979 l 349 979 l 319 814 l 207 814 z "},"©":{"ha":1115,"x_min":149,"x_max":1150,"o":"m 649 -15 q 455 24 546 -15 q 296 132 364 64 q 188 292 228 200 q 149 486 149 383 q 188 681 149 590 q 296 840 228 772 q 455 948 364 908 q 649 988 546 988 q 844 948 753 988 q 1003 840 935 908 q 1110 681 1071 772 q 1150 486 1150 590 q 1110 292 1150 383 q 1003 132 1071 200 q 844 24 935 64 q 649 -15 753 -15 m 1065 486 q 1033 647 1065 571 q 944 778 1000 722 q 812 867 888 835 q 649 900 736 900 q 486 867 563 900 q 353 778 410 835 q 265 647 297 722 q 232 486 232 571 q 265 324 232 400 q 353 191 297 247 q 486 102 410 135 q 649 69 563 69 q 812 102 736 69 q 944 191 888 135 q 1033 324 1000 247 q 1065 486 1065 400 m 571 271 q 431 414 431 271 l 431 569 q 571 713 431 713 l 821 713 l 821 628 l 589 628 q 522 560 522 628 l 522 425 q 589 356 522 356 l 821 356 l 821 271 l 571 271 z "},"ª":{"ha":449,"x_min":157,"x_max":496,"o":"m 238 417 q 157 483 157 417 q 158 497 157 490 q 160 510 158 503 l 169 567 q 279 653 185 653 l 431 653 l 436 683 q 438 695 438 690 q 438 704 438 700 q 390 749 438 749 l 225 749 l 235 808 l 400 808 q 496 721 496 808 q 495 704 496 713 q 493 686 494 696 l 444 417 l 238 417 m 422 603 l 275 603 q 222 557 231 603 l 215 517 q 214 503 214 513 q 251 472 214 472 l 399 472 l 422 603 z "},"«":{"ha":822,"x_min":119,"x_max":908,"o":"m 315 125 l 119 458 l 432 790 l 497 719 l 247 458 l 406 194 l 315 125 m 726 125 l 531 458 l 843 790 l 908 719 l 658 458 l 817 194 l 726 125 z "},"¬":{"ha":849,"x_min":156,"x_max":833,"o":"m 654 0 l 742 496 l 156 496 l 169 572 l 833 572 l 732 0 l 654 0 z "},"®":{"ha":750,"x_min":174,"x_max":810,"o":"m 492 356 q 367 381 425 356 q 267 449 310 406 q 199 549 224 492 q 174 674 174 607 q 199 798 174 740 q 267 899 224 856 q 367 967 310 942 q 492 992 425 992 q 616 967 558 992 q 717 899 674 942 q 785 798 760 856 q 810 674 810 740 q 785 549 810 607 q 717 449 760 492 q 616 381 674 406 q 492 356 558 356 m 492 410 q 594 431 546 410 q 677 487 642 451 q 733 571 713 522 q 753 674 753 619 q 733 775 753 728 q 677 858 713 822 q 594 915 642 894 q 492 936 546 936 q 389 915 438 936 q 305 858 340 894 q 249 775 269 822 q 228 674 228 728 q 249 571 228 619 q 305 487 269 522 q 389 431 340 451 q 492 410 438 410 m 571 532 l 571 600 q 528 631 571 631 l 426 631 l 426 532 l 367 532 l 367 811 l 554 811 q 610 794 594 811 q 626 743 626 776 l 626 708 q 615 673 626 685 q 589 657 604 661 q 619 641 607 653 q 632 601 632 629 l 632 532 l 571 532 m 565 731 q 533 760 565 760 l 426 760 l 426 675 l 526 675 q 565 706 565 675 l 565 731 z "},"¯":{"ha":585,"x_min":215,"x_max":688,"o":"m 215 858 l 231 942 l 688 942 l 672 858 l 215 858 z "},"°":{"ha":501,"x_min":210,"x_max":596,"o":"m 596 881 q 583 802 596 840 q 544 734 571 764 q 474 686 517 704 q 369 668 431 668 q 247 710 283 668 q 210 813 210 751 q 222 891 210 853 q 260 958 233 929 q 329 1006 288 988 q 432 1024 371 1024 q 558 983 521 1024 q 596 881 596 943 m 531 871 q 506 938 531 911 q 422 965 481 965 q 354 953 382 965 q 309 922 326 942 q 284 877 292 903 q 276 824 276 851 q 299 754 276 782 q 379 726 321 726 q 448 739 419 726 q 495 772 476 751 q 522 817 514 792 q 531 871 531 843 z "},"±":{"ha":857,"x_min":61,"x_max":892,"o":"m 400 136 l 456 449 l 143 449 l 161 554 l 474 554 l 529 867 l 636 867 l 581 554 l 892 554 l 874 449 l 563 449 l 507 136 l 400 136 m 61 -22 l 81 83 l 811 83 l 792 -22 l 61 -22 z "},"²":{"ha":397,"x_min":140,"x_max":499,"o":"m 140 501 l 167 654 q 207 733 176 707 q 296 760 238 760 l 364 760 q 435 824 425 760 l 442 868 q 443 889 443 872 q 392 932 443 932 l 328 932 q 261 874 271 932 l 254 836 l 201 836 l 208 874 q 250 960 219 933 q 339 988 281 988 l 401 988 q 478 963 457 988 q 499 890 499 939 q 499 879 499 885 q 496 868 499 874 l 489 824 q 447 740 481 769 q 360 711 413 711 l 290 711 q 242 697 258 711 q 221 654 226 683 l 204 557 l 438 557 l 428 501 l 140 501 z "},"³":{"ha":394,"x_min":154,"x_max":499,"o":"m 243 501 q 154 575 154 501 q 155 589 154 582 q 157 603 156 596 l 165 653 l 218 653 l 210 603 q 208 592 208 600 q 253 557 208 557 l 329 557 q 399 617 386 557 l 408 668 q 409 674 408 671 q 410 682 410 678 q 397 716 410 703 q 360 729 385 729 l 286 729 l 293 771 l 371 771 q 413 785 399 771 q 432 824 428 800 l 442 879 q 442 886 442 882 q 443 893 443 890 q 400 932 443 932 l 319 932 q 261 882 269 932 l 253 836 l 200 836 l 208 882 q 329 988 226 988 l 410 988 q 499 921 499 988 q 498 909 499 914 q 496 897 497 904 l 485 832 q 460 776 478 796 q 418 751 442 756 q 451 731 439 747 q 464 686 464 714 q 464 676 464 682 q 463 665 464 671 l 453 615 q 324 501 431 501 l 243 501 z "},"´":{"ha":468,"x_min":197,"x_max":581,"o":"m 218 772 l 197 808 l 551 1022 l 581 967 l 218 772 z "},"µ":{"ha":690,"x_min":29,"x_max":747,"o":"m 521 0 l 536 86 q 471 19 508 38 q 374 0 433 0 l 260 0 q 179 46 200 0 l 132 -222 l 29 -222 l 193 713 l 296 713 l 210 224 q 206 186 206 203 q 275 107 206 107 l 439 107 q 520 136 493 107 q 558 225 547 165 l 643 713 l 747 713 l 622 0 l 521 0 z "},"¶":{"ha":714,"x_min":179,"x_max":807,"o":"m 514 -179 l 703 892 l 475 892 l 286 -179 l 197 -179 l 339 624 q 217 671 256 632 q 179 772 179 710 q 192 849 179 813 q 233 914 204 886 q 307 958 261 942 q 421 975 353 975 l 807 975 l 603 -179 l 514 -179 z "},"·":{"ha":257,"x_min":143,"x_max":285,"o":"m 143 389 l 179 597 l 285 597 l 249 389 l 143 389 z "},"¸":{"ha":239,"x_min":-3,"x_max":181,"o":"m -3 -325 l 57 -56 l 181 -56 l 85 -325 l -3 -325 z "},"¹":{"ha":236,"x_min":208,"x_max":349,"o":"m 210 501 l 285 932 l 208 932 l 218 988 l 349 988 l 264 501 l 210 501 z "},"º":{"ha":460,"x_min":165,"x_max":507,"o":"m 275 417 q 189 434 213 417 q 165 496 165 451 q 167 523 165 510 q 171 550 168 536 l 193 675 q 210 740 200 714 q 239 781 221 767 q 283 802 257 796 q 344 808 308 808 l 399 808 q 483 791 458 808 q 507 731 507 774 q 506 703 507 717 q 501 675 504 689 l 479 550 q 440 450 468 483 q 351 417 411 417 l 275 417 m 447 686 q 449 698 449 693 q 449 707 449 703 q 408 749 449 749 l 314 749 q 254 694 264 749 l 226 539 q 224 527 225 532 q 224 517 224 522 q 265 475 224 475 l 360 475 q 419 529 408 475 l 447 686 z "},"»":{"ha":822,"x_min":75,"x_max":864,"o":"m 75 196 l 325 458 l 167 719 l 258 790 l 453 458 l 142 125 l 75 196 m 486 196 l 736 458 l 578 719 l 669 790 l 864 458 l 553 125 l 486 196 z "},"¼":{"ha":1078,"x_min":53,"x_max":1183,"o":"m 304 501 l 379 932 l 303 932 l 313 988 l 443 988 l 358 501 l 304 501 m 53 -44 l 1079 1024 l 1183 1024 l 157 -44 l 53 -44 m 924 -14 l 939 74 l 728 74 l 735 117 l 997 472 l 1061 472 l 1000 121 l 1038 121 l 1029 74 l 992 74 l 976 -14 l 924 -14 m 996 396 l 788 121 l 947 121 l 996 396 z "},"½":{"ha":1083,"x_min":53,"x_max":1183,"o":"m 332 501 l 407 932 l 331 932 l 340 988 l 471 988 l 386 501 l 332 501 m 53 -44 l 1079 1024 l 1183 1024 l 157 -44 l 53 -44 m 728 -14 l 754 139 q 794 218 764 192 q 883 244 825 244 l 951 244 q 1022 308 1013 244 l 1029 353 q 1031 374 1031 357 q 979 417 1031 417 l 915 417 q 849 358 858 417 l 842 321 l 789 321 l 796 358 q 838 445 807 418 q 926 472 868 472 l 989 472 q 1065 448 1044 472 q 1086 375 1086 424 q 1086 364 1086 369 q 1083 353 1086 358 l 1076 308 q 1034 225 1068 254 q 947 196 1000 196 l 878 196 q 830 182 846 196 q 808 139 814 168 l 792 42 l 1025 42 l 1015 -14 l 728 -14 z "},"¾":{"ha":1064,"x_min":53,"x_max":1183,"o":"m 263 501 q 174 575 174 501 q 174 589 174 582 q 176 603 175 596 l 185 653 l 238 653 l 229 603 q 228 592 228 600 q 272 557 228 557 l 349 557 q 418 617 406 557 l 428 668 q 428 674 428 671 q 429 682 429 678 q 417 716 429 703 q 379 729 404 729 l 306 729 l 313 771 l 390 771 q 433 785 418 771 q 451 824 447 800 l 461 879 q 462 886 461 882 q 463 893 463 890 q 419 932 463 932 l 339 932 q 281 882 289 932 l 272 836 l 219 836 l 228 882 q 349 988 246 988 l 429 988 q 518 921 518 988 q 517 909 518 914 q 515 897 517 904 l 504 832 q 479 776 497 796 q 438 751 461 756 q 471 731 458 747 q 483 686 483 714 q 483 676 483 682 q 482 665 483 671 l 472 615 q 343 501 450 501 l 263 501 m 53 -44 l 1079 1024 l 1183 1024 l 157 -44 l 53 -44 m 882 -14 l 897 74 l 686 74 l 693 117 l 956 472 l 1019 472 l 958 121 l 996 121 l 988 74 l 950 74 l 935 -14 l 882 -14 m 954 396 l 746 121 l 906 121 l 954 396 z "},"¿":{"ha":674,"x_min":78,"x_max":674,"o":"m 586 688 l 578 646 q 511 506 563 550 q 360 463 460 463 q 258 436 293 463 q 213 357 224 410 l 189 229 q 187 211 188 219 q 186 194 186 203 q 265 111 186 111 l 435 111 q 553 218 533 111 l 568 303 l 674 303 l 663 238 q 629 124 651 169 q 574 51 607 79 q 494 12 540 24 q 388 0 449 0 l 294 0 q 195 8 236 0 q 129 33 154 15 q 90 83 103 51 q 78 160 78 114 q 90 278 78 210 l 104 357 q 176 501 121 453 q 326 557 231 550 q 381 563 356 560 q 426 576 406 567 q 459 605 446 586 q 478 656 472 624 l 483 688 l 586 688 m 638 974 l 601 765 l 496 765 l 532 974 l 638 974 z "},"À":{"ha":694,"x_min":22,"x_max":672,"o":"m 556 0 l 539 193 l 213 193 l 129 0 l 22 0 l 453 974 l 578 974 l 672 0 l 556 0 m 486 824 l 251 285 l 531 285 l 486 824 m 344 1228 l 393 1283 l 672 1069 l 638 1033 l 344 1228 z "},"Á":{"ha":694,"x_min":22,"x_max":783,"o":"m 556 0 l 539 193 l 213 193 l 129 0 l 22 0 l 453 974 l 578 974 l 672 0 l 556 0 m 486 824 l 251 285 l 531 285 l 486 824 m 421 1033 l 400 1069 l 754 1283 l 783 1228 l 421 1033 z "},"Â":{"ha":694,"x_min":22,"x_max":793,"o":"m 556 0 l 539 193 l 213 193 l 129 0 l 22 0 l 453 974 l 578 974 l 672 0 l 556 0 m 486 824 l 251 285 l 531 285 l 486 824 m 749 1033 l 558 1208 l 308 1033 l 275 1067 l 542 1283 l 604 1283 l 793 1067 l 749 1033 z "},"Ã":{"ha":694,"x_min":22,"x_max":818,"o":"m 556 0 l 539 193 l 213 193 l 129 0 l 22 0 l 453 974 l 578 974 l 672 0 l 556 0 m 486 824 l 251 285 l 531 285 l 486 824 m 818 1201 q 756 1120 799 1156 q 651 1085 714 1085 q 587 1095 613 1085 q 539 1119 561 1106 q 494 1142 517 1132 q 438 1153 471 1153 q 377 1136 403 1153 q 333 1082 351 1119 l 282 1111 q 344 1191 301 1157 q 449 1225 386 1225 q 513 1215 486 1225 q 563 1192 540 1204 q 609 1169 586 1179 q 663 1158 632 1158 q 764 1231 733 1158 l 818 1201 z "},"Ä":{"ha":694,"x_min":22,"x_max":774,"o":"m 556 0 l 539 193 l 213 193 l 129 0 l 22 0 l 453 974 l 578 974 l 672 0 l 556 0 m 486 824 l 251 285 l 531 285 l 486 824 m 633 1075 l 663 1240 l 774 1240 l 744 1075 l 633 1075 m 328 1075 l 357 1240 l 469 1240 l 440 1075 l 328 1075 z "},"Å":{"ha":694,"x_min":22,"x_max":746,"o":"m 556 0 l 539 193 l 213 193 l 129 0 l 22 0 l 453 974 l 578 974 l 672 0 l 556 0 m 486 824 l 251 285 l 531 285 l 486 824 m 746 1196 q 735 1119 746 1154 q 697 1057 724 1083 q 628 1016 671 1031 q 521 1001 585 1001 q 396 1036 433 1001 q 358 1129 358 1071 q 369 1206 358 1171 q 406 1267 381 1242 q 473 1308 431 1293 q 578 1324 515 1324 q 708 1289 669 1324 q 746 1196 746 1254 m 681 1185 q 656 1248 681 1225 q 568 1271 631 1271 q 499 1260 526 1271 q 454 1233 471 1250 q 431 1191 438 1215 q 424 1139 424 1167 q 448 1076 424 1099 q 531 1053 472 1053 q 601 1063 572 1053 q 648 1091 631 1074 q 673 1133 665 1108 q 681 1185 681 1157 z "},"Æ":{"ha":1132,"x_min":22,"x_max":1236,"o":"m 571 0 l 606 193 l 251 193 l 138 0 l 22 0 l 604 974 l 1236 974 l 1215 863 l 832 863 l 776 540 l 986 540 l 969 449 l 760 449 l 700 111 l 1083 111 l 1064 0 l 571 0 m 722 863 l 644 863 l 301 285 l 621 285 l 722 863 z "},"Ç":{"ha":651,"x_min":96,"x_max":763,"o":"m 294 0 q 96 171 96 0 q 98 201 96 185 q 103 238 100 218 l 192 743 q 460 974 231 974 l 763 974 l 742 863 l 439 863 q 300 743 321 863 l 211 238 q 207 201 207 217 q 310 111 207 111 l 613 111 l 593 0 l 294 0 m 221 -325 l 281 -56 l 404 -56 l 308 -325 l 221 -325 z "},"È":{"ha":664,"x_min":68,"x_max":782,"o":"m 68 0 l 240 974 l 782 974 l 761 863 l 328 863 l 272 546 l 531 546 l 513 443 l 254 443 l 196 111 l 629 111 l 610 0 l 68 0 m 329 1228 l 378 1283 l 657 1069 l 622 1033 l 329 1228 z "},"É":{"ha":664,"x_min":68,"x_max":782,"o":"m 68 0 l 240 974 l 782 974 l 761 863 l 328 863 l 272 546 l 531 546 l 513 443 l 254 443 l 196 111 l 629 111 l 610 0 l 68 0 m 406 1033 l 385 1069 l 739 1283 l 768 1228 l 406 1033 z "},"Ê":{"ha":664,"x_min":68,"x_max":792,"o":"m 68 0 l 240 974 l 782 974 l 761 863 l 328 863 l 272 546 l 531 546 l 513 443 l 254 443 l 196 111 l 629 111 l 610 0 l 68 0 m 747 1033 l 557 1208 l 307 1033 l 274 1067 l 540 1283 l 603 1283 l 792 1067 l 747 1033 z "},"Ë":{"ha":664,"x_min":68,"x_max":782,"o":"m 68 0 l 240 974 l 782 974 l 761 863 l 328 863 l 272 546 l 531 546 l 513 443 l 254 443 l 196 111 l 629 111 l 610 0 l 68 0 m 632 1075 l 661 1240 l 772 1240 l 743 1075 l 632 1075 m 326 1075 l 356 1240 l 468 1240 l 439 1075 l 326 1075 z "},"Ì":{"ha":258,"x_min":75,"x_max":457,"o":"m 75 0 l 247 974 l 356 974 l 183 0 l 75 0 m 129 1228 l 178 1283 l 457 1069 l 422 1033 l 129 1228 z "},"Í":{"ha":258,"x_min":75,"x_max":568,"o":"m 75 0 l 247 974 l 356 974 l 183 0 l 75 0 m 206 1033 l 185 1069 l 539 1283 l 568 1228 l 206 1033 z "},"Î":{"ha":258,"x_min":61,"x_max":579,"o":"m 75 0 l 247 974 l 356 974 l 183 0 l 75 0 m 535 1033 l 344 1208 l 94 1033 l 61 1067 l 328 1283 l 390 1283 l 579 1067 l 535 1033 z "},"Ï":{"ha":258,"x_min":75,"x_max":558,"o":"m 75 0 l 247 974 l 356 974 l 183 0 l 75 0 m 418 1075 l 447 1240 l 558 1240 l 529 1075 l 418 1075 m 113 1075 l 142 1240 l 254 1240 l 225 1075 l 113 1075 z "},"Ð":{"ha":710,"x_min":65,"x_max":781,"o":"m 65 0 l 143 439 l 92 439 l 107 529 l 158 529 l 238 974 l 565 974 q 781 783 781 974 q 778 747 781 767 q 774 708 776 728 l 696 265 q 388 0 650 0 l 65 0 m 664 708 q 668 753 668 731 q 544 863 668 863 l 325 863 l 267 529 l 428 529 l 413 439 l 251 439 l 193 111 l 410 111 q 586 265 558 111 l 664 708 z "},"Ñ":{"ha":692,"x_min":63,"x_max":817,"o":"m 525 0 l 297 771 l 161 0 l 63 0 l 235 974 l 351 974 l 572 232 l 704 974 l 801 974 l 629 0 l 525 0 m 817 1201 q 755 1120 797 1156 q 650 1085 713 1085 q 585 1095 611 1085 q 538 1119 560 1106 q 492 1142 515 1132 q 436 1153 469 1153 q 376 1136 401 1153 q 332 1082 350 1119 l 281 1111 q 342 1191 300 1157 q 447 1225 385 1225 q 512 1215 485 1225 q 562 1192 539 1204 q 608 1169 585 1179 q 661 1158 631 1158 q 763 1231 732 1158 l 817 1201 z "},"Ò":{"ha":732,"x_min":93,"x_max":810,"o":"m 267 0 q 134 41 175 0 q 93 157 93 82 q 94 186 93 172 q 99 214 96 200 l 194 758 q 272 916 213 858 q 439 974 331 974 l 638 974 q 769 933 729 974 q 810 817 810 892 q 808 787 810 801 q 804 758 807 772 l 708 214 q 633 58 692 117 q 465 0 574 0 l 267 0 m 696 758 q 698 775 697 767 q 699 790 699 783 q 617 863 699 863 l 418 863 q 340 835 369 863 q 303 758 311 807 l 207 215 q 204 205 204 210 q 204 196 204 200 q 222 132 204 153 q 286 111 240 111 l 485 111 q 563 139 533 111 q 600 215 592 167 l 696 758 m 363 1228 l 411 1283 l 690 1069 l 656 1033 l 363 1228 z "},"Ó":{"ha":732,"x_min":93,"x_max":810,"o":"m 267 0 q 134 41 175 0 q 93 157 93 82 q 94 186 93 172 q 99 214 96 200 l 194 758 q 272 916 213 858 q 439 974 331 974 l 638 974 q 769 933 729 974 q 810 817 810 892 q 808 787 810 801 q 804 758 807 772 l 708 214 q 633 58 692 117 q 465 0 574 0 l 267 0 m 696 758 q 698 775 697 767 q 699 790 699 783 q 617 863 699 863 l 418 863 q 340 835 369 863 q 303 758 311 807 l 207 215 q 204 205 204 210 q 204 196 204 200 q 222 132 204 153 q 286 111 240 111 l 485 111 q 563 139 533 111 q 600 215 592 167 l 696 758 m 439 1033 l 418 1069 l 772 1283 l 801 1228 l 439 1033 z "},"Ô":{"ha":732,"x_min":93,"x_max":813,"o":"m 267 0 q 134 41 175 0 q 93 157 93 82 q 94 186 93 172 q 99 214 96 200 l 194 758 q 272 916 213 858 q 439 974 331 974 l 638 974 q 769 933 729 974 q 810 817 810 892 q 808 787 810 801 q 804 758 807 772 l 708 214 q 633 58 692 117 q 465 0 574 0 l 267 0 m 696 758 q 698 775 697 767 q 699 790 699 783 q 617 863 699 863 l 418 863 q 340 835 369 863 q 303 758 311 807 l 207 215 q 204 205 204 210 q 204 196 204 200 q 222 132 204 153 q 286 111 240 111 l 485 111 q 563 139 533 111 q 600 215 592 167 l 696 758 m 768 1033 l 578 1208 l 328 1033 l 294 1067 l 561 1283 l 624 1283 l 813 1067 l 768 1033 z "},"Õ":{"ha":732,"x_min":93,"x_max":838,"o":"m 267 0 q 134 41 175 0 q 93 157 93 82 q 94 186 93 172 q 99 214 96 200 l 194 758 q 272 916 213 858 q 439 974 331 974 l 638 974 q 769 933 729 974 q 810 817 810 892 q 808 787 810 801 q 804 758 807 772 l 708 214 q 633 58 692 117 q 465 0 574 0 l 267 0 m 696 758 q 698 775 697 767 q 699 790 699 783 q 617 863 699 863 l 418 863 q 340 835 369 863 q 303 758 311 807 l 207 215 q 204 205 204 210 q 204 196 204 200 q 222 132 204 153 q 286 111 240 111 l 485 111 q 563 139 533 111 q 600 215 592 167 l 696 758 m 838 1201 q 776 1120 818 1156 q 671 1085 733 1085 q 606 1095 632 1085 q 558 1119 581 1106 q 513 1142 536 1132 q 457 1153 490 1153 q 397 1136 422 1153 q 353 1082 371 1119 l 301 1111 q 363 1191 321 1157 q 468 1225 406 1225 q 533 1215 506 1225 q 583 1192 560 1204 q 628 1169 606 1179 q 682 1158 651 1158 q 783 1231 753 1158 l 838 1201 z "},"Ö":{"ha":732,"x_min":93,"x_max":810,"o":"m 267 0 q 134 41 175 0 q 93 157 93 82 q 94 186 93 172 q 99 214 96 200 l 194 758 q 272 916 213 858 q 439 974 331 974 l 638 974 q 769 933 729 974 q 810 817 810 892 q 808 787 810 801 q 804 758 807 772 l 708 214 q 633 58 692 117 q 465 0 574 0 l 267 0 m 696 758 q 698 775 697 767 q 699 790 699 783 q 617 863 699 863 l 418 863 q 340 835 369 863 q 303 758 311 807 l 207 215 q 204 205 204 210 q 204 196 204 200 q 222 132 204 153 q 286 111 240 111 l 485 111 q 563 139 533 111 q 600 215 592 167 l 696 758 m 651 1075 l 681 1240 l 792 1240 l 763 1075 l 651 1075 m 346 1075 l 375 1240 l 488 1240 l 458 1075 l 346 1075 z "},"×":{"ha":857,"x_min":182,"x_max":851,"o":"m 686 206 l 504 426 l 244 206 l 182 281 l 442 501 l 260 722 l 350 799 l 532 576 l 790 797 l 851 722 l 592 503 l 775 282 l 686 206 z "},"Ø":{"ha":732,"x_min":50,"x_max":847,"o":"m 267 0 q 165 21 204 0 l 106 -67 l 50 -36 l 118 63 q 93 156 93 97 q 94 185 93 171 q 99 214 96 200 l 194 758 q 272 916 213 858 q 439 974 331 974 l 638 974 q 735 954 693 974 l 793 1038 l 847 1007 l 783 914 q 810 817 810 879 q 804 758 810 786 l 708 214 q 633 58 692 117 q 465 0 574 0 l 267 0 m 696 758 q 698 776 697 768 q 699 792 699 783 l 235 121 q 286 111 253 111 l 485 111 q 563 139 533 111 q 600 215 592 167 l 696 758 m 207 215 q 204 197 204 208 l 204 186 l 665 853 q 617 863 647 863 l 418 863 q 340 835 369 863 q 303 758 311 807 l 207 215 z "},"Ù":{"ha":725,"x_min":99,"x_max":833,"o":"m 297 0 q 99 171 99 0 q 101 201 99 185 q 106 238 103 218 l 236 974 l 344 974 l 214 238 q 210 201 210 217 q 314 111 210 111 l 451 111 q 594 238 572 111 l 725 974 l 833 974 l 703 238 q 428 0 661 0 l 297 0 m 360 1228 l 408 1283 l 688 1069 l 653 1033 l 360 1228 z "},"Ú":{"ha":725,"x_min":99,"x_max":833,"o":"m 297 0 q 99 171 99 0 q 101 201 99 185 q 106 238 103 218 l 236 974 l 344 974 l 214 238 q 210 201 210 217 q 314 111 210 111 l 451 111 q 594 238 572 111 l 725 974 l 833 974 l 703 238 q 428 0 661 0 l 297 0 m 436 1033 l 415 1069 l 769 1283 l 799 1228 l 436 1033 z "},"Û":{"ha":725,"x_min":99,"x_max":833,"o":"m 297 0 q 99 171 99 0 q 101 201 99 185 q 106 238 103 218 l 236 974 l 344 974 l 214 238 q 210 201 210 217 q 314 111 210 111 l 451 111 q 594 238 572 111 l 725 974 l 833 974 l 703 238 q 428 0 661 0 l 297 0 m 764 1033 l 574 1208 l 324 1033 l 290 1067 l 557 1283 l 619 1283 l 808 1067 l 764 1033 z "},"Ü":{"ha":725,"x_min":99,"x_max":833,"o":"m 297 0 q 99 171 99 0 q 101 201 99 185 q 106 238 103 218 l 236 974 l 344 974 l 214 238 q 210 201 210 217 q 314 111 210 111 l 451 111 q 594 238 572 111 l 725 974 l 833 974 l 703 238 q 428 0 661 0 l 297 0 m 649 1075 l 678 1240 l 789 1240 l 760 1075 l 649 1075 m 343 1075 l 372 1240 l 485 1240 l 456 1075 l 343 1075 z "},"Ý":{"ha":682,"x_min":189,"x_max":838,"o":"m 285 0 l 364 449 l 189 974 l 307 974 l 444 565 l 728 974 l 838 974 l 472 449 l 393 0 l 285 0 m 415 1033 l 394 1069 l 749 1283 l 778 1228 l 415 1033 z "},"Þ":{"ha":688,"x_min":68,"x_max":753,"o":"m 208 185 l 176 0 l 68 0 l 239 972 l 347 972 l 319 808 l 526 808 q 696 774 639 808 q 753 647 753 739 q 751 615 753 632 q 746 579 749 599 l 718 425 q 681 308 706 354 q 619 234 656 261 q 531 196 582 207 q 415 185 481 185 l 208 185 m 635 576 q 638 589 638 583 q 638 600 638 594 q 619 673 638 649 q 551 697 600 697 l 300 697 l 228 294 l 479 294 q 608 422 585 294 l 635 576 z "},"ß":{"ha":829,"x_min":64,"x_max":843,"o":"m 317 0 l 336 107 l 588 107 q 715 226 694 107 l 733 331 q 735 345 735 338 q 736 360 736 353 q 644 436 736 436 q 511 547 511 436 q 515 590 511 567 l 549 779 q 551 793 550 786 q 551 807 551 800 q 476 878 551 878 l 411 878 q 307 781 324 878 l 169 0 l 64 0 l 200 769 q 422 974 235 974 l 501 974 q 657 829 657 974 q 656 801 657 815 q 651 769 654 786 l 619 593 q 618 583 618 588 q 618 574 618 578 q 663 528 618 528 q 843 386 843 528 q 842 362 843 375 q 838 335 840 349 l 818 224 q 571 0 778 0 l 317 0 z "},"à":{"ha":665,"x_min":79,"x_max":693,"o":"m 224 0 q 79 121 79 0 q 83 168 79 143 l 103 272 q 165 391 118 351 q 300 431 213 431 l 576 431 l 586 485 q 589 496 589 490 q 589 507 589 501 q 569 580 589 556 q 500 604 550 604 l 201 604 l 219 713 l 518 713 q 693 554 693 713 q 688 489 693 521 l 601 0 l 224 0 m 560 339 l 292 339 q 196 254 210 339 l 183 182 q 181 169 182 175 q 181 158 181 164 q 250 100 181 100 l 518 100 l 560 339 m 283 967 l 332 1022 l 611 808 l 576 772 l 283 967 z "},"á":{"ha":665,"x_min":79,"x_max":722,"o":"m 224 0 q 79 121 79 0 q 83 168 79 143 l 103 272 q 165 391 118 351 q 300 431 213 431 l 576 431 l 586 485 q 589 496 589 490 q 589 507 589 501 q 569 580 589 556 q 500 604 550 604 l 201 604 l 219 713 l 518 713 q 693 554 693 713 q 688 489 693 521 l 601 0 l 224 0 m 560 339 l 292 339 q 196 254 210 339 l 183 182 q 181 169 182 175 q 181 158 181 164 q 250 100 181 100 l 518 100 l 560 339 m 360 772 l 339 808 l 693 1022 l 722 967 l 360 772 z "},"â":{"ha":665,"x_min":79,"x_max":747,"o":"m 224 0 q 79 121 79 0 q 83 168 79 143 l 103 272 q 165 391 118 351 q 300 431 213 431 l 576 431 l 586 485 q 589 496 589 490 q 589 507 589 501 q 569 580 589 556 q 500 604 550 604 l 201 604 l 219 713 l 518 713 q 693 554 693 713 q 688 489 693 521 l 601 0 l 224 0 m 560 339 l 292 339 q 196 254 210 339 l 183 182 q 181 169 182 175 q 181 158 181 164 q 250 100 181 100 l 518 100 l 560 339 m 703 772 l 513 947 l 263 772 l 229 806 l 496 1022 l 558 1022 l 747 806 l 703 772 z "},"ã":{"ha":665,"x_min":79,"x_max":772,"o":"m 224 0 q 79 121 79 0 q 83 168 79 143 l 103 272 q 165 391 118 351 q 300 431 213 431 l 576 431 l 586 485 q 589 496 589 490 q 589 507 589 501 q 569 580 589 556 q 500 604 550 604 l 201 604 l 219 713 l 518 713 q 693 554 693 713 q 688 489 693 521 l 601 0 l 224 0 m 560 339 l 292 339 q 196 254 210 339 l 183 182 q 181 169 182 175 q 181 158 181 164 q 250 100 181 100 l 518 100 l 560 339 m 772 940 q 710 859 753 894 q 606 824 668 824 q 541 834 567 824 q 493 858 515 844 q 448 881 471 871 q 392 892 425 892 q 331 875 357 892 q 288 821 306 858 l 236 850 q 298 930 256 896 q 403 964 340 964 q 467 953 440 964 q 517 931 494 943 q 563 908 540 918 q 617 897 586 897 q 718 969 688 897 l 772 940 z "},"ä":{"ha":665,"x_min":79,"x_max":726,"o":"m 224 0 q 79 121 79 0 q 83 168 79 143 l 103 272 q 165 391 118 351 q 300 431 213 431 l 576 431 l 586 485 q 589 496 589 490 q 589 507 589 501 q 569 580 589 556 q 500 604 550 604 l 201 604 l 219 713 l 518 713 q 693 554 693 713 q 688 489 693 521 l 601 0 l 224 0 m 560 339 l 292 339 q 196 254 210 339 l 183 182 q 181 169 182 175 q 181 158 181 164 q 250 100 181 100 l 518 100 l 560 339 m 586 814 l 615 979 l 726 979 l 697 814 l 586 814 m 281 814 l 310 979 l 422 979 l 393 814 l 281 814 z "},"å":{"ha":665,"x_min":79,"x_max":699,"o":"m 224 0 q 79 121 79 0 q 83 168 79 143 l 103 272 q 165 391 118 351 q 300 431 213 431 l 576 431 l 586 485 q 589 496 589 490 q 589 507 589 501 q 569 580 589 556 q 500 604 550 604 l 201 604 l 219 713 l 518 713 q 693 554 693 713 q 688 489 693 521 l 601 0 l 224 0 m 560 339 l 292 339 q 196 254 210 339 l 183 182 q 181 169 182 175 q 181 158 181 164 q 250 100 181 100 l 518 100 l 560 339 m 699 935 q 688 858 699 893 q 650 796 676 822 q 581 755 624 769 q 474 740 538 740 q 349 775 386 740 q 311 868 311 810 q 322 945 311 910 q 358 1006 333 981 q 426 1047 383 1032 q 531 1063 468 1063 q 660 1028 622 1063 q 699 935 699 993 m 633 924 q 608 987 633 964 q 521 1010 583 1010 q 451 999 479 1010 q 407 972 424 989 q 383 930 390 954 q 376 878 376 906 q 401 815 376 838 q 483 792 425 792 q 554 802 525 792 q 601 830 583 813 q 626 872 618 847 q 633 924 633 896 z "},"æ":{"ha":1107,"x_min":79,"x_max":1136,"o":"m 746 0 q 645 21 679 0 q 600 85 611 42 l 585 0 l 215 0 q 79 124 79 0 q 85 176 79 153 l 101 267 q 293 425 131 425 l 575 425 l 586 489 q 588 507 588 499 q 589 522 589 515 q 500 604 589 604 l 201 604 l 219 713 l 518 713 q 614 689 576 713 q 660 621 651 665 q 729 689 683 665 q 833 713 775 713 l 961 713 q 1136 554 1136 713 q 1131 489 1136 521 l 1100 317 l 657 317 l 640 222 q 638 206 639 214 q 638 190 638 197 q 728 107 638 107 l 1044 107 l 1025 0 l 746 0 m 561 344 l 294 344 q 197 260 211 344 l 183 182 q 181 169 182 175 q 181 158 181 164 q 250 100 181 100 l 518 100 l 561 344 m 1031 492 q 1033 503 1033 497 q 1033 514 1033 508 q 1014 587 1033 563 q 946 611 994 611 l 817 611 q 688 492 707 611 l 672 399 l 1015 399 l 1031 492 z "},"ç":{"ha":582,"x_min":94,"x_max":644,"o":"m 269 0 q 94 160 94 0 q 96 192 94 175 q 100 224 97 208 l 146 482 q 394 713 188 713 l 644 713 l 626 604 l 379 604 q 250 478 272 604 l 206 226 q 201 190 201 207 q 292 107 201 107 l 542 107 l 522 0 l 269 0 m 179 -325 l 239 -56 l 363 -56 l 267 -325 l 179 -325 z "},"è":{"ha":667,"x_min":94,"x_max":697,"o":"m 269 0 q 94 160 94 0 q 96 192 94 175 q 100 224 97 208 l 147 489 q 394 713 188 713 l 521 713 q 697 554 697 713 q 696 521 697 538 q 692 489 694 504 l 661 313 l 218 313 l 203 226 q 199 190 199 207 q 289 107 199 107 l 606 107 l 586 0 l 269 0 m 592 492 q 594 503 594 497 q 594 514 594 508 q 575 587 594 563 q 506 611 556 611 l 378 611 q 249 492 269 611 l 233 404 l 576 404 l 592 492 m 285 967 l 333 1022 l 613 808 l 578 772 l 285 967 z "},"é":{"ha":667,"x_min":94,"x_max":724,"o":"m 269 0 q 94 160 94 0 q 96 192 94 175 q 100 224 97 208 l 147 489 q 394 713 188 713 l 521 713 q 697 554 697 713 q 696 521 697 538 q 692 489 694 504 l 661 313 l 218 313 l 203 226 q 199 190 199 207 q 289 107 199 107 l 606 107 l 586 0 l 269 0 m 592 492 q 594 503 594 497 q 594 514 594 508 q 575 587 594 563 q 506 611 556 611 l 378 611 q 249 492 269 611 l 233 404 l 576 404 l 592 492 m 361 772 l 340 808 l 694 1022 l 724 967 l 361 772 z "},"ê":{"ha":667,"x_min":94,"x_max":733,"o":"m 269 0 q 94 160 94 0 q 96 192 94 175 q 100 224 97 208 l 147 489 q 394 713 188 713 l 521 713 q 697 554 697 713 q 696 521 697 538 q 692 489 694 504 l 661 313 l 218 313 l 203 226 q 199 190 199 207 q 289 107 199 107 l 606 107 l 586 0 l 269 0 m 592 492 q 594 503 594 497 q 594 514 594 508 q 575 587 594 563 q 506 611 556 611 l 378 611 q 249 492 269 611 l 233 404 l 576 404 l 592 492 m 689 772 l 499 947 l 249 772 l 215 806 l 482 1022 l 544 1022 l 733 806 l 689 772 z "},"ë":{"ha":667,"x_min":94,"x_max":728,"o":"m 269 0 q 94 160 94 0 q 96 192 94 175 q 100 224 97 208 l 147 489 q 394 713 188 713 l 521 713 q 697 554 697 713 q 696 521 697 538 q 692 489 694 504 l 661 313 l 218 313 l 203 226 q 199 190 199 207 q 289 107 199 107 l 606 107 l 586 0 l 269 0 m 592 492 q 594 503 594 497 q 594 514 594 508 q 575 587 594 563 q 506 611 556 611 l 378 611 q 249 492 269 611 l 233 404 l 576 404 l 592 492 m 588 814 l 617 979 l 728 979 l 699 814 l 588 814 m 282 814 l 311 979 l 424 979 l 394 814 l 282 814 z "},"ì":{"ha":256,"x_min":75,"x_max":406,"o":"m 75 0 l 200 713 l 306 713 l 181 0 l 75 0 m 78 967 l 126 1022 l 406 808 l 372 772 l 78 967 z "},"í":{"ha":256,"x_min":75,"x_max":517,"o":"m 75 0 l 200 713 l 306 713 l 181 0 l 75 0 m 156 772 l 133 808 l 488 1022 l 517 967 l 156 772 z "},"î":{"ha":256,"x_min":11,"x_max":529,"o":"m 75 0 l 200 713 l 306 713 l 181 0 l 75 0 m 485 772 l 294 947 l 44 772 l 11 806 l 276 1022 l 339 1022 l 529 806 l 485 772 z "},"ï":{"ha":256,"x_min":63,"x_max":508,"o":"m 75 0 l 200 713 l 306 713 l 181 0 l 75 0 m 368 814 l 397 979 l 508 979 l 479 814 l 368 814 m 63 814 l 92 979 l 204 979 l 175 814 l 63 814 z "},"ð":{"ha":683,"x_min":97,"x_max":757,"o":"m 283 0 q 97 171 97 0 q 99 206 97 188 q 104 244 101 225 l 136 428 q 222 606 157 550 q 400 661 288 661 l 635 661 l 646 728 q 650 772 650 753 q 554 874 650 874 l 357 874 l 375 974 l 582 974 q 757 801 757 974 q 756 765 757 783 q 750 724 754 746 l 665 244 q 400 0 621 0 l 283 0 m 617 558 l 404 558 q 336 551 364 558 q 289 525 308 543 q 257 478 269 507 q 238 407 244 450 l 213 264 q 208 231 210 246 q 206 203 206 217 q 235 128 206 149 q 324 107 264 107 l 397 107 q 507 138 468 107 q 561 247 546 169 l 617 558 z "},"ñ":{"ha":697,"x_min":68,"x_max":788,"o":"m 529 0 l 615 488 q 619 529 619 510 q 553 604 619 604 l 376 604 q 296 576 322 604 q 258 486 269 549 l 172 0 l 68 0 l 193 713 l 293 713 l 278 625 q 344 693 307 674 q 440 713 381 713 l 597 713 q 726 569 726 713 q 724 534 726 553 q 719 494 722 515 l 632 0 l 529 0 m 788 940 q 726 859 768 894 q 621 824 683 824 q 556 834 582 824 q 508 858 531 844 q 463 881 486 871 q 407 892 440 892 q 347 875 372 892 q 303 821 321 858 l 251 850 q 313 930 271 896 q 418 964 356 964 q 483 953 456 964 q 533 931 510 943 q 578 908 556 918 q 632 897 601 897 q 733 969 703 897 l 788 940 z "},"ò":{"ha":683,"x_min":93,"x_max":715,"o":"m 292 0 q 138 32 182 0 q 93 142 93 64 q 96 188 93 163 q 104 242 99 213 l 144 471 q 176 589 157 542 q 227 663 196 636 q 304 701 258 690 q 417 713 350 713 l 517 713 q 671 680 626 713 q 715 568 715 647 q 713 522 715 546 q 706 471 710 497 l 665 242 q 591 60 643 119 q 432 0 539 0 l 292 0 m 604 489 q 608 536 608 515 q 591 589 608 574 q 535 604 574 604 l 361 604 q 254 506 271 604 l 204 222 q 200 176 200 194 q 217 123 200 139 q 274 107 235 107 l 447 107 q 554 206 538 107 l 604 489 m 293 967 l 342 1022 l 621 808 l 586 772 l 293 967 z "},"ó":{"ha":683,"x_min":93,"x_max":732,"o":"m 292 0 q 138 32 182 0 q 93 142 93 64 q 96 188 93 163 q 104 242 99 213 l 144 471 q 176 589 157 542 q 227 663 196 636 q 304 701 258 690 q 417 713 350 713 l 517 713 q 671 680 626 713 q 715 568 715 647 q 713 522 715 546 q 706 471 710 497 l 665 242 q 591 60 643 119 q 432 0 539 0 l 292 0 m 604 489 q 608 536 608 515 q 591 589 608 574 q 535 604 574 604 l 361 604 q 254 506 271 604 l 204 222 q 200 176 200 194 q 217 123 200 139 q 274 107 235 107 l 447 107 q 554 206 538 107 l 604 489 m 369 772 l 349 808 l 703 1022 l 732 967 l 369 772 z "},"ô":{"ha":683,"x_min":93,"x_max":742,"o":"m 292 0 q 138 32 182 0 q 93 142 93 64 q 96 188 93 163 q 104 242 99 213 l 144 471 q 176 589 157 542 q 227 663 196 636 q 304 701 258 690 q 417 713 350 713 l 517 713 q 671 680 626 713 q 715 568 715 647 q 713 522 715 546 q 706 471 710 497 l 665 242 q 591 60 643 119 q 432 0 539 0 l 292 0 m 604 489 q 608 536 608 515 q 591 589 608 574 q 535 604 574 604 l 361 604 q 254 506 271 604 l 204 222 q 200 176 200 194 q 217 123 200 139 q 274 107 235 107 l 447 107 q 554 206 538 107 l 604 489 m 697 772 l 507 947 l 257 772 l 224 806 l 490 1022 l 553 1022 l 742 806 l 697 772 z "},"õ":{"ha":683,"x_min":93,"x_max":767,"o":"m 292 0 q 138 32 182 0 q 93 142 93 64 q 96 188 93 163 q 104 242 99 213 l 144 471 q 176 589 157 542 q 227 663 196 636 q 304 701 258 690 q 417 713 350 713 l 517 713 q 671 680 626 713 q 715 568 715 647 q 713 522 715 546 q 706 471 710 497 l 665 242 q 591 60 643 119 q 432 0 539 0 l 292 0 m 604 489 q 608 536 608 515 q 591 589 608 574 q 535 604 574 604 l 361 604 q 254 506 271 604 l 204 222 q 200 176 200 194 q 217 123 200 139 q 274 107 235 107 l 447 107 q 554 206 538 107 l 604 489 m 767 940 q 705 859 747 894 q 600 824 663 824 q 535 834 561 824 q 488 858 510 844 q 442 881 465 871 q 386 892 419 892 q 326 875 351 892 q 282 821 300 858 l 231 850 q 292 930 250 896 q 397 964 335 964 q 462 953 435 964 q 512 931 489 943 q 558 908 535 918 q 611 897 581 897 q 713 969 682 897 l 767 940 z "},"ö":{"ha":683,"x_min":93,"x_max":722,"o":"m 292 0 q 138 32 182 0 q 93 142 93 64 q 96 188 93 163 q 104 242 99 213 l 144 471 q 176 589 157 542 q 227 663 196 636 q 304 701 258 690 q 417 713 350 713 l 517 713 q 671 680 626 713 q 715 568 715 647 q 713 522 715 546 q 706 471 710 497 l 665 242 q 591 60 643 119 q 432 0 539 0 l 292 0 m 604 489 q 608 536 608 515 q 591 589 608 574 q 535 604 574 604 l 361 604 q 254 506 271 604 l 204 222 q 200 176 200 194 q 217 123 200 139 q 274 107 235 107 l 447 107 q 554 206 538 107 l 604 489 m 582 814 l 611 979 l 722 979 l 693 814 l 582 814 m 276 814 l 306 979 l 418 979 l 389 814 l 276 814 z "},"÷":{"ha":857,"x_min":142,"x_max":892,"o":"m 142 449 l 161 554 l 892 554 l 872 449 l 142 449 m 500 713 l 536 921 l 642 921 l 606 713 l 500 713 m 385 56 l 421 264 l 526 264 l 490 56 l 385 56 z "},"ø":{"ha":683,"x_min":93,"x_max":728,"o":"m 292 0 q 242 1 264 0 q 201 7 221 3 l 151 -67 l 96 -36 l 140 29 q 93 142 93 60 q 96 188 93 163 q 104 242 99 213 l 144 471 q 176 589 157 542 q 227 663 196 636 q 304 701 258 690 q 417 713 350 713 l 517 713 q 608 704 568 713 l 674 800 l 728 769 l 667 682 q 704 636 693 664 q 715 567 715 608 q 706 471 715 524 l 665 242 q 591 60 643 119 q 432 0 539 0 l 292 0 m 604 489 q 608 535 608 515 q 597 581 608 565 l 271 107 l 447 107 q 554 206 538 107 l 604 489 m 204 222 q 200 174 200 193 q 210 131 200 144 l 538 604 l 361 604 q 254 506 271 604 l 204 222 z "},"ù":{"ha":686,"x_min":94,"x_max":743,"o":"m 517 0 l 532 86 q 467 19 504 38 q 369 0 431 0 l 225 0 q 94 140 94 0 q 103 218 94 174 l 189 713 l 292 713 l 206 224 q 201 185 201 200 q 271 107 201 107 l 435 107 q 516 136 489 107 q 554 225 543 165 l 639 713 l 743 713 l 618 0 l 517 0 m 294 967 l 343 1022 l 622 808 l 588 772 l 294 967 z "},"ú":{"ha":686,"x_min":94,"x_max":743,"o":"m 517 0 l 532 86 q 467 19 504 38 q 369 0 431 0 l 225 0 q 94 140 94 0 q 103 218 94 174 l 189 713 l 292 713 l 206 224 q 201 185 201 200 q 271 107 201 107 l 435 107 q 516 136 489 107 q 554 225 543 165 l 639 713 l 743 713 l 618 0 l 517 0 m 371 772 l 350 808 l 704 1022 l 733 967 l 371 772 z "},"û":{"ha":686,"x_min":94,"x_max":743,"o":"m 517 0 l 532 86 q 467 19 504 38 q 369 0 431 0 l 225 0 q 94 140 94 0 q 103 218 94 174 l 189 713 l 292 713 l 206 224 q 201 185 201 200 q 271 107 201 107 l 435 107 q 516 136 489 107 q 554 225 543 165 l 639 713 l 743 713 l 618 0 l 517 0 m 699 772 l 508 947 l 258 772 l 225 806 l 492 1022 l 554 1022 l 743 806 l 699 772 z "},"ü":{"ha":686,"x_min":94,"x_max":743,"o":"m 517 0 l 532 86 q 467 19 504 38 q 369 0 431 0 l 225 0 q 94 140 94 0 q 103 218 94 174 l 189 713 l 292 713 l 206 224 q 201 185 201 200 q 271 107 201 107 l 435 107 q 516 136 489 107 q 554 225 543 165 l 639 713 l 743 713 l 618 0 l 517 0 m 581 814 l 610 979 l 721 979 l 692 814 l 581 814 m 275 814 l 304 979 l 417 979 l 388 814 l 275 814 z "},"ý":{"ha":667,"x_min":107,"x_max":725,"o":"m 151 -221 l 168 -122 l 369 -122 q 451 -90 418 -122 q 496 4 485 -58 l 506 63 l 283 63 q 107 217 107 63 q 109 247 107 232 q 114 281 111 263 l 189 713 l 293 713 l 217 276 q 213 242 213 257 q 304 160 213 160 l 522 160 l 619 713 l 725 713 l 601 8 q 363 -221 561 -221 l 151 -221 m 361 772 l 340 808 l 694 1022 l 724 967 l 361 772 z "},"þ":{"ha":669,"x_min":29,"x_max":697,"o":"m 172 0 l 133 -222 l 29 -222 l 240 974 l 344 974 l 297 713 l 525 713 q 657 670 617 713 q 697 543 697 628 q 694 493 697 519 q 686 438 692 467 l 647 224 q 566 56 626 111 q 400 0 506 0 l 172 0 m 585 458 q 589 487 588 472 q 590 517 590 501 q 571 581 590 558 q 503 604 551 604 l 279 604 l 192 107 l 417 107 q 544 226 524 107 l 585 458 z "},"ÿ":{"ha":667,"x_min":107,"x_max":725,"o":"m 151 -221 l 168 -122 l 369 -122 q 451 -90 418 -122 q 496 4 485 -58 l 506 63 l 283 63 q 107 217 107 63 q 109 247 107 232 q 114 281 111 263 l 189 713 l 293 713 l 217 276 q 213 242 213 257 q 304 160 213 160 l 522 160 l 619 713 l 725 713 l 601 8 q 363 -221 561 -221 l 151 -221 m 574 814 l 603 979 l 714 979 l 685 814 l 574 814 m 268 814 l 297 979 l 410 979 l 381 814 l 268 814 z "},"Ā":{"ha":694,"x_min":22,"x_max":788,"o":"m 556 0 l 539 193 l 213 193 l 129 0 l 22 0 l 453 974 l 578 974 l 672 0 l 556 0 m 486 824 l 251 285 l 531 285 l 486 824 m 315 1119 l 331 1203 l 788 1203 l 772 1119 l 315 1119 z "},"ā":{"ha":665,"x_min":79,"x_max":742,"o":"m 224 0 q 79 121 79 0 q 83 168 79 143 l 103 272 q 165 391 118 351 q 300 431 213 431 l 576 431 l 586 485 q 589 496 589 490 q 589 507 589 501 q 569 580 589 556 q 500 604 550 604 l 201 604 l 219 713 l 518 713 q 693 554 693 713 q 688 489 693 521 l 601 0 l 224 0 m 560 339 l 292 339 q 196 254 210 339 l 183 182 q 181 169 182 175 q 181 158 181 164 q 250 100 181 100 l 518 100 l 560 339 m 269 858 l 285 942 l 742 942 l 726 858 l 269 858 z "},"Ă":{"ha":694,"x_min":22,"x_max":822,"o":"m 556 0 l 539 193 l 213 193 l 129 0 l 22 0 l 453 974 l 578 974 l 672 0 l 556 0 m 486 824 l 251 285 l 531 285 l 486 824 m 822 1228 q 780 1160 807 1194 q 715 1097 753 1125 q 631 1051 678 1069 q 529 1033 583 1033 q 433 1051 475 1033 q 363 1097 390 1069 q 320 1160 335 1125 q 306 1228 306 1194 l 363 1260 q 416 1147 367 1192 q 540 1101 465 1101 q 680 1145 619 1101 q 776 1260 740 1189 l 822 1228 z "},"ă":{"ha":665,"x_min":79,"x_max":775,"o":"m 224 0 q 79 121 79 0 q 83 168 79 143 l 103 272 q 165 391 118 351 q 300 431 213 431 l 576 431 l 586 485 q 589 496 589 490 q 589 507 589 501 q 569 580 589 556 q 500 604 550 604 l 201 604 l 219 713 l 518 713 q 693 554 693 713 q 688 489 693 521 l 601 0 l 224 0 m 560 339 l 292 339 q 196 254 210 339 l 183 182 q 181 169 182 175 q 181 158 181 164 q 250 100 181 100 l 518 100 l 560 339 m 775 967 q 733 899 760 933 q 668 836 706 864 q 583 790 631 808 q 482 772 536 772 q 385 790 428 772 q 315 836 343 808 q 273 899 288 864 q 258 967 258 933 l 315 999 q 369 885 319 931 q 493 840 418 840 q 633 884 572 840 q 729 999 693 928 l 775 967 z "},"Ą":{"ha":694,"x_min":22,"x_max":672,"o":"m 463 -325 q 329 -225 329 -325 q 363 -127 329 -171 q 474 -53 397 -83 l 607 0 l 556 0 l 538 193 l 211 193 l 129 0 l 22 0 l 451 974 l 576 974 l 672 0 l 497 -74 q 428 -156 428 -104 q 445 -194 428 -179 q 503 -208 463 -208 l 635 -208 l 614 -325 l 463 -325 m 485 824 l 251 285 l 531 285 l 485 824 z "},"ą":{"ha":665,"x_min":79,"x_max":693,"o":"m 392 -325 q 258 -225 258 -325 q 292 -127 258 -171 q 403 -53 326 -83 l 536 0 l 224 0 q 79 121 79 0 q 83 168 79 143 l 101 272 q 299 431 128 431 l 575 431 l 585 485 q 588 496 588 490 q 588 507 588 501 q 568 580 588 556 q 499 604 549 604 l 200 604 l 219 713 l 518 713 q 693 553 693 713 q 692 522 693 538 q 688 489 690 506 l 601 0 l 426 -74 q 357 -156 357 -104 q 374 -194 357 -179 q 432 -208 392 -208 l 564 -208 l 543 -325 l 392 -325 m 560 339 l 292 339 q 196 254 210 339 l 183 182 q 181 169 182 175 q 181 158 181 164 q 249 100 181 100 l 517 100 l 560 339 z "},"Ć":{"ha":651,"x_min":96,"x_max":763,"o":"m 294 0 q 96 171 96 0 q 98 201 96 185 q 103 238 100 218 l 192 743 q 460 974 231 974 l 763 974 l 742 863 l 439 863 q 300 743 321 863 l 211 238 q 207 201 207 217 q 310 111 207 111 l 613 111 l 593 0 l 294 0 m 399 1033 l 378 1069 l 732 1283 l 761 1228 l 399 1033 z "},"ć":{"ha":582,"x_min":94,"x_max":681,"o":"m 269 0 q 94 160 94 0 q 96 192 94 175 q 100 224 97 208 l 146 482 q 394 713 188 713 l 644 713 l 626 604 l 379 604 q 250 478 272 604 l 206 226 q 201 190 201 207 q 292 107 201 107 l 542 107 l 522 0 l 269 0 m 318 772 l 297 808 l 651 1022 l 681 967 l 318 772 z "},"Ĉ":{"ha":651,"x_min":96,"x_max":772,"o":"m 294 0 q 96 171 96 0 q 98 201 96 185 q 103 238 100 218 l 192 743 q 460 974 231 974 l 763 974 l 742 863 l 439 863 q 300 743 321 863 l 211 238 q 207 201 207 217 q 310 111 207 111 l 613 111 l 593 0 l 294 0 m 728 1033 l 538 1208 l 288 1033 l 254 1067 l 521 1283 l 583 1283 l 772 1067 l 728 1033 z "},"ĉ":{"ha":582,"x_min":94,"x_max":693,"o":"m 269 0 q 94 160 94 0 q 96 192 94 175 q 100 224 97 208 l 146 482 q 394 713 188 713 l 644 713 l 626 604 l 379 604 q 250 478 272 604 l 206 226 q 201 190 201 207 q 292 107 201 107 l 542 107 l 522 0 l 269 0 m 649 772 l 458 947 l 208 772 l 175 806 l 442 1022 l 504 1022 l 693 806 l 649 772 z "},"Ċ":{"ha":651,"x_min":96,"x_max":763,"o":"m 294 0 q 96 171 96 0 q 98 201 96 185 q 103 238 100 218 l 192 743 q 460 974 231 974 l 763 974 l 742 863 l 439 863 q 300 743 321 863 l 211 238 q 207 201 207 217 q 310 111 207 111 l 613 111 l 593 0 l 294 0 m 500 1075 l 529 1240 l 640 1240 l 611 1075 l 500 1075 z "},"ċ":{"ha":582,"x_min":94,"x_max":644,"o":"m 269 0 q 94 160 94 0 q 96 192 94 175 q 100 224 97 208 l 146 482 q 394 713 188 713 l 644 713 l 626 604 l 379 604 q 250 478 272 604 l 206 226 q 201 190 201 207 q 292 107 201 107 l 542 107 l 522 0 l 269 0 m 419 814 l 449 979 l 560 979 l 531 814 l 419 814 z "},"Č":{"ha":651,"x_min":96,"x_max":833,"o":"m 294 0 q 96 171 96 0 q 98 201 96 185 q 103 238 100 218 l 192 743 q 460 974 231 974 l 763 974 l 742 863 l 439 863 q 300 743 321 863 l 211 238 q 207 201 207 217 q 310 111 207 111 l 613 111 l 593 0 l 294 0 m 565 1033 l 504 1033 l 315 1250 l 360 1283 l 547 1107 l 800 1283 l 833 1250 l 565 1033 z "},"č":{"ha":582,"x_min":94,"x_max":753,"o":"m 269 0 q 94 160 94 0 q 96 192 94 175 q 100 224 97 208 l 146 482 q 394 713 188 713 l 644 713 l 626 604 l 379 604 q 250 478 272 604 l 206 226 q 201 190 201 207 q 292 107 201 107 l 542 107 l 522 0 l 269 0 m 485 772 l 424 772 l 235 989 l 279 1022 l 467 846 l 719 1022 l 753 989 l 485 772 z "},"Ď":{"ha":713,"x_min":68,"x_max":822,"o":"m 68 0 l 240 974 l 568 974 q 783 783 783 974 q 781 747 783 767 q 776 708 779 728 l 699 265 q 390 0 653 0 l 68 0 m 667 708 q 671 753 671 731 q 547 863 671 863 l 328 863 l 196 111 l 413 111 q 589 265 561 111 l 667 708 m 554 1033 l 493 1033 l 304 1250 l 349 1283 l 536 1107 l 789 1283 l 822 1250 l 554 1033 z "},"ď":{"ha":775,"x_min":94,"x_max":947,"o":"m 269 0 q 94 160 94 0 q 96 192 94 175 q 100 224 97 208 l 147 489 q 394 713 188 713 l 624 713 l 671 974 l 776 974 l 604 0 l 269 0 m 606 604 l 381 604 q 251 485 272 604 l 206 226 q 201 190 201 207 q 293 107 201 107 l 518 107 l 606 604 m 761 636 l 835 974 l 947 974 l 839 636 l 761 636 z "},"Đ":{"ha":710,"x_min":65,"x_max":781,"o":"m 65 0 l 143 439 l 92 439 l 107 529 l 158 529 l 238 974 l 565 974 q 781 783 781 974 q 778 747 781 767 q 774 708 776 728 l 696 265 q 388 0 650 0 l 65 0 m 664 708 q 668 753 668 731 q 544 863 668 863 l 325 863 l 267 529 l 428 529 l 413 439 l 251 439 l 193 111 l 410 111 q 586 265 558 111 l 664 708 z "},"đ":{"ha":672,"x_min":93,"x_max":828,"o":"m 269 0 q 93 158 93 0 q 95 188 93 172 q 100 224 97 204 l 147 489 q 394 713 188 713 l 624 713 l 639 803 l 397 803 l 413 886 l 654 886 l 669 974 l 775 974 l 760 886 l 828 886 l 813 803 l 744 803 l 604 0 l 269 0 m 604 604 l 379 604 q 250 485 271 604 l 204 226 q 200 190 200 207 q 292 107 200 107 l 517 107 l 604 604 z "},"Ē":{"ha":664,"x_min":68,"x_max":786,"o":"m 68 0 l 240 974 l 782 974 l 761 863 l 328 863 l 272 546 l 531 546 l 513 443 l 254 443 l 196 111 l 629 111 l 610 0 l 68 0 m 314 1119 l 329 1203 l 786 1203 l 771 1119 l 314 1119 z "},"ē":{"ha":667,"x_min":94,"x_max":742,"o":"m 269 0 q 94 160 94 0 q 96 192 94 175 q 100 224 97 208 l 147 489 q 394 713 188 713 l 521 713 q 697 554 697 713 q 696 521 697 538 q 692 489 694 504 l 661 313 l 218 313 l 203 226 q 199 190 199 207 q 289 107 199 107 l 606 107 l 586 0 l 269 0 m 592 492 q 594 503 594 497 q 594 514 594 508 q 575 587 594 563 q 506 611 556 611 l 378 611 q 249 492 269 611 l 233 404 l 576 404 l 592 492 m 269 858 l 285 942 l 742 942 l 726 858 l 269 858 z "},"Ĕ":{"ha":664,"x_min":68,"x_max":821,"o":"m 68 0 l 240 974 l 782 974 l 761 863 l 328 863 l 272 546 l 531 546 l 513 443 l 254 443 l 196 111 l 629 111 l 610 0 l 68 0 m 821 1228 q 778 1160 806 1194 q 714 1097 751 1125 q 629 1051 676 1069 q 528 1033 582 1033 q 431 1051 474 1033 q 361 1097 389 1069 q 319 1160 333 1125 q 304 1228 304 1194 l 361 1260 q 415 1147 365 1192 q 539 1101 464 1101 q 678 1145 618 1101 q 775 1260 739 1189 l 821 1228 z "},"ĕ":{"ha":667,"x_min":94,"x_max":776,"o":"m 269 0 q 94 160 94 0 q 96 192 94 175 q 100 224 97 208 l 147 489 q 394 713 188 713 l 521 713 q 697 554 697 713 q 696 521 697 538 q 692 489 694 504 l 661 313 l 218 313 l 203 226 q 199 190 199 207 q 289 107 199 107 l 606 107 l 586 0 l 269 0 m 592 492 q 594 503 594 497 q 594 514 594 508 q 575 587 594 563 q 506 611 556 611 l 378 611 q 249 492 269 611 l 233 404 l 576 404 l 592 492 m 776 967 q 734 899 761 933 q 669 836 707 864 q 585 790 632 808 q 483 772 538 772 q 387 790 429 772 q 317 836 344 808 q 274 899 289 864 q 260 967 260 933 l 317 999 q 370 885 321 931 q 494 840 419 840 q 634 884 574 840 q 731 999 694 928 l 776 967 z "},"Ė":{"ha":664,"x_min":68,"x_max":782,"o":"m 68 0 l 240 974 l 782 974 l 761 863 l 328 863 l 272 546 l 531 546 l 513 443 l 254 443 l 196 111 l 629 111 l 610 0 l 68 0 m 486 1075 l 515 1240 l 626 1240 l 597 1075 l 486 1075 z "},"ė":{"ha":667,"x_min":94,"x_max":697,"o":"m 269 0 q 94 160 94 0 q 96 192 94 175 q 100 224 97 208 l 147 489 q 394 713 188 713 l 521 713 q 697 554 697 713 q 696 521 697 538 q 692 489 694 504 l 661 313 l 218 313 l 203 226 q 199 190 199 207 q 289 107 199 107 l 606 107 l 586 0 l 269 0 m 592 492 q 594 503 594 497 q 594 514 594 508 q 575 587 594 563 q 506 611 556 611 l 378 611 q 249 492 269 611 l 233 404 l 576 404 l 592 492 m 435 814 l 464 979 l 575 979 l 546 814 l 435 814 z "},"Ę":{"ha":664,"x_min":68,"x_max":781,"o":"m 400 -325 q 267 -225 267 -325 q 301 -127 267 -171 q 411 -53 335 -83 l 544 0 l 68 0 l 239 974 l 781 974 l 761 863 l 328 863 l 272 546 l 531 546 l 513 443 l 254 443 l 196 111 l 629 111 l 610 0 l 435 -74 q 365 -156 365 -104 q 383 -194 365 -179 q 440 -208 400 -208 l 572 -208 l 551 -325 l 400 -325 z "},"ę":{"ha":667,"x_min":93,"x_max":697,"o":"m 376 -325 q 243 -225 243 -325 q 277 -127 243 -171 q 388 -53 311 -83 l 521 0 l 269 0 q 93 158 93 0 q 95 188 93 172 q 100 224 97 204 l 147 489 q 394 713 188 713 l 521 713 q 697 553 697 713 q 696 522 697 538 q 692 489 694 506 l 660 313 l 217 313 l 201 226 q 197 190 197 207 q 288 107 197 107 l 604 107 l 586 0 l 411 -74 q 342 -156 342 -104 q 359 -194 342 -179 q 417 -208 376 -208 l 549 -208 l 528 -325 l 376 -325 m 592 492 q 594 510 593 501 q 594 526 594 519 q 504 611 594 611 l 376 611 q 249 492 269 611 l 233 404 l 576 404 l 592 492 z "},"Ě":{"ha":664,"x_min":68,"x_max":825,"o":"m 68 0 l 240 974 l 782 974 l 761 863 l 328 863 l 272 546 l 531 546 l 513 443 l 254 443 l 196 111 l 629 111 l 610 0 l 68 0 m 557 1033 l 496 1033 l 307 1250 l 351 1283 l 539 1107 l 792 1283 l 825 1250 l 557 1033 z "},"ě":{"ha":667,"x_min":94,"x_max":781,"o":"m 269 0 q 94 160 94 0 q 96 192 94 175 q 100 224 97 208 l 147 489 q 394 713 188 713 l 521 713 q 697 554 697 713 q 696 521 697 538 q 692 489 694 504 l 661 313 l 218 313 l 203 226 q 199 190 199 207 q 289 107 199 107 l 606 107 l 586 0 l 269 0 m 592 492 q 594 503 594 497 q 594 514 594 508 q 575 587 594 563 q 506 611 556 611 l 378 611 q 249 492 269 611 l 233 404 l 576 404 l 592 492 m 513 772 l 451 772 l 263 989 l 307 1022 l 494 846 l 747 1022 l 781 989 l 513 772 z "},"Ĝ":{"ha":701,"x_min":96,"x_max":792,"o":"m 294 0 q 96 171 96 0 q 98 201 96 185 q 103 238 100 218 l 190 736 q 460 974 232 974 l 792 974 l 771 863 l 439 863 q 299 736 321 863 l 211 238 q 207 201 207 217 q 310 111 207 111 l 557 111 l 617 447 l 415 447 l 433 549 l 736 549 l 639 0 l 294 0 m 739 1033 l 549 1208 l 299 1033 l 265 1067 l 532 1283 l 594 1283 l 783 1067 l 739 1033 z "},"ĝ":{"ha":674,"x_min":104,"x_max":751,"o":"m 140 -221 l 157 -122 l 376 -122 q 458 -90 425 -122 q 503 4 492 -58 l 513 63 l 281 63 q 104 217 104 63 q 106 247 104 232 q 111 281 108 263 l 147 489 q 394 713 185 713 l 732 713 l 608 8 q 369 -221 568 -221 l 140 -221 m 608 604 l 381 604 q 251 485 272 604 l 214 276 q 210 242 210 257 q 301 160 210 160 l 529 160 l 608 604 m 707 772 l 517 947 l 267 772 l 233 806 l 500 1022 l 563 1022 l 751 806 l 707 772 z "},"Ğ":{"ha":701,"x_min":96,"x_max":825,"o":"m 294 0 q 96 171 96 0 q 98 201 96 185 q 103 238 100 218 l 190 736 q 460 974 232 974 l 792 974 l 771 863 l 439 863 q 299 736 321 863 l 211 238 q 207 201 207 217 q 310 111 207 111 l 557 111 l 617 447 l 415 447 l 433 549 l 736 549 l 639 0 l 294 0 m 825 1228 q 783 1160 810 1194 q 718 1097 756 1125 q 633 1051 681 1069 q 532 1033 586 1033 q 435 1051 478 1033 q 365 1097 393 1069 q 323 1160 338 1125 q 308 1228 308 1194 l 365 1260 q 419 1147 369 1192 q 543 1101 468 1101 q 683 1145 622 1101 q 779 1260 743 1189 l 825 1228 z "},"ğ":{"ha":674,"x_min":104,"x_max":779,"o":"m 140 -221 l 157 -122 l 376 -122 q 458 -90 425 -122 q 503 4 492 -58 l 513 63 l 281 63 q 104 217 104 63 q 106 247 104 232 q 111 281 108 263 l 147 489 q 394 713 185 713 l 732 713 l 608 8 q 369 -221 568 -221 l 140 -221 m 608 604 l 381 604 q 251 485 272 604 l 214 276 q 210 242 210 257 q 301 160 210 160 l 529 160 l 608 604 m 779 967 q 737 899 764 933 q 672 836 710 864 q 588 790 635 808 q 486 772 540 772 q 390 790 432 772 q 319 836 347 808 q 277 899 292 864 q 263 967 263 933 l 319 999 q 373 885 324 931 q 497 840 422 840 q 637 884 576 840 q 733 999 697 928 l 779 967 z "},"Ġ":{"ha":701,"x_min":96,"x_max":792,"o":"m 294 0 q 96 171 96 0 q 98 201 96 185 q 103 238 100 218 l 190 736 q 460 974 232 974 l 792 974 l 771 863 l 439 863 q 299 736 321 863 l 211 238 q 207 201 207 217 q 310 111 207 111 l 557 111 l 617 447 l 415 447 l 433 549 l 736 549 l 639 0 l 294 0 m 511 1075 l 540 1240 l 651 1240 l 622 1075 l 511 1075 z "},"ġ":{"ha":674,"x_min":104,"x_max":732,"o":"m 140 -221 l 157 -122 l 376 -122 q 458 -90 425 -122 q 503 4 492 -58 l 513 63 l 281 63 q 104 217 104 63 q 106 247 104 232 q 111 281 108 263 l 147 489 q 394 713 185 713 l 732 713 l 608 8 q 369 -221 568 -221 l 140 -221 m 608 604 l 381 604 q 251 485 272 604 l 214 276 q 210 242 210 257 q 301 160 210 160 l 529 160 l 608 604 m 444 814 l 474 979 l 585 979 l 556 814 l 444 814 z "},"Ģ":{"ha":701,"x_min":96,"x_max":792,"o":"m 294 0 q 96 171 96 0 q 98 201 96 185 q 103 238 100 218 l 190 736 q 460 974 232 974 l 792 974 l 771 863 l 439 863 q 299 736 321 863 l 211 238 q 207 201 207 217 q 310 111 207 111 l 557 111 l 617 447 l 415 447 l 433 549 l 736 549 l 639 0 l 294 0 m 239 -325 l 299 -56 l 422 -56 l 326 -325 l 239 -325 z "},"ģ":{"ha":674,"x_min":104,"x_max":732,"o":"m 140 -221 l 157 -122 l 376 -122 q 458 -90 425 -122 q 503 4 492 -58 l 513 63 l 281 63 q 104 217 104 63 q 106 247 104 232 q 111 281 108 263 l 147 489 q 394 713 185 713 l 732 713 l 608 8 q 369 -221 568 -221 l 140 -221 m 608 604 l 381 604 q 251 485 272 604 l 214 276 q 210 242 210 257 q 301 160 210 160 l 529 160 l 608 604 m 614 1039 l 554 769 l 431 769 l 526 1039 l 614 1039 z "},"Ĥ":{"ha":714,"x_min":68,"x_max":818,"o":"m 536 0 l 614 438 l 254 438 l 176 0 l 68 0 l 240 974 l 349 974 l 272 543 l 632 543 l 708 974 l 818 974 l 646 0 l 536 0 m 758 1033 l 568 1208 l 318 1033 l 285 1067 l 551 1283 l 614 1283 l 803 1067 l 758 1033 z "},"ĥ":{"ha":694,"x_min":68,"x_max":774,"o":"m 526 0 l 613 488 q 617 531 617 513 q 550 604 617 604 l 376 604 q 296 576 322 604 q 258 486 269 549 l 172 0 l 68 0 l 240 974 l 344 974 l 282 625 q 347 693 311 674 q 444 713 383 713 l 594 713 q 725 568 725 713 q 723 533 725 551 q 718 494 721 515 l 631 0 l 526 0 m 729 1033 l 539 1208 l 289 1033 l 256 1067 l 522 1283 l 585 1283 l 774 1067 l 729 1033 z "},"Ħ":{"ha":714,"x_min":68,"x_max":817,"o":"m 536 0 l 613 438 l 253 438 l 176 0 l 68 0 l 239 974 l 347 974 l 317 797 l 676 797 l 707 974 l 817 974 l 646 0 l 536 0 m 631 543 l 661 714 l 301 714 l 271 543 l 631 543 z "},"ħ":{"ha":694,"x_min":68,"x_max":724,"o":"m 311 789 l 282 625 q 347 693 310 674 q 444 713 383 713 l 594 713 q 724 571 724 713 q 722 535 724 554 q 717 494 719 515 l 631 0 l 526 0 l 611 488 q 615 531 615 513 q 549 604 615 604 l 375 604 q 294 576 321 604 q 257 486 268 549 l 172 0 l 68 0 l 207 789 l 139 789 l 153 872 l 221 872 l 239 974 l 343 974 l 325 872 l 513 872 l 499 789 l 311 789 z "},"Ĩ":{"ha":258,"x_min":68,"x_max":604,"o":"m 75 0 l 247 974 l 356 974 l 183 0 l 75 0 m 604 1201 q 542 1120 585 1156 q 438 1085 500 1085 q 373 1095 399 1085 q 325 1119 347 1106 q 280 1142 303 1132 q 224 1153 257 1153 q 163 1136 189 1153 q 119 1082 138 1119 l 68 1111 q 130 1191 88 1157 q 235 1225 172 1225 q 299 1215 272 1225 q 349 1192 326 1204 q 395 1169 372 1179 q 449 1158 418 1158 q 550 1231 519 1158 l 604 1201 z "},"ĩ":{"ha":256,"x_min":19,"x_max":556,"o":"m 75 0 l 200 713 l 306 713 l 181 0 l 75 0 m 556 940 q 494 859 536 894 q 389 824 451 824 q 324 834 350 824 q 276 858 299 844 q 231 881 254 871 q 175 892 208 892 q 115 875 140 892 q 71 821 89 858 l 19 850 q 81 930 39 896 q 186 964 124 964 q 251 953 224 964 q 301 931 278 943 q 347 908 324 918 q 400 897 369 897 q 501 969 471 897 l 556 940 z "},"Ī":{"ha":258,"x_min":75,"x_max":574,"o":"m 75 0 l 247 974 l 356 974 l 183 0 l 75 0 m 101 1119 l 117 1203 l 574 1203 l 558 1119 l 101 1119 z "},"ī":{"ha":256,"x_min":53,"x_max":525,"o":"m 75 0 l 200 713 l 306 713 l 181 0 l 75 0 m 53 858 l 68 942 l 525 942 l 510 858 l 53 858 z "},"Ĭ":{"ha":258,"x_min":75,"x_max":607,"o":"m 75 0 l 247 974 l 356 974 l 183 0 l 75 0 m 607 1228 q 565 1160 592 1194 q 500 1097 538 1125 q 415 1051 463 1069 q 314 1033 368 1033 q 217 1051 260 1033 q 147 1097 175 1069 q 105 1160 119 1125 q 90 1228 90 1194 l 147 1260 q 201 1147 151 1192 q 325 1101 250 1101 q 465 1145 404 1101 q 561 1260 525 1189 l 607 1228 z "},"ĭ":{"ha":256,"x_min":42,"x_max":558,"o":"m 75 0 l 200 713 l 306 713 l 181 0 l 75 0 m 558 967 q 516 899 543 933 q 451 836 489 864 q 367 790 414 808 q 265 772 319 772 q 169 790 211 772 q 99 836 126 808 q 56 899 71 864 q 42 967 42 933 l 99 999 q 152 885 103 931 q 276 840 201 840 q 416 884 356 840 q 513 999 476 928 l 558 967 z "},"Į":{"ha":258,"x_min":-158,"x_max":354,"o":"m -25 -325 q -158 -225 -158 -325 q -124 -127 -158 -171 q -14 -53 -90 -83 l 118 0 l 75 0 l 246 974 l 354 974 l 183 0 l 8 -74 q -42 -109 -24 -87 q -60 -156 -60 -131 q -42 -194 -60 -179 q 14 -208 -25 -208 l 146 -208 l 125 -325 l -25 -325 z "},"į":{"ha":256,"x_min":-161,"x_max":306,"o":"m -28 -325 q -161 -225 -161 -325 q -127 -127 -161 -171 q -17 -53 -93 -83 l 115 0 l 75 0 l 200 713 l 306 713 l 181 0 l 6 -74 q -44 -109 -26 -87 q -62 -156 -62 -131 q -45 -194 -62 -179 q 11 -208 -28 -208 l 143 -208 l 122 -325 l -28 -325 z "},"İ":{"ha":258,"x_min":75,"x_max":403,"o":"m 75 0 l 247 974 l 356 974 l 183 0 l 75 0 m 263 1075 l 292 1240 l 403 1240 l 374 1075 l 263 1075 z "},"ı":{"ha":256,"x_min":75,"x_max":306,"o":"m 75 0 l 200 713 l 306 713 l 181 0 l 75 0 z "},"Ĳ":{"ha":874,"x_min":75,"x_max":982,"o":"m 75 0 l 247 974 l 356 974 l 183 0 l 75 0 m 296 0 l 315 111 l 600 111 q 743 238 721 111 l 853 863 l 629 863 l 650 974 l 982 974 l 851 238 q 576 0 810 0 l 296 0 z "},"ĳ":{"ha":553,"x_min":75,"x_max":657,"o":"m 217 807 l 247 974 l 353 974 l 322 807 l 217 807 m 75 0 l 200 713 l 306 713 l 181 0 l 75 0 m 161 -221 l 178 -122 l 253 -122 q 335 -90 301 -122 q 381 4 369 -58 l 504 713 l 610 713 l 486 8 q 247 -221 446 -221 l 161 -221 m 521 807 l 551 974 l 657 974 l 626 807 l 521 807 z "},"Ĵ":{"ha":615,"x_min":38,"x_max":754,"o":"m 38 0 l 57 111 l 342 111 q 485 238 463 111 l 594 863 l 371 863 l 392 974 l 724 974 l 593 238 q 318 0 551 0 l 38 0 m 710 1033 l 519 1208 l 269 1033 l 236 1067 l 503 1283 l 565 1283 l 754 1067 l 710 1033 z "},"ĵ":{"ha":297,"x_min":-94,"x_max":522,"o":"m -94 -221 l -76 -122 l -1 -122 q 124 4 101 -122 l 249 713 l 354 713 l 231 8 q -8 -221 189 -221 l -94 -221 m 478 772 l 288 947 l 38 772 l 4 806 l 269 1022 l 332 1022 l 522 806 l 478 772 z "},"Ķ":{"ha":683,"x_min":68,"x_max":801,"o":"m 507 0 l 563 314 q 565 328 564 321 q 565 343 565 336 q 541 408 565 385 q 468 432 517 432 l 253 432 l 176 0 l 68 0 l 240 974 l 349 974 l 267 515 l 679 974 l 801 974 l 376 517 l 483 517 q 629 478 583 517 q 675 368 675 440 q 671 318 675 344 l 615 0 l 507 0 m 217 -325 l 276 -56 l 400 -56 l 304 -325 l 217 -325 z "},"ķ":{"ha":660,"x_min":68,"x_max":744,"o":"m 500 0 l 532 185 q 536 210 535 199 q 538 232 538 221 q 515 305 538 288 q 443 322 492 322 l 229 322 l 172 0 l 68 0 l 240 974 l 344 974 l 243 403 l 615 713 l 744 713 l 358 404 l 483 404 q 608 362 569 404 q 646 254 646 319 q 642 210 646 232 l 604 0 l 500 0 m 204 -325 l 264 -56 l 388 -56 l 292 -325 l 204 -325 z "},"Ĺ":{"ha":532,"x_min":68,"x_max":565,"o":"m 68 0 l 240 974 l 347 974 l 194 111 l 521 111 l 501 0 l 68 0 m 203 1033 l 182 1069 l 536 1283 l 565 1228 l 203 1033 z "},"ĺ":{"ha":242,"x_min":68,"x_max":560,"o":"m 68 0 l 240 974 l 344 974 l 172 0 l 68 0 m 197 1033 l 176 1069 l 531 1283 l 560 1228 l 197 1033 z "},"Ļ":{"ha":532,"x_min":68,"x_max":521,"o":"m 68 0 l 240 974 l 347 974 l 194 111 l 521 111 l 501 0 l 68 0 m 168 -325 l 228 -56 l 351 -56 l 256 -325 l 168 -325 z "},"ļ":{"ha":242,"x_min":-3,"x_max":344,"o":"m 68 0 l 240 974 l 344 974 l 172 0 l 68 0 m -3 -325 l 57 -56 l 181 -56 l 85 -325 l -3 -325 z "},"Ľ":{"ha":532,"x_min":68,"x_max":521,"o":"m 68 0 l 240 974 l 347 974 l 194 111 l 521 111 l 501 0 l 68 0 m 331 636 l 404 974 l 517 974 l 408 636 l 331 636 z "},"ľ":{"ha":339,"x_min":68,"x_max":511,"o":"m 68 0 l 240 974 l 344 974 l 172 0 l 68 0 m 325 636 l 399 974 l 511 974 l 403 636 l 325 636 z "},"Ŀ":{"ha":532,"x_min":68,"x_max":521,"o":"m 68 0 l 240 974 l 347 974 l 194 111 l 521 111 l 501 0 l 68 0 m 296 438 l 325 603 l 436 603 l 407 438 l 296 438 z "},"ŀ":{"ha":324,"x_min":68,"x_max":425,"o":"m 68 0 l 240 974 l 344 974 l 172 0 l 68 0 m 285 418 l 314 583 l 425 583 l 396 418 l 285 418 z "},"Ł":{"ha":529,"x_min":65,"x_max":518,"o":"m 65 0 l 144 449 l 89 428 l 106 517 l 160 538 l 238 974 l 346 974 l 275 578 l 438 643 l 421 554 l 260 490 l 193 111 l 518 111 l 499 0 l 65 0 z "},"ł":{"ha":338,"x_min":90,"x_max":438,"o":"m 115 0 l 200 478 l 90 435 l 106 522 l 215 565 l 288 974 l 392 974 l 326 606 l 438 649 l 422 561 l 311 517 l 219 0 l 115 0 z "},"Ń":{"ha":692,"x_min":63,"x_max":801,"o":"m 525 0 l 297 771 l 161 0 l 63 0 l 235 974 l 351 974 l 572 232 l 704 974 l 801 974 l 629 0 l 525 0 m 419 1033 l 399 1069 l 753 1283 l 782 1228 l 419 1033 z "},"ń":{"ha":697,"x_min":68,"x_max":739,"o":"m 529 0 l 615 488 q 619 529 619 510 q 553 604 619 604 l 376 604 q 296 576 322 604 q 258 486 269 549 l 172 0 l 68 0 l 193 713 l 293 713 l 278 625 q 344 693 307 674 q 440 713 381 713 l 597 713 q 726 569 726 713 q 724 534 726 553 q 719 494 722 515 l 632 0 l 529 0 m 376 772 l 356 808 l 710 1022 l 739 967 l 376 772 z "},"Ņ":{"ha":692,"x_min":63,"x_max":801,"o":"m 525 0 l 297 771 l 161 0 l 63 0 l 235 974 l 351 974 l 572 232 l 704 974 l 801 974 l 629 0 l 525 0 m 221 -325 l 281 -56 l 404 -56 l 308 -325 l 221 -325 z "},"ņ":{"ha":697,"x_min":68,"x_max":726,"o":"m 529 0 l 615 488 q 619 529 619 510 q 553 604 619 604 l 376 604 q 296 576 322 604 q 258 486 269 549 l 172 0 l 68 0 l 193 713 l 293 713 l 278 625 q 344 693 307 674 q 440 713 381 713 l 597 713 q 726 569 726 713 q 724 534 726 553 q 719 494 722 515 l 632 0 l 529 0 m 224 -325 l 283 -56 l 407 -56 l 311 -325 l 224 -325 z "},"Ň":{"ha":692,"x_min":63,"x_max":825,"o":"m 525 0 l 297 771 l 161 0 l 63 0 l 235 974 l 351 974 l 572 232 l 704 974 l 801 974 l 629 0 l 525 0 m 557 1033 l 496 1033 l 307 1250 l 351 1283 l 539 1107 l 792 1283 l 825 1250 l 557 1033 z "},"ň":{"ha":697,"x_min":68,"x_max":796,"o":"m 529 0 l 615 488 q 619 529 619 510 q 553 604 619 604 l 376 604 q 296 576 322 604 q 258 486 269 549 l 172 0 l 68 0 l 193 713 l 293 713 l 278 625 q 344 693 307 674 q 440 713 381 713 l 597 713 q 726 569 726 713 q 724 534 726 553 q 719 494 722 515 l 632 0 l 529 0 m 528 772 l 467 772 l 278 989 l 322 1022 l 510 846 l 763 1022 l 796 989 l 528 772 z "},"Ŋ":{"ha":692,"x_min":63,"x_max":800,"o":"m 333 -325 l 351 -226 l 379 -226 q 467 -194 431 -226 q 514 -100 503 -162 l 532 0 l 296 771 l 161 0 l 63 0 l 233 974 l 350 974 l 572 232 l 703 974 l 800 974 l 611 -96 q 372 -325 569 -325 l 333 -325 z "},"ŋ":{"ha":697,"x_min":68,"x_max":726,"o":"m 346 -325 l 364 -226 l 382 -226 q 511 -100 489 -226 l 617 499 q 619 517 618 508 q 619 532 619 525 q 551 604 619 604 l 375 604 q 294 576 321 604 q 257 486 268 549 l 172 0 l 68 0 l 193 713 l 293 713 l 278 625 q 343 693 306 674 q 440 713 381 713 l 597 713 q 726 575 726 713 q 725 543 726 560 q 721 511 724 526 l 614 -96 q 375 -325 574 -325 l 346 -325 z "},"Ō":{"ha":732,"x_min":93,"x_max":810,"o":"m 267 0 q 134 41 175 0 q 93 157 93 82 q 94 186 93 172 q 99 214 96 200 l 194 758 q 272 916 213 858 q 439 974 331 974 l 638 974 q 769 933 729 974 q 810 817 810 892 q 808 787 810 801 q 804 758 807 772 l 708 214 q 633 58 692 117 q 465 0 574 0 l 267 0 m 696 758 q 698 775 697 767 q 699 790 699 783 q 617 863 699 863 l 418 863 q 340 835 369 863 q 303 758 311 807 l 207 215 q 204 205 204 210 q 204 196 204 200 q 222 132 204 153 q 286 111 240 111 l 485 111 q 563 139 533 111 q 600 215 592 167 l 696 758 m 335 1119 l 350 1203 l 807 1203 l 792 1119 l 335 1119 z "},"ō":{"ha":683,"x_min":93,"x_max":736,"o":"m 292 0 q 138 32 182 0 q 93 142 93 64 q 96 188 93 163 q 104 242 99 213 l 144 471 q 176 589 157 542 q 227 663 196 636 q 304 701 258 690 q 417 713 350 713 l 517 713 q 671 680 626 713 q 715 568 715 647 q 713 522 715 546 q 706 471 710 497 l 665 242 q 591 60 643 119 q 432 0 539 0 l 292 0 m 604 489 q 608 536 608 515 q 591 589 608 574 q 535 604 574 604 l 361 604 q 254 506 271 604 l 204 222 q 200 176 200 194 q 217 123 200 139 q 274 107 235 107 l 447 107 q 554 206 538 107 l 604 489 m 264 858 l 279 942 l 736 942 l 721 858 l 264 858 z "},"Ŏ":{"ha":732,"x_min":93,"x_max":840,"o":"m 267 0 q 134 41 175 0 q 93 157 93 82 q 94 186 93 172 q 99 214 96 200 l 194 758 q 272 916 213 858 q 439 974 331 974 l 638 974 q 769 933 729 974 q 810 817 810 892 q 808 787 810 801 q 804 758 807 772 l 708 214 q 633 58 692 117 q 465 0 574 0 l 267 0 m 696 758 q 698 775 697 767 q 699 790 699 783 q 617 863 699 863 l 418 863 q 340 835 369 863 q 303 758 311 807 l 207 215 q 204 205 204 210 q 204 196 204 200 q 222 132 204 153 q 286 111 240 111 l 485 111 q 563 139 533 111 q 600 215 592 167 l 696 758 m 840 1228 q 798 1160 825 1194 q 733 1097 771 1125 q 649 1051 696 1069 q 547 1033 601 1033 q 451 1051 493 1033 q 381 1097 408 1069 q 338 1160 353 1125 q 324 1228 324 1194 l 381 1260 q 434 1147 385 1192 q 558 1101 483 1101 q 698 1145 638 1101 q 794 1260 758 1189 l 840 1228 z "},"ŏ":{"ha":683,"x_min":93,"x_max":771,"o":"m 292 0 q 138 32 182 0 q 93 142 93 64 q 96 188 93 163 q 104 242 99 213 l 144 471 q 176 589 157 542 q 227 663 196 636 q 304 701 258 690 q 417 713 350 713 l 517 713 q 671 680 626 713 q 715 568 715 647 q 713 522 715 546 q 706 471 710 497 l 665 242 q 591 60 643 119 q 432 0 539 0 l 292 0 m 604 489 q 608 536 608 515 q 591 589 608 574 q 535 604 574 604 l 361 604 q 254 506 271 604 l 204 222 q 200 176 200 194 q 217 123 200 139 q 274 107 235 107 l 447 107 q 554 206 538 107 l 604 489 m 771 967 q 728 899 756 933 q 664 836 701 864 q 579 790 626 808 q 478 772 532 772 q 381 790 424 772 q 311 836 339 808 q 269 899 283 864 q 254 967 254 933 l 311 999 q 365 885 315 931 q 489 840 414 840 q 628 884 568 840 q 725 999 689 928 l 771 967 z "},"Ő":{"ha":732,"x_min":93,"x_max":854,"o":"m 267 0 q 134 41 175 0 q 93 157 93 82 q 94 186 93 172 q 99 214 96 200 l 194 758 q 272 916 213 858 q 439 974 331 974 l 638 974 q 769 933 729 974 q 810 817 810 892 q 808 787 810 801 q 804 758 807 772 l 708 214 q 633 58 692 117 q 465 0 574 0 l 267 0 m 696 758 q 698 775 697 767 q 699 790 699 783 q 617 863 699 863 l 418 863 q 340 835 369 863 q 303 758 311 807 l 207 215 q 204 205 204 210 q 204 196 204 200 q 222 132 204 153 q 286 111 240 111 l 485 111 q 563 139 533 111 q 600 215 592 167 l 696 758 m 606 1035 l 763 1283 l 854 1283 l 688 1035 l 606 1035 m 369 1035 l 515 1283 l 606 1283 l 451 1035 l 369 1035 z "},"ő":{"ha":683,"x_min":93,"x_max":783,"o":"m 292 0 q 138 32 182 0 q 93 142 93 64 q 96 188 93 163 q 104 242 99 213 l 144 471 q 176 589 157 542 q 227 663 196 636 q 304 701 258 690 q 417 713 350 713 l 517 713 q 671 680 626 713 q 715 568 715 647 q 713 522 715 546 q 706 471 710 497 l 665 242 q 591 60 643 119 q 432 0 539 0 l 292 0 m 604 489 q 608 536 608 515 q 591 589 608 574 q 535 604 574 604 l 361 604 q 254 506 271 604 l 204 222 q 200 176 200 194 q 217 123 200 139 q 274 107 235 107 l 447 107 q 554 206 538 107 l 604 489 m 535 774 l 692 1022 l 783 1022 l 617 774 l 535 774 m 299 774 l 444 1022 l 535 1022 l 381 774 l 299 774 z "},"Œ":{"ha":1135,"x_min":93,"x_max":1249,"o":"m 549 0 l 551 17 q 451 0 507 0 l 267 0 q 134 41 175 0 q 93 157 93 82 q 94 186 93 172 q 99 214 96 200 l 194 758 q 272 916 213 858 q 439 974 331 974 l 624 974 q 717 956 679 974 l 721 974 l 1249 974 l 1228 863 l 808 863 l 753 546 l 1003 546 l 985 443 l 735 443 l 676 111 l 1096 111 l 1076 0 l 549 0 m 682 758 q 684 772 683 765 q 685 786 685 779 q 603 863 685 863 l 418 863 q 340 835 369 863 q 303 758 311 807 l 207 215 q 205 201 206 208 q 204 188 204 194 q 286 111 204 111 l 471 111 q 549 139 519 111 q 586 215 578 167 l 682 758 z "},"œ":{"ha":1122,"x_min":92,"x_max":1153,"o":"m 733 0 q 585 79 607 0 q 425 0 540 0 l 251 0 q 92 143 92 0 q 93 172 92 157 q 97 203 94 186 l 151 510 q 376 713 188 713 l 550 713 q 682 631 667 713 q 858 713 735 713 l 978 713 q 1153 554 1153 713 q 1147 489 1153 521 l 1115 311 l 674 311 l 660 226 q 656 190 656 207 q 746 107 656 107 l 1061 107 l 1042 0 l 733 0 m 607 506 q 609 522 608 514 q 610 536 610 529 q 535 604 610 604 l 361 604 q 254 506 271 604 l 201 206 q 199 192 200 199 q 199 178 199 185 q 274 107 199 107 l 447 107 q 554 206 538 107 l 607 506 m 1047 492 q 1050 503 1050 497 q 1050 514 1050 508 q 1031 587 1050 563 q 963 611 1011 611 l 835 611 q 706 492 726 611 l 690 404 l 1032 404 l 1047 492 z "},"Ŕ":{"ha":701,"x_min":68,"x_max":786,"o":"m 535 0 l 582 264 q 584 278 583 271 q 585 292 585 285 q 559 361 585 335 q 483 388 533 388 l 244 388 l 176 0 l 68 0 l 240 974 l 589 974 q 768 821 768 974 q 767 789 768 806 q 763 757 765 772 l 736 608 q 688 492 722 532 q 604 442 654 453 q 669 403 644 436 q 694 315 694 369 q 690 269 694 292 l 643 0 l 535 0 m 657 735 q 661 774 661 756 q 568 863 661 863 l 328 863 l 263 490 l 511 490 q 594 519 564 490 q 633 596 625 547 l 657 735 m 424 1033 l 403 1069 l 757 1283 l 786 1228 l 424 1033 z "},"ŕ":{"ha":500,"x_min":68,"x_max":640,"o":"m 68 0 l 193 713 l 293 713 l 278 625 q 344 693 307 674 q 440 713 381 713 l 586 713 l 568 604 l 376 604 q 296 576 322 604 q 258 486 269 549 l 172 0 l 68 0 m 278 772 l 257 808 l 611 1022 l 640 967 l 278 772 z "},"Ŗ":{"ha":701,"x_min":68,"x_max":768,"o":"m 535 0 l 582 264 q 584 278 583 271 q 585 292 585 285 q 559 361 585 335 q 483 388 533 388 l 244 388 l 176 0 l 68 0 l 240 974 l 589 974 q 768 821 768 974 q 767 789 768 806 q 763 757 765 772 l 736 608 q 688 492 722 532 q 604 442 654 453 q 669 403 644 436 q 694 315 694 369 q 690 269 694 292 l 643 0 l 535 0 m 657 735 q 661 774 661 756 q 568 863 661 863 l 328 863 l 263 490 l 511 490 q 594 519 564 490 q 633 596 625 547 l 657 735 m 225 -325 l 285 -56 l 408 -56 l 313 -325 l 225 -325 z "},"ŗ":{"ha":500,"x_min":-3,"x_max":586,"o":"m 68 0 l 193 713 l 293 713 l 278 625 q 344 693 307 674 q 440 713 381 713 l 586 713 l 568 604 l 376 604 q 296 576 322 604 q 258 486 269 549 l 172 0 l 68 0 m -3 -325 l 57 -56 l 181 -56 l 85 -325 l -3 -325 z "},"Ř":{"ha":701,"x_min":68,"x_max":817,"o":"m 535 0 l 582 264 q 584 278 583 271 q 585 292 585 285 q 559 361 585 335 q 483 388 533 388 l 244 388 l 176 0 l 68 0 l 240 974 l 589 974 q 768 821 768 974 q 767 789 768 806 q 763 757 765 772 l 736 608 q 688 492 722 532 q 604 442 654 453 q 669 403 644 436 q 694 315 694 369 q 690 269 694 292 l 643 0 l 535 0 m 657 735 q 661 774 661 756 q 568 863 661 863 l 328 863 l 263 490 l 511 490 q 594 519 564 490 q 633 596 625 547 l 657 735 m 549 1033 l 488 1033 l 299 1250 l 343 1283 l 531 1107 l 783 1283 l 817 1250 l 549 1033 z "},"ř":{"ha":500,"x_min":68,"x_max":686,"o":"m 68 0 l 193 713 l 293 713 l 278 625 q 344 693 307 674 q 440 713 381 713 l 586 713 l 568 604 l 376 604 q 296 576 322 604 q 258 486 269 549 l 172 0 l 68 0 m 418 772 l 357 772 l 168 989 l 213 1022 l 400 846 l 653 1022 l 686 989 l 418 772 z "},"Ś":{"ha":685,"x_min":57,"x_max":778,"o":"m 57 0 l 76 111 l 415 111 q 517 142 478 111 q 567 240 556 174 l 581 325 q 583 341 582 333 q 583 356 583 349 q 482 438 583 438 l 344 438 q 158 597 158 438 q 164 656 158 632 l 178 731 q 266 913 201 853 q 450 974 331 974 l 771 974 l 750 863 l 429 863 q 333 830 367 863 q 286 731 299 797 l 272 656 q 269 645 269 650 q 269 636 269 640 q 292 564 269 588 q 372 540 314 540 l 510 540 q 694 383 694 540 q 693 355 694 369 q 689 325 692 340 l 675 240 q 585 59 656 118 q 396 0 514 0 l 57 0 m 415 1033 l 394 1069 l 749 1283 l 778 1228 l 415 1033 z "},"ś":{"ha":663,"x_min":64,"x_max":721,"o":"m 64 0 l 83 107 l 442 107 q 509 128 482 107 q 543 189 536 149 l 551 239 q 553 257 553 243 q 478 318 553 318 l 297 318 q 172 344 217 318 q 128 438 128 369 q 128 460 126 449 q 133 485 131 471 l 139 517 q 167 611 149 574 q 216 672 186 649 q 287 703 246 694 q 382 713 328 713 l 701 713 l 683 604 l 336 604 q 238 518 254 604 l 233 496 q 231 484 232 489 q 231 474 231 479 q 251 423 231 442 q 313 404 271 404 l 497 404 q 615 379 572 404 q 657 288 657 354 q 653 247 657 268 l 646 201 q 576 50 626 100 q 425 0 525 0 l 64 0 m 358 772 l 338 808 l 692 1022 l 721 967 l 358 772 z "},"Ŝ":{"ha":685,"x_min":57,"x_max":775,"o":"m 57 0 l 76 111 l 415 111 q 517 142 478 111 q 567 240 556 174 l 581 325 q 583 341 582 333 q 583 356 583 349 q 482 438 583 438 l 344 438 q 158 597 158 438 q 164 656 158 632 l 178 731 q 266 913 201 853 q 450 974 331 974 l 771 974 l 750 863 l 429 863 q 333 830 367 863 q 286 731 299 797 l 272 656 q 269 645 269 650 q 269 636 269 640 q 292 564 269 588 q 372 540 314 540 l 510 540 q 694 383 694 540 q 693 355 694 369 q 689 325 692 340 l 675 240 q 585 59 656 118 q 396 0 514 0 l 57 0 m 731 1033 l 540 1208 l 290 1033 l 257 1067 l 524 1283 l 586 1283 l 775 1067 l 731 1033 z "},"ŝ":{"ha":663,"x_min":64,"x_max":719,"o":"m 64 0 l 83 107 l 442 107 q 509 128 482 107 q 543 189 536 149 l 551 239 q 553 257 553 243 q 478 318 553 318 l 297 318 q 172 344 217 318 q 128 438 128 369 q 128 460 126 449 q 133 485 131 471 l 139 517 q 167 611 149 574 q 216 672 186 649 q 287 703 246 694 q 382 713 328 713 l 701 713 l 683 604 l 336 604 q 238 518 254 604 l 233 496 q 231 484 232 489 q 231 474 231 479 q 251 423 231 442 q 313 404 271 404 l 497 404 q 615 379 572 404 q 657 288 657 354 q 653 247 657 268 l 646 201 q 576 50 626 100 q 425 0 525 0 l 64 0 m 675 772 l 485 947 l 235 772 l 201 806 l 468 1022 l 531 1022 l 719 806 l 675 772 z "},"Ş":{"ha":685,"x_min":57,"x_max":771,"o":"m 57 0 l 76 111 l 415 111 q 517 142 478 111 q 567 240 556 174 l 581 325 q 583 341 582 333 q 583 356 583 349 q 482 438 583 438 l 344 438 q 158 597 158 438 q 164 656 158 632 l 178 731 q 266 913 201 853 q 450 974 331 974 l 771 974 l 750 863 l 429 863 q 333 830 367 863 q 286 731 299 797 l 272 656 q 269 645 269 650 q 269 636 269 640 q 292 564 269 588 q 372 540 314 540 l 510 540 q 694 383 694 540 q 693 355 694 369 q 689 325 692 340 l 675 240 q 585 59 656 118 q 396 0 514 0 l 57 0 m 217 -325 l 276 -56 l 400 -56 l 304 -325 l 217 -325 z "},"ş":{"ha":663,"x_min":64,"x_max":701,"o":"m 64 0 l 83 107 l 442 107 q 509 128 482 107 q 543 189 536 149 l 551 239 q 553 257 553 243 q 478 318 553 318 l 297 318 q 172 344 217 318 q 128 438 128 369 q 128 460 126 449 q 133 485 131 471 l 139 517 q 167 611 149 574 q 216 672 186 649 q 287 703 246 694 q 382 713 328 713 l 701 713 l 683 604 l 336 604 q 238 518 254 604 l 233 496 q 231 484 232 489 q 231 474 231 479 q 251 423 231 442 q 313 404 271 404 l 497 404 q 615 379 572 404 q 657 288 657 354 q 653 247 657 268 l 646 201 q 576 50 626 100 q 425 0 525 0 l 64 0 m 206 -325 l 265 -56 l 389 -56 l 293 -325 l 206 -325 z "},"Š":{"ha":685,"x_min":57,"x_max":836,"o":"m 57 0 l 76 111 l 415 111 q 517 142 478 111 q 567 240 556 174 l 581 325 q 583 341 582 333 q 583 356 583 349 q 482 438 583 438 l 344 438 q 158 597 158 438 q 164 656 158 632 l 178 731 q 266 913 201 853 q 450 974 331 974 l 771 974 l 750 863 l 429 863 q 333 830 367 863 q 286 731 299 797 l 272 656 q 269 645 269 650 q 269 636 269 640 q 292 564 269 588 q 372 540 314 540 l 510 540 q 694 383 694 540 q 693 355 694 369 q 689 325 692 340 l 675 240 q 585 59 656 118 q 396 0 514 0 l 57 0 m 568 1033 l 507 1033 l 318 1250 l 363 1283 l 550 1107 l 803 1283 l 836 1250 l 568 1033 z "},"š":{"ha":663,"x_min":64,"x_max":765,"o":"m 64 0 l 83 107 l 442 107 q 509 128 482 107 q 543 189 536 149 l 551 239 q 553 257 553 243 q 478 318 553 318 l 297 318 q 172 344 217 318 q 128 438 128 369 q 128 460 126 449 q 133 485 131 471 l 139 517 q 167 611 149 574 q 216 672 186 649 q 287 703 246 694 q 382 713 328 713 l 701 713 l 683 604 l 336 604 q 238 518 254 604 l 233 496 q 231 484 232 489 q 231 474 231 479 q 251 423 231 442 q 313 404 271 404 l 497 404 q 615 379 572 404 q 657 288 657 354 q 653 247 657 268 l 646 201 q 576 50 626 100 q 425 0 525 0 l 64 0 m 497 772 l 436 772 l 247 989 l 292 1022 l 479 846 l 732 1022 l 765 989 l 497 772 z "},"Ţ":{"ha":603,"x_min":172,"x_max":744,"o":"m 246 0 l 397 863 l 182 863 l 203 974 l 744 974 l 724 863 l 506 863 l 354 0 l 246 0 m 172 -325 l 232 -56 l 356 -56 l 260 -325 l 172 -325 z "},"ţ":{"ha":401,"x_min":75,"x_max":474,"o":"m 263 0 q 97 158 97 0 q 99 191 97 174 q 104 228 101 208 l 232 956 l 338 956 l 294 713 l 474 713 l 458 621 l 279 621 l 208 224 q 204 186 204 203 q 290 99 204 99 l 364 99 l 346 0 l 263 0 m 75 -325 l 135 -56 l 258 -56 l 163 -325 l 75 -325 z "},"Ť":{"ha":603,"x_min":182,"x_max":782,"o":"m 246 0 l 397 863 l 182 863 l 203 974 l 744 974 l 724 863 l 506 863 l 354 0 l 246 0 m 514 1033 l 453 1033 l 264 1250 l 308 1283 l 496 1107 l 749 1283 l 782 1250 l 514 1033 z "},"ť":{"ha":514,"x_min":97,"x_max":686,"o":"m 263 0 q 97 158 97 0 q 99 191 97 174 q 104 228 101 208 l 232 956 l 338 956 l 294 713 l 474 713 l 458 621 l 279 621 l 208 224 q 204 186 204 203 q 290 99 204 99 l 364 99 l 346 0 l 263 0 m 500 636 l 574 974 l 686 974 l 578 636 l 500 636 z "},"Ŧ":{"ha":603,"x_min":182,"x_max":743,"o":"m 246 0 l 319 419 l 215 419 l 228 492 l 332 492 l 397 863 l 182 863 l 201 974 l 743 974 l 724 863 l 506 863 l 440 492 l 547 492 l 535 419 l 428 419 l 354 0 l 246 0 z "},"ŧ":{"ha":401,"x_min":96,"x_max":474,"o":"m 226 328 l 208 224 q 204 183 204 200 q 289 99 204 99 l 363 99 l 346 0 l 263 0 q 96 160 96 0 q 98 192 96 175 q 103 228 100 208 l 232 956 l 338 956 l 294 713 l 474 713 l 457 621 l 278 621 l 239 400 l 410 400 l 397 328 l 226 328 z "},"Ũ":{"ha":725,"x_min":99,"x_max":833,"o":"m 297 0 q 99 171 99 0 q 101 201 99 185 q 106 238 103 218 l 236 974 l 344 974 l 214 238 q 210 201 210 217 q 314 111 210 111 l 451 111 q 594 238 572 111 l 725 974 l 833 974 l 703 238 q 428 0 661 0 l 297 0 m 833 1201 q 772 1120 814 1156 q 667 1085 729 1085 q 602 1095 628 1085 q 554 1119 576 1106 q 509 1142 532 1132 q 453 1153 486 1153 q 392 1136 418 1153 q 349 1082 367 1119 l 297 1111 q 359 1191 317 1157 q 464 1225 401 1225 q 528 1215 501 1225 q 578 1192 556 1204 q 624 1169 601 1179 q 678 1158 647 1158 q 779 1231 749 1158 l 833 1201 z "},"ũ":{"ha":686,"x_min":94,"x_max":768,"o":"m 517 0 l 532 86 q 467 19 504 38 q 369 0 431 0 l 225 0 q 94 140 94 0 q 103 218 94 174 l 189 713 l 292 713 l 206 224 q 201 185 201 200 q 271 107 201 107 l 435 107 q 516 136 489 107 q 554 225 543 165 l 639 713 l 743 713 l 618 0 l 517 0 m 768 940 q 706 859 749 894 q 601 824 664 824 q 537 834 563 824 q 489 858 511 844 q 444 881 467 871 q 388 892 421 892 q 327 875 353 892 q 283 821 301 858 l 232 850 q 294 930 251 896 q 399 964 336 964 q 463 953 436 964 q 513 931 490 943 q 559 908 536 918 q 613 897 582 897 q 714 969 683 897 l 768 940 z "},"Ū":{"ha":725,"x_min":99,"x_max":833,"o":"m 297 0 q 99 171 99 0 q 101 201 99 185 q 106 238 103 218 l 236 974 l 344 974 l 214 238 q 210 201 210 217 q 314 111 210 111 l 451 111 q 594 238 572 111 l 725 974 l 833 974 l 703 238 q 428 0 661 0 l 297 0 m 331 1119 l 346 1203 l 803 1203 l 788 1119 l 331 1119 z "},"ū":{"ha":686,"x_min":94,"x_max":743,"o":"m 517 0 l 532 86 q 467 19 504 38 q 369 0 431 0 l 225 0 q 94 140 94 0 q 103 218 94 174 l 189 713 l 292 713 l 206 224 q 201 185 201 200 q 271 107 201 107 l 435 107 q 516 136 489 107 q 554 225 543 165 l 639 713 l 743 713 l 618 0 l 517 0 m 265 858 l 281 942 l 738 942 l 722 858 l 265 858 z "},"Ŭ":{"ha":725,"x_min":99,"x_max":838,"o":"m 297 0 q 99 171 99 0 q 101 201 99 185 q 106 238 103 218 l 236 974 l 344 974 l 214 238 q 210 201 210 217 q 314 111 210 111 l 451 111 q 594 238 572 111 l 725 974 l 833 974 l 703 238 q 428 0 661 0 l 297 0 m 838 1228 q 795 1160 822 1194 q 731 1097 768 1125 q 646 1051 693 1069 q 544 1033 599 1033 q 448 1051 490 1033 q 378 1097 406 1069 q 335 1160 350 1125 q 321 1228 321 1194 l 378 1260 q 431 1147 382 1192 q 556 1101 481 1101 q 695 1145 635 1101 q 792 1260 756 1189 l 838 1228 z "},"ŭ":{"ha":686,"x_min":94,"x_max":772,"o":"m 517 0 l 532 86 q 467 19 504 38 q 369 0 431 0 l 225 0 q 94 140 94 0 q 103 218 94 174 l 189 713 l 292 713 l 206 224 q 201 185 201 200 q 271 107 201 107 l 435 107 q 516 136 489 107 q 554 225 543 165 l 639 713 l 743 713 l 618 0 l 517 0 m 772 967 q 730 899 757 933 q 665 836 703 864 q 581 790 628 808 q 479 772 533 772 q 383 790 425 772 q 313 836 340 808 q 270 899 285 864 q 256 967 256 933 l 313 999 q 366 885 317 931 q 490 840 415 840 q 630 884 569 840 q 726 999 690 928 l 772 967 z "},"Ů":{"ha":725,"x_min":99,"x_max":833,"o":"m 297 0 q 99 171 99 0 q 101 201 99 185 q 106 238 103 218 l 236 974 l 344 974 l 214 238 q 210 201 210 217 q 314 111 210 111 l 451 111 q 594 238 572 111 l 725 974 l 833 974 l 703 238 q 428 0 661 0 l 297 0 m 761 1196 q 750 1119 761 1154 q 713 1057 739 1083 q 643 1016 686 1031 q 536 1001 600 1001 q 411 1036 449 1001 q 374 1129 374 1071 q 385 1206 374 1171 q 421 1267 396 1242 q 488 1308 446 1293 q 593 1324 531 1324 q 723 1289 685 1324 q 761 1196 761 1254 m 696 1185 q 671 1248 696 1225 q 583 1271 646 1271 q 514 1260 542 1271 q 469 1233 486 1250 q 446 1191 453 1215 q 439 1139 439 1167 q 463 1076 439 1099 q 546 1053 488 1053 q 617 1063 588 1053 q 663 1091 646 1074 q 688 1133 681 1108 q 696 1185 696 1157 z "},"ů":{"ha":686,"x_min":94,"x_max":743,"o":"m 517 0 l 532 86 q 467 19 504 38 q 369 0 431 0 l 225 0 q 94 140 94 0 q 103 218 94 174 l 189 713 l 292 713 l 206 224 q 201 185 201 200 q 271 107 201 107 l 435 107 q 516 136 489 107 q 554 225 543 165 l 639 713 l 743 713 l 618 0 l 517 0 m 696 935 q 685 858 696 893 q 647 796 674 822 q 578 755 621 769 q 471 740 535 740 q 346 775 383 740 q 308 868 308 810 q 319 945 308 910 q 356 1006 331 981 q 423 1047 381 1032 q 528 1063 465 1063 q 658 1028 619 1063 q 696 935 696 993 m 631 924 q 606 987 631 964 q 518 1010 581 1010 q 449 999 476 1010 q 404 972 421 989 q 381 930 388 954 q 374 878 374 906 q 398 815 374 838 q 481 792 422 792 q 551 802 522 792 q 598 830 581 813 q 623 872 615 847 q 631 924 631 896 z "},"Ű":{"ha":725,"x_min":99,"x_max":850,"o":"m 297 0 q 99 171 99 0 q 101 201 99 185 q 106 238 103 218 l 236 974 l 344 974 l 214 238 q 210 201 210 217 q 314 111 210 111 l 451 111 q 594 238 572 111 l 725 974 l 833 974 l 703 238 q 428 0 661 0 l 297 0 m 601 1035 l 758 1283 l 850 1283 l 683 1035 l 601 1035 m 365 1035 l 511 1283 l 601 1283 l 447 1035 l 365 1035 z "},"ű":{"ha":686,"x_min":94,"x_max":785,"o":"m 517 0 l 532 86 q 467 19 504 38 q 369 0 431 0 l 225 0 q 94 140 94 0 q 103 218 94 174 l 189 713 l 292 713 l 206 224 q 201 185 201 200 q 271 107 201 107 l 435 107 q 516 136 489 107 q 554 225 543 165 l 639 713 l 743 713 l 618 0 l 517 0 m 536 774 l 693 1022 l 785 1022 l 618 774 l 536 774 m 300 774 l 446 1022 l 536 1022 l 382 774 l 300 774 z "},"Ų":{"ha":725,"x_min":97,"x_max":832,"o":"m 231 -325 q 97 -225 97 -325 q 131 -127 97 -171 q 242 -53 165 -83 l 375 0 l 297 0 q 99 171 99 0 q 101 201 99 185 q 106 238 103 218 l 235 974 l 343 974 l 214 238 q 210 201 210 217 q 314 111 210 111 l 451 111 q 594 238 572 111 l 724 974 l 832 974 l 703 238 q 440 0 661 7 l 265 -74 q 196 -156 196 -104 q 213 -194 196 -179 q 271 -208 231 -208 l 403 -208 l 382 -325 l 231 -325 z "},"ų":{"ha":686,"x_min":94,"x_max":743,"o":"m 408 -325 q 275 -225 275 -325 q 309 -127 275 -171 q 419 -53 343 -83 l 553 0 l 517 0 l 531 86 q 467 19 503 38 q 369 0 431 0 l 225 0 q 94 143 94 0 q 96 178 94 160 q 101 218 97 197 l 189 713 l 292 713 l 206 224 q 201 182 201 200 q 269 107 201 107 l 433 107 q 514 136 486 107 q 553 225 542 165 l 639 713 l 743 713 l 618 0 l 443 -74 q 374 -156 374 -104 q 391 -194 374 -179 q 449 -208 408 -208 l 581 -208 l 560 -325 l 408 -325 z "},"Ŵ":{"ha":1078,"x_min":194,"x_max":1228,"o":"m 713 0 l 675 757 l 364 0 l 246 0 l 194 974 l 307 974 l 339 176 l 665 974 l 765 974 l 807 176 l 1122 974 l 1228 974 l 835 0 l 713 0 m 940 1033 l 750 1208 l 500 1033 l 467 1067 l 733 1283 l 796 1283 l 985 1067 l 940 1033 z "},"ŵ":{"ha":953,"x_min":147,"x_max":1056,"o":"m 621 0 l 572 556 l 326 0 l 226 0 l 147 713 l 256 713 l 307 147 l 554 713 l 651 713 l 703 147 l 951 713 l 1056 713 l 726 0 l 621 0 m 832 772 l 642 947 l 392 772 l 358 806 l 625 1022 l 688 1022 l 876 806 l 832 772 z "},"Ŷ":{"ha":682,"x_min":189,"x_max":838,"o":"m 285 0 l 364 449 l 189 974 l 307 974 l 444 565 l 728 974 l 838 974 l 472 449 l 393 0 l 285 0 m 746 1033 l 556 1208 l 306 1033 l 272 1067 l 539 1283 l 601 1283 l 790 1067 l 746 1033 z "},"ŷ":{"ha":667,"x_min":107,"x_max":733,"o":"m 151 -221 l 168 -122 l 369 -122 q 451 -90 418 -122 q 496 4 485 -58 l 506 63 l 283 63 q 107 217 107 63 q 109 247 107 232 q 114 281 111 263 l 189 713 l 293 713 l 217 276 q 213 242 213 257 q 304 160 213 160 l 522 160 l 619 713 l 725 713 l 601 8 q 363 -221 561 -221 l 151 -221 m 689 772 l 499 947 l 249 772 l 215 806 l 482 1022 l 544 1022 l 733 806 l 689 772 z "},"Ÿ":{"ha":682,"x_min":189,"x_max":838,"o":"m 285 0 l 364 449 l 189 974 l 307 974 l 444 565 l 728 974 l 838 974 l 472 449 l 393 0 l 285 0 m 631 1075 l 660 1240 l 771 1240 l 742 1075 l 631 1075 m 325 1075 l 354 1240 l 467 1240 l 438 1075 l 325 1075 z "},"Ź":{"ha":619,"x_min":50,"x_max":746,"o":"m 50 0 l 65 88 l 585 863 l 201 863 l 222 974 l 740 974 l 729 911 l 197 111 l 588 111 l 568 0 l 50 0 m 383 1033 l 363 1069 l 717 1283 l 746 1228 l 383 1033 z "},"ź":{"ha":600,"x_min":50,"x_max":690,"o":"m 50 0 l 63 72 l 508 608 l 157 608 l 175 713 l 675 713 l 664 647 l 217 103 l 568 103 l 550 0 l 50 0 m 328 772 l 307 808 l 661 1022 l 690 967 l 328 772 z "},"Ż":{"ha":619,"x_min":50,"x_max":740,"o":"m 50 0 l 65 88 l 585 863 l 201 863 l 222 974 l 740 974 l 729 911 l 197 111 l 588 111 l 568 0 l 50 0 m 443 1075 l 472 1240 l 583 1240 l 554 1075 l 443 1075 z "},"ż":{"ha":600,"x_min":50,"x_max":675,"o":"m 50 0 l 63 72 l 508 608 l 157 608 l 175 713 l 675 713 l 664 647 l 217 103 l 568 103 l 550 0 l 50 0 m 388 814 l 417 979 l 528 979 l 499 814 l 388 814 z "},"Ž":{"ha":619,"x_min":50,"x_max":790,"o":"m 50 0 l 65 88 l 585 863 l 201 863 l 222 974 l 740 974 l 729 911 l 197 111 l 588 111 l 568 0 l 50 0 m 522 1033 l 461 1033 l 272 1250 l 317 1283 l 504 1107 l 757 1283 l 790 1250 l 522 1033 z "},"ž":{"ha":600,"x_min":50,"x_max":736,"o":"m 50 0 l 63 72 l 508 608 l 157 608 l 175 713 l 675 713 l 664 647 l 217 103 l 568 103 l 550 0 l 50 0 m 468 772 l 407 772 l 218 989 l 263 1022 l 450 846 l 703 1022 l 736 989 l 468 772 z "},"ƒ":{"ha":924,"x_min":26,"x_max":1029,"o":"m 504 485 l 399 485 l 413 568 l 531 568 l 574 688 q 640 828 604 772 q 720 917 676 885 q 815 962 764 949 q 928 975 867 975 q 987 972 964 975 q 1029 961 1010 968 l 1011 857 q 968 874 989 869 q 919 879 947 879 q 792 843 847 879 q 706 713 736 807 l 658 568 l 779 568 l 765 485 l 628 485 l 482 64 q 417 -77 453 -22 q 337 -165 381 -132 q 241 -210 293 -197 q 128 -222 189 -222 q 67 -219 90 -222 q 26 -208 43 -215 l 44 -104 q 88 -122 67 -117 q 136 -126 108 -126 q 261 -90 207 -126 q 347 39 315 -53 l 504 485 z "},"Ơ":{"ha":903,"x_min":93,"x_max":1085,"o":"m 267 0 q 134 41 175 0 q 93 157 93 82 q 94 186 93 172 q 99 214 96 200 l 194 758 q 272 916 213 858 q 439 974 331 974 l 638 974 q 744 947 706 974 q 797 875 782 919 q 837 809 815 822 q 879 796 858 796 q 937 815 913 796 q 971 889 961 835 l 994 1022 l 1085 1022 l 1058 874 q 1006 760 1044 794 q 908 726 967 726 q 854 738 881 726 q 808 785 828 749 l 708 214 q 633 58 692 117 q 465 0 574 0 l 267 0 m 696 758 q 698 772 697 765 q 699 786 699 779 q 617 863 699 863 l 418 863 q 340 835 369 863 q 303 758 311 807 l 207 215 q 205 201 206 208 q 204 188 204 194 q 286 111 204 111 l 485 111 q 563 139 533 111 q 600 215 592 167 l 696 758 z "},"ơ":{"ha":817,"x_min":92,"x_max":965,"o":"m 251 0 q 92 143 92 0 q 93 172 92 157 q 97 203 94 186 l 151 510 q 376 713 188 713 l 557 713 q 693 653 663 713 q 724 611 708 621 q 758 601 740 601 q 816 620 792 601 q 850 694 840 639 l 874 828 l 965 828 l 939 679 q 887 566 925 600 q 790 532 849 532 q 751 538 769 532 q 718 560 733 543 q 716 536 717 549 q 713 510 715 524 l 658 203 q 432 0 622 0 l 251 0 m 607 506 q 609 522 608 514 q 610 536 610 529 q 535 604 610 604 l 361 604 q 254 506 271 604 l 201 206 q 199 190 200 197 q 199 176 199 183 q 274 107 199 107 l 447 107 q 554 206 538 107 l 607 506 z "},"Ư":{"ha":900,"x_min":99,"x_max":1097,"o":"m 297 0 q 99 171 99 0 q 101 201 99 185 q 106 238 103 218 l 236 974 l 344 974 l 214 238 q 210 201 210 217 q 314 111 210 111 l 451 111 q 594 238 572 111 l 725 974 l 833 974 l 815 878 q 853 810 833 824 q 894 796 874 796 q 949 816 926 796 q 982 889 972 836 l 1006 1022 l 1097 1022 l 1071 874 q 1018 760 1057 794 q 921 726 979 726 q 858 743 888 726 q 806 815 828 760 l 703 238 q 428 0 661 0 l 297 0 z "},"ư":{"ha":850,"x_min":94,"x_max":1011,"o":"m 517 0 l 532 86 q 467 19 504 38 q 369 0 431 0 l 225 0 q 94 140 94 0 q 103 218 94 174 l 189 713 l 292 713 l 206 224 q 201 185 201 200 q 271 107 201 107 l 435 107 q 516 136 489 107 q 554 225 543 165 l 639 713 l 743 713 l 736 668 q 769 613 751 625 q 808 601 788 601 q 863 622 840 601 q 896 694 886 642 l 919 828 l 1011 828 l 985 679 q 933 566 971 600 q 836 532 894 532 q 776 546 804 532 q 725 608 747 560 l 618 0 l 517 0 z "},"Ǽ":{"ha":1132,"x_min":22,"x_max":1236,"o":"m 571 0 l 606 193 l 251 193 l 138 0 l 22 0 l 604 974 l 1236 974 l 1215 863 l 832 863 l 776 540 l 986 540 l 969 449 l 760 449 l 700 111 l 1083 111 l 1064 0 l 571 0 m 722 863 l 644 863 l 301 285 l 621 285 l 722 863 m 681 1033 l 660 1069 l 1014 1283 l 1043 1228 l 681 1033 z "},"ǽ":{"ha":1107,"x_min":79,"x_max":1136,"o":"m 746 0 q 645 21 679 0 q 600 85 611 42 l 585 0 l 215 0 q 79 124 79 0 q 85 176 79 153 l 101 267 q 293 425 131 425 l 575 425 l 586 489 q 588 507 588 499 q 589 522 589 515 q 500 604 589 604 l 201 604 l 219 713 l 518 713 q 614 689 576 713 q 660 621 651 665 q 729 689 683 665 q 833 713 775 713 l 961 713 q 1136 554 1136 713 q 1131 489 1136 521 l 1100 317 l 657 317 l 640 222 q 638 206 639 214 q 638 190 638 197 q 728 107 638 107 l 1044 107 l 1025 0 l 746 0 m 561 344 l 294 344 q 197 260 211 344 l 183 182 q 181 169 182 175 q 181 158 181 164 q 250 100 181 100 l 518 100 l 561 344 m 1031 492 q 1033 503 1033 497 q 1033 514 1033 508 q 1014 587 1033 563 q 946 611 994 611 l 817 611 q 688 492 707 611 l 672 399 l 1015 399 l 1031 492 m 581 772 l 560 808 l 914 1022 l 943 967 l 581 772 z "},"Ǿ":{"ha":732,"x_min":50,"x_max":847,"o":"m 267 0 q 165 21 204 0 l 106 -67 l 50 -36 l 118 63 q 93 156 93 97 q 94 185 93 171 q 99 214 96 200 l 194 758 q 272 916 213 858 q 439 974 331 974 l 638 974 q 735 954 693 974 l 793 1038 l 847 1007 l 783 914 q 810 817 810 879 q 804 758 810 786 l 708 214 q 633 58 692 117 q 465 0 574 0 l 267 0 m 696 758 q 698 776 697 768 q 699 792 699 783 l 235 121 q 286 111 253 111 l 485 111 q 563 139 533 111 q 600 215 592 167 l 696 758 m 207 215 q 204 197 204 208 l 204 186 l 665 853 q 617 863 647 863 l 418 863 q 340 835 369 863 q 303 758 311 807 l 207 215 m 439 1033 l 418 1069 l 772 1283 l 801 1228 l 439 1033 z "},"ǿ":{"ha":683,"x_min":93,"x_max":732,"o":"m 292 0 q 242 1 264 0 q 201 7 221 3 l 151 -67 l 96 -36 l 140 29 q 93 142 93 60 q 96 188 93 163 q 104 242 99 213 l 144 471 q 176 589 157 542 q 227 663 196 636 q 304 701 258 690 q 417 713 350 713 l 517 713 q 608 704 568 713 l 674 800 l 728 769 l 667 682 q 704 636 693 664 q 715 567 715 608 q 706 471 715 524 l 665 242 q 591 60 643 119 q 432 0 539 0 l 292 0 m 604 489 q 608 535 608 515 q 597 581 608 565 l 271 107 l 447 107 q 554 206 538 107 l 604 489 m 204 222 q 200 174 200 193 q 210 131 200 144 l 538 604 l 361 604 q 254 506 271 604 l 204 222 m 369 772 l 349 808 l 703 1022 l 732 967 l 369 772 z "},"Ș":{"ha":685,"x_min":57,"x_max":771,"o":"m 57 0 l 76 111 l 415 111 q 517 142 478 111 q 567 240 556 174 l 581 325 q 583 341 582 333 q 583 356 583 349 q 482 438 583 438 l 344 438 q 158 597 158 438 q 164 656 158 632 l 178 731 q 266 913 201 853 q 450 974 331 974 l 771 974 l 750 863 l 429 863 q 333 830 367 863 q 286 731 299 797 l 272 656 q 269 645 269 650 q 269 636 269 640 q 292 564 269 588 q 372 540 314 540 l 510 540 q 694 383 694 540 q 693 355 694 369 q 689 325 692 340 l 675 240 q 585 59 656 118 q 396 0 514 0 l 57 0 m 217 -325 l 276 -56 l 400 -56 l 304 -325 l 217 -325 z "},"ș":{"ha":663,"x_min":64,"x_max":701,"o":"m 64 0 l 83 107 l 442 107 q 509 128 482 107 q 543 189 536 149 l 551 239 q 553 257 553 243 q 478 318 553 318 l 297 318 q 172 344 217 318 q 128 438 128 369 q 128 460 126 449 q 133 485 131 471 l 139 517 q 167 611 149 574 q 216 672 186 649 q 287 703 246 694 q 382 713 328 713 l 701 713 l 683 604 l 336 604 q 238 518 254 604 l 233 496 q 231 484 232 489 q 231 474 231 479 q 251 423 231 442 q 313 404 271 404 l 497 404 q 615 379 572 404 q 657 288 657 354 q 653 247 657 268 l 646 201 q 576 50 626 100 q 425 0 525 0 l 64 0 m 206 -325 l 265 -56 l 389 -56 l 293 -325 l 206 -325 z "},"Ț":{"ha":603,"x_min":176,"x_max":744,"o":"m 246 0 l 397 863 l 182 863 l 203 974 l 744 974 l 724 863 l 506 863 l 354 0 l 246 0 m 176 -325 l 236 -56 l 360 -56 l 264 -325 l 176 -325 z "},"ț":{"ha":401,"x_min":75,"x_max":474,"o":"m 263 0 q 97 158 97 0 q 99 191 97 174 q 104 228 101 208 l 232 956 l 338 956 l 294 713 l 474 713 l 458 621 l 279 621 l 208 224 q 204 186 204 203 q 290 99 204 99 l 364 99 l 346 0 l 263 0 m 75 -325 l 135 -56 l 258 -56 l 163 -325 l 75 -325 z "},"ȷ":{"ha":297,"x_min":-94,"x_max":354,"o":"m -94 -221 l -76 -122 l -1 -122 q 124 4 101 -122 l 249 713 l 354 713 l 231 8 q -8 -221 189 -221 l -94 -221 z "},"ˆ":{"ha":646,"x_min":204,"x_max":722,"o":"m 678 772 l 488 947 l 238 772 l 204 806 l 471 1022 l 533 1022 l 722 806 l 678 772 z "},"ˇ":{"ha":628,"x_min":229,"x_max":747,"o":"m 479 772 l 418 772 l 229 989 l 274 1022 l 461 846 l 714 1022 l 747 989 l 479 772 z "},"ˉ":{"ha":585,"x_min":215,"x_max":688,"o":"m 215 858 l 231 942 l 688 942 l 672 858 l 215 858 z "},"˘":{"ha":646,"x_min":235,"x_max":751,"o":"m 751 967 q 709 899 736 933 q 644 836 682 864 q 560 790 607 808 q 458 772 513 772 q 362 790 404 772 q 292 836 319 808 q 249 899 264 864 q 235 967 235 933 l 292 999 q 345 885 296 931 q 469 840 394 840 q 609 884 549 840 q 706 999 669 928 l 751 967 z "},"˙":{"ha":257,"x_min":217,"x_max":357,"o":"m 217 814 l 246 979 l 357 979 l 328 814 l 217 814 z "},"˚":{"ha":510,"x_min":219,"x_max":607,"o":"m 607 935 q 596 858 607 893 q 558 796 585 822 q 489 755 532 769 q 382 740 446 740 q 257 775 294 740 q 219 868 219 810 q 231 945 219 910 q 267 1006 242 981 q 334 1047 292 1032 q 439 1063 376 1063 q 569 1028 531 1063 q 607 935 607 993 m 542 924 q 517 987 542 964 q 429 1010 492 1010 q 360 999 388 1010 q 315 972 332 989 q 292 930 299 954 q 285 878 285 906 q 309 815 285 838 q 392 792 333 792 q 463 802 433 792 q 509 830 492 813 q 534 872 526 847 q 542 924 542 896 z "},"˛":{"ha":414,"x_min":17,"x_max":360,"o":"m 151 -325 q 51 -297 85 -325 q 17 -219 17 -268 q 51 -125 17 -167 q 161 -53 86 -83 l 294 0 l 360 0 l 186 -74 q 117 -154 117 -103 q 134 -193 117 -178 q 192 -208 151 -208 l 324 -208 l 303 -325 l 151 -325 z "},"˜":{"ha":647,"x_min":214,"x_max":750,"o":"m 750 940 q 688 859 731 894 q 583 824 646 824 q 519 834 544 824 q 471 858 493 844 q 426 881 449 871 q 369 892 403 892 q 309 875 335 892 q 265 821 283 858 l 214 850 q 276 930 233 896 q 381 964 318 964 q 445 953 418 964 q 495 931 472 943 q 541 908 518 918 q 594 897 564 897 q 696 969 665 897 l 750 940 z "},"˝":{"ha":549,"x_min":190,"x_max":675,"o":"m 426 774 l 583 1022 l 675 1022 l 508 774 l 426 774 m 190 774 l 336 1022 l 426 1022 l 272 774 l 190 774 z "},"̃":{"ha":549,"x_min":190,"x_max":675,"o":"m 585 729 l 425 858 l 218 729 l 190 756 l 407 917 l 460 917 l 622 756 l 585 729 m 675 1025 q 622 960 660 988 q 535 932 583 932 q 481 940 503 932 q 441 959 460 949 q 403 978 422 969 q 356 988 383 988 q 310 976 336 988 q 267 931 283 965 l 222 953 q 276 1017 238 989 q 367 1044 314 1044 q 419 1035 397 1044 q 459 1016 440 1026 q 497 997 478 1006 q 544 988 517 988 q 589 1001 565 988 q 628 1047 613 1015 l 675 1025 z "},"̉":{"ha":432,"x_min":225,"x_max":543,"o":"m 251 721 q 287 802 261 774 q 364 831 313 831 q 417 851 394 831 q 440 910 440 871 q 374 965 440 965 l 225 965 l 242 1063 l 424 1063 q 543 956 543 1063 q 499 834 543 876 q 393 792 456 792 q 342 775 357 792 q 319 721 326 758 l 251 721 z "},"̣":{"ha":239,"x_min":18,"x_max":160,"o":"m 18 -268 l 47 -103 l 160 -103 l 131 -268 l 18 -268 z "},";":{"ha":289,"x_min":54,"x_max":321,"o":"m 54 -129 l 133 208 l 243 208 l 136 -129 l 54 -129 m 179 463 l 215 671 l 321 671 l 285 463 l 179 463 z "},"Δ":{"ha":694,"x_min":22,"x_max":672,"o":"m 22 0 l 453 974 l 578 974 l 672 0 l 22 0 m 481 796 l 167 92 l 551 92 l 481 796 z "},"Ω":{"ha":938,"x_min":68,"x_max":958,"o":"m 610 0 l 629 107 q 706 183 669 138 q 769 290 742 229 q 812 427 796 351 q 828 594 828 503 q 778 788 828 721 q 619 854 729 854 q 485 831 542 854 q 391 769 429 808 q 330 678 353 729 q 294 571 307 626 q 278 458 282 515 q 275 350 275 400 q 294 200 275 261 q 347 107 314 139 l 328 0 l 68 0 l 83 89 l 239 89 q 181 188 207 119 q 156 368 156 256 q 178 589 156 481 q 256 783 200 697 q 405 922 311 869 q 642 975 499 975 q 786 950 726 975 q 884 878 846 925 q 940 767 922 832 q 958 622 958 701 q 935 421 958 508 q 878 268 913 333 q 804 159 844 203 q 729 89 764 115 l 885 89 l 869 0 l 610 0 z "},"μ":{"ha":690,"x_min":29,"x_max":747,"o":"m 521 0 l 536 86 q 471 19 508 38 q 374 0 433 0 l 260 0 q 179 46 200 0 l 132 -222 l 29 -222 l 193 713 l 296 713 l 210 224 q 206 186 206 203 q 275 107 206 107 l 439 107 q 520 136 493 107 q 558 225 547 165 l 643 713 l 747 713 l 622 0 l 521 0 z "},"π":{"ha":854,"x_min":153,"x_max":931,"o":"m 557 0 l 664 606 l 397 606 l 290 0 l 183 0 l 290 606 l 153 606 l 171 713 l 931 713 l 913 606 l 771 606 l 664 0 l 557 0 z "},"Ẁ":{"ha":1078,"x_min":194,"x_max":1228,"o":"m 713 0 l 675 757 l 364 0 l 246 0 l 194 974 l 307 974 l 339 176 l 665 974 l 765 974 l 807 176 l 1122 974 l 1228 974 l 835 0 l 713 0 m 536 1228 l 585 1283 l 864 1069 l 829 1033 l 536 1228 z "},"ẁ":{"ha":953,"x_min":147,"x_max":1056,"o":"m 621 0 l 572 556 l 326 0 l 226 0 l 147 713 l 256 713 l 307 147 l 554 713 l 651 713 l 703 147 l 951 713 l 1056 713 l 726 0 l 621 0 m 428 967 l 476 1022 l 756 808 l 721 772 l 428 967 z "},"Ẃ":{"ha":1078,"x_min":194,"x_max":1228,"o":"m 713 0 l 675 757 l 364 0 l 246 0 l 194 974 l 307 974 l 339 176 l 665 974 l 765 974 l 807 176 l 1122 974 l 1228 974 l 835 0 l 713 0 m 613 1033 l 592 1069 l 946 1283 l 975 1228 l 613 1033 z "},"ẃ":{"ha":953,"x_min":147,"x_max":1056,"o":"m 621 0 l 572 556 l 326 0 l 226 0 l 147 713 l 256 713 l 307 147 l 554 713 l 651 713 l 703 147 l 951 713 l 1056 713 l 726 0 l 621 0 m 504 772 l 483 808 l 838 1022 l 867 967 l 504 772 z "},"Ẅ":{"ha":1078,"x_min":194,"x_max":1228,"o":"m 713 0 l 675 757 l 364 0 l 246 0 l 194 974 l 307 974 l 339 176 l 665 974 l 765 974 l 807 176 l 1122 974 l 1228 974 l 835 0 l 713 0 m 825 1075 l 854 1240 l 965 1240 l 936 1075 l 825 1075 m 519 1075 l 549 1240 l 661 1240 l 632 1075 l 519 1075 z "},"ẅ":{"ha":953,"x_min":147,"x_max":1056,"o":"m 621 0 l 572 556 l 326 0 l 226 0 l 147 713 l 256 713 l 307 147 l 554 713 l 651 713 l 703 147 l 951 713 l 1056 713 l 726 0 l 621 0 m 717 814 l 746 979 l 857 979 l 828 814 l 717 814 m 411 814 l 440 979 l 553 979 l 524 814 l 411 814 z "},"Ạ":{"ha":694,"x_min":22,"x_max":672,"o":"m 556 0 l 539 193 l 213 193 l 129 0 l 22 0 l 453 974 l 578 974 l 672 0 l 556 0 m 486 824 l 251 285 l 531 285 l 486 824 m 243 -268 l 272 -103 l 385 -103 l 356 -268 l 243 -268 z "},"ạ":{"ha":665,"x_min":79,"x_max":693,"o":"m 224 0 q 79 121 79 0 q 83 168 79 143 l 103 272 q 165 391 118 351 q 300 431 213 431 l 576 431 l 586 485 q 589 496 589 490 q 589 507 589 501 q 569 580 589 556 q 500 604 550 604 l 201 604 l 219 713 l 518 713 q 693 554 693 713 q 688 489 693 521 l 601 0 l 224 0 m 560 339 l 292 339 q 196 254 210 339 l 183 182 q 181 169 182 175 q 181 158 181 164 q 250 100 181 100 l 518 100 l 560 339 m 229 -268 l 258 -103 l 371 -103 l 342 -268 l 229 -268 z "},"Ả":{"ha":694,"x_min":22,"x_max":749,"o":"m 556 0 l 539 193 l 213 193 l 129 0 l 22 0 l 453 974 l 578 974 l 672 0 l 556 0 m 486 824 l 251 285 l 531 285 l 486 824 m 457 982 q 492 1063 467 1035 q 569 1092 518 1092 q 623 1112 600 1092 q 646 1171 646 1132 q 579 1226 646 1226 l 431 1226 l 447 1324 l 629 1324 q 749 1217 749 1324 q 705 1095 749 1138 q 599 1053 661 1053 q 547 1036 563 1053 q 525 982 532 1019 l 457 982 z "},"ả":{"ha":665,"x_min":79,"x_max":693,"o":"m 224 0 q 79 121 79 0 q 83 168 79 143 l 103 272 q 165 391 118 351 q 300 431 213 431 l 576 431 l 586 485 q 589 496 589 490 q 589 507 589 501 q 569 580 589 556 q 500 604 550 604 l 201 604 l 219 713 l 518 713 q 693 554 693 713 q 688 489 693 521 l 601 0 l 224 0 m 560 339 l 292 339 q 196 254 210 339 l 183 182 q 181 169 182 175 q 181 158 181 164 q 250 100 181 100 l 518 100 l 560 339 m 396 721 q 431 802 406 774 q 508 831 457 831 q 562 851 539 831 q 585 910 585 871 q 518 965 585 965 l 369 965 l 386 1063 l 568 1063 q 688 956 688 1063 q 644 834 688 876 q 538 792 600 792 q 486 775 501 792 q 464 721 471 758 l 396 721 z "},"Ấ":{"ha":694,"x_min":22,"x_max":1014,"o":"m 556 0 l 539 193 l 213 193 l 129 0 l 22 0 l 453 974 l 578 974 l 672 0 l 556 0 m 486 824 l 251 285 l 531 285 l 486 824 m 764 1065 l 742 1099 l 986 1249 l 1014 1194 l 764 1065 m 685 1065 l 551 1192 l 378 1065 l 353 1092 l 539 1249 l 586 1249 l 719 1092 l 685 1065 z "},"ấ":{"ha":665,"x_min":79,"x_max":974,"o":"m 224 0 q 79 121 79 0 q 83 168 79 143 l 103 272 q 165 391 118 351 q 300 431 213 431 l 576 431 l 586 485 q 589 496 589 490 q 589 507 589 501 q 569 580 589 556 q 500 604 550 604 l 201 604 l 219 713 l 518 713 q 693 554 693 713 q 688 489 693 521 l 601 0 l 224 0 m 560 339 l 292 339 q 196 254 210 339 l 183 182 q 181 169 182 175 q 181 158 181 164 q 250 100 181 100 l 518 100 l 560 339 m 724 804 l 701 838 l 946 988 l 974 933 l 724 804 m 644 804 l 511 931 l 338 804 l 313 831 l 499 988 l 546 988 l 679 831 l 644 804 z "},"Ầ":{"ha":694,"x_min":22,"x_max":721,"o":"m 556 0 l 539 193 l 213 193 l 129 0 l 22 0 l 453 974 l 578 974 l 672 0 l 556 0 m 486 824 l 251 285 l 531 285 l 486 824 m 96 1194 l 143 1249 l 333 1099 l 301 1065 l 96 1194 m 688 1065 l 557 1192 l 379 1065 l 354 1092 l 543 1249 l 589 1249 l 721 1092 l 688 1065 z "},"ầ":{"ha":665,"x_min":53,"x_max":693,"o":"m 224 0 q 79 121 79 0 q 83 168 79 143 l 103 272 q 165 391 118 351 q 300 431 213 431 l 576 431 l 586 485 q 589 496 589 490 q 589 507 589 501 q 569 580 589 556 q 500 604 550 604 l 201 604 l 219 713 l 518 713 q 693 554 693 713 q 688 489 693 521 l 601 0 l 224 0 m 560 339 l 292 339 q 196 254 210 339 l 183 182 q 181 169 182 175 q 181 158 181 164 q 250 100 181 100 l 518 100 l 560 339 m 53 933 l 100 988 l 290 838 l 258 804 l 53 933 m 644 804 l 514 931 l 336 804 l 311 831 l 500 988 l 546 988 l 678 831 l 644 804 z "},"Ẩ":{"ha":694,"x_min":22,"x_max":976,"o":"m 556 0 l 539 193 l 213 193 l 129 0 l 22 0 l 453 974 l 578 974 l 672 0 l 556 0 m 486 824 l 251 285 l 531 285 l 486 824 m 772 1058 q 797 1116 779 1097 q 849 1135 815 1135 q 886 1150 869 1135 q 903 1189 903 1165 q 858 1226 903 1226 l 753 1226 l 765 1297 l 894 1297 q 976 1221 976 1297 q 947 1137 976 1167 q 869 1107 917 1107 q 838 1096 847 1107 q 822 1058 828 1085 l 772 1058 m 679 1065 l 546 1192 l 372 1065 l 347 1092 l 533 1249 l 581 1249 l 714 1092 l 679 1065 z "},"ẩ":{"ha":665,"x_min":79,"x_max":943,"o":"m 224 0 q 79 121 79 0 q 83 168 79 143 l 103 272 q 165 391 118 351 q 300 431 213 431 l 576 431 l 586 485 q 589 496 589 490 q 589 507 589 501 q 569 580 589 556 q 500 604 550 604 l 201 604 l 219 713 l 518 713 q 693 554 693 713 q 688 489 693 521 l 601 0 l 224 0 m 560 339 l 292 339 q 196 254 210 339 l 183 182 q 181 169 182 175 q 181 158 181 164 q 250 100 181 100 l 518 100 l 560 339 m 739 797 q 764 855 746 836 q 815 874 782 874 q 853 889 836 874 q 869 928 869 904 q 825 965 869 965 l 719 965 l 732 1036 l 861 1036 q 943 960 943 1036 q 913 876 943 906 q 836 846 883 846 q 804 835 814 846 q 789 797 794 824 l 739 797 m 646 804 l 513 931 l 339 804 l 314 831 l 500 988 l 547 988 l 681 831 l 646 804 z "},"Ẫ":{"ha":694,"x_min":22,"x_max":793,"o":"m 556 0 l 539 193 l 213 193 l 129 0 l 22 0 l 453 974 l 578 974 l 672 0 l 556 0 m 486 824 l 251 285 l 531 285 l 486 824 m 703 990 l 543 1119 l 336 990 l 308 1017 l 525 1178 l 578 1178 l 740 1017 l 703 990 m 793 1286 q 740 1221 778 1249 q 653 1193 701 1193 q 599 1201 621 1193 q 559 1220 578 1210 q 521 1240 540 1231 q 474 1249 501 1249 q 428 1238 454 1249 q 385 1192 401 1226 l 340 1214 q 394 1278 356 1250 q 485 1306 432 1306 q 537 1297 515 1306 q 577 1277 558 1288 q 615 1258 596 1267 q 663 1249 635 1249 q 707 1263 683 1249 q 746 1308 731 1276 l 793 1286 z "},"ẫ":{"ha":665,"x_min":79,"x_max":747,"o":"m 224 0 q 79 121 79 0 q 83 168 79 143 l 103 272 q 165 391 118 351 q 300 431 213 431 l 576 431 l 586 485 q 589 496 589 490 q 589 507 589 501 q 569 580 589 556 q 500 604 550 604 l 201 604 l 219 713 l 518 713 q 693 554 693 713 q 688 489 693 521 l 601 0 l 224 0 m 560 339 l 292 339 q 196 254 210 339 l 183 182 q 181 169 182 175 q 181 158 181 164 q 250 100 181 100 l 518 100 l 560 339 m 657 729 l 497 858 l 290 729 l 263 756 l 479 917 l 532 917 l 694 756 l 657 729 m 747 1025 q 694 960 732 988 q 607 932 656 932 q 553 940 575 932 q 513 959 532 949 q 475 978 494 969 q 428 988 456 988 q 382 976 408 988 q 339 931 356 965 l 294 953 q 348 1017 310 989 q 439 1044 386 1044 q 491 1035 469 1044 q 531 1016 513 1026 q 569 997 550 1006 q 617 988 589 988 q 661 1001 638 988 q 700 1047 685 1015 l 747 1025 z "},"Ậ":{"ha":694,"x_min":22,"x_max":793,"o":"m 556 0 l 539 193 l 213 193 l 129 0 l 22 0 l 453 974 l 578 974 l 672 0 l 556 0 m 486 824 l 251 285 l 531 285 l 486 824 m 749 1033 l 558 1208 l 308 1033 l 275 1067 l 542 1283 l 604 1283 l 793 1067 l 749 1033 m 235 -268 l 264 -103 l 376 -103 l 347 -268 l 235 -268 z "},"ậ":{"ha":665,"x_min":79,"x_max":747,"o":"m 224 0 q 79 121 79 0 q 83 168 79 143 l 103 272 q 165 391 118 351 q 300 431 213 431 l 576 431 l 586 485 q 589 496 589 490 q 589 507 589 501 q 569 580 589 556 q 500 604 550 604 l 201 604 l 219 713 l 518 713 q 693 554 693 713 q 688 489 693 521 l 601 0 l 224 0 m 560 339 l 292 339 q 196 254 210 339 l 183 182 q 181 169 182 175 q 181 158 181 164 q 250 100 181 100 l 518 100 l 560 339 m 703 772 l 513 947 l 263 772 l 229 806 l 496 1022 l 558 1022 l 747 806 l 703 772 m 229 -268 l 258 -103 l 371 -103 l 342 -268 l 229 -268 z "},"Ắ":{"ha":694,"x_min":22,"x_max":753,"o":"m 556 0 l 539 193 l 213 193 l 129 0 l 22 0 l 453 974 l 578 974 l 672 0 l 556 0 m 486 824 l 251 285 l 531 285 l 486 824 m 753 1164 q 719 1104 740 1135 q 667 1049 697 1074 q 601 1008 638 1024 q 521 992 564 992 q 449 1006 481 992 q 396 1045 418 1021 q 363 1099 374 1069 q 351 1157 351 1128 l 351 1164 l 397 1193 q 436 1091 400 1129 q 531 1053 472 1053 q 640 1091 593 1053 q 715 1192 686 1129 l 753 1164 m 467 1158 l 450 1188 l 654 1324 l 679 1275 l 467 1158 z "},"ắ":{"ha":665,"x_min":79,"x_max":707,"o":"m 224 0 q 79 121 79 0 q 83 168 79 143 l 103 272 q 165 391 118 351 q 300 431 213 431 l 576 431 l 586 485 q 589 496 589 490 q 589 507 589 501 q 569 580 589 556 q 500 604 550 604 l 201 604 l 219 713 l 518 713 q 693 554 693 713 q 688 489 693 521 l 601 0 l 224 0 m 560 339 l 292 339 q 196 254 210 339 l 183 182 q 181 169 182 175 q 181 158 181 164 q 250 100 181 100 l 518 100 l 560 339 m 707 903 q 673 843 694 874 q 622 788 651 813 q 555 747 592 763 q 475 731 518 731 q 403 745 435 731 q 350 784 372 760 q 317 838 328 808 q 306 896 306 867 l 306 903 l 351 932 q 390 830 354 868 q 485 792 426 792 q 594 830 547 792 q 669 931 640 868 l 707 903 m 421 897 l 404 926 l 608 1063 l 633 1014 l 421 897 z "},"Ằ":{"ha":694,"x_min":22,"x_max":753,"o":"m 556 0 l 539 193 l 213 193 l 129 0 l 22 0 l 453 974 l 578 974 l 672 0 l 556 0 m 486 824 l 251 285 l 531 285 l 486 824 m 753 1164 q 723 1104 744 1135 q 671 1049 701 1074 q 602 1008 640 1024 q 522 992 564 992 q 449 1008 481 992 q 396 1049 417 1024 q 364 1104 375 1074 q 351 1164 353 1135 l 397 1192 q 439 1091 406 1129 q 535 1053 472 1053 q 640 1092 589 1053 q 715 1193 690 1131 l 753 1164 m 465 1275 l 506 1324 l 664 1188 l 636 1158 l 465 1275 z "},"ằ":{"ha":665,"x_min":79,"x_max":707,"o":"m 224 0 q 79 121 79 0 q 83 168 79 143 l 103 272 q 165 391 118 351 q 300 431 213 431 l 576 431 l 586 485 q 589 496 589 490 q 589 507 589 501 q 569 580 589 556 q 500 604 550 604 l 201 604 l 219 713 l 518 713 q 693 554 693 713 q 688 489 693 521 l 601 0 l 224 0 m 560 339 l 292 339 q 196 254 210 339 l 183 182 q 181 169 182 175 q 181 158 181 164 q 250 100 181 100 l 518 100 l 560 339 m 707 903 q 677 843 699 874 q 625 788 656 813 q 556 747 594 763 q 476 731 518 731 q 403 747 435 731 q 350 788 371 763 q 318 843 329 813 q 306 903 307 874 l 351 931 q 393 830 360 868 q 489 792 426 792 q 594 831 543 792 q 669 932 644 869 l 707 903 m 419 1014 l 460 1063 l 618 926 l 590 897 l 419 1014 z "},"Ẳ":{"ha":694,"x_min":22,"x_max":751,"o":"m 556 0 l 539 193 l 213 193 l 129 0 l 22 0 l 453 974 l 578 974 l 672 0 l 556 0 m 486 824 l 251 285 l 531 285 l 486 824 m 751 1163 q 720 1103 742 1133 q 668 1048 699 1072 q 600 1008 638 1024 q 521 992 563 992 q 447 1008 479 992 q 394 1048 415 1024 q 363 1103 374 1072 q 350 1163 351 1133 l 397 1192 q 438 1091 404 1129 q 533 1053 471 1053 q 586 1063 560 1053 q 637 1092 613 1074 q 681 1137 661 1111 q 714 1192 701 1163 l 751 1163 m 503 1121 q 530 1176 511 1164 q 569 1191 549 1188 q 603 1201 589 1194 q 618 1236 618 1207 q 576 1268 618 1268 l 482 1268 l 492 1324 l 607 1324 q 682 1263 682 1324 q 673 1211 682 1229 q 649 1183 664 1193 q 618 1169 635 1174 q 586 1160 601 1165 q 560 1147 571 1156 q 546 1121 549 1139 l 503 1121 z "},"ẳ":{"ha":665,"x_min":79,"x_max":706,"o":"m 224 0 q 79 121 79 0 q 83 168 79 143 l 103 272 q 165 391 118 351 q 300 431 213 431 l 576 431 l 586 485 q 589 496 589 490 q 589 507 589 501 q 569 580 589 556 q 500 604 550 604 l 201 604 l 219 713 l 518 713 q 693 554 693 713 q 688 489 693 521 l 601 0 l 224 0 m 560 339 l 292 339 q 196 254 210 339 l 183 182 q 181 169 182 175 q 181 158 181 164 q 250 100 181 100 l 518 100 l 560 339 m 706 901 q 674 842 696 872 q 622 787 653 811 q 554 747 592 763 q 475 731 517 731 q 401 747 433 731 q 349 787 369 763 q 317 842 328 811 q 304 901 306 872 l 351 931 q 392 830 358 868 q 488 792 425 792 q 540 802 514 792 q 591 831 567 813 q 635 876 615 850 q 668 931 656 901 l 706 901 m 457 860 q 484 915 465 903 q 523 930 503 926 q 558 940 543 933 q 572 975 572 946 q 531 1007 572 1007 l 436 1007 l 446 1063 l 561 1063 q 636 1001 636 1063 q 627 950 636 968 q 603 922 618 932 q 572 908 589 913 q 540 899 556 904 q 514 886 525 894 q 500 860 503 878 l 457 860 z "},"Ẵ":{"ha":694,"x_min":22,"x_max":753,"o":"m 556 0 l 539 193 l 213 193 l 129 0 l 22 0 l 453 974 l 578 974 l 672 0 l 556 0 m 486 824 l 251 285 l 531 285 l 486 824 m 753 1164 q 719 1104 740 1135 q 667 1049 697 1074 q 601 1008 638 1024 q 521 992 564 992 q 449 1006 481 992 q 396 1045 418 1021 q 363 1099 374 1069 q 351 1157 351 1128 l 351 1164 l 397 1193 q 436 1091 400 1129 q 531 1053 472 1053 q 640 1091 593 1053 q 715 1192 686 1129 l 753 1164 m 738 1300 q 699 1244 725 1268 q 633 1221 672 1221 q 593 1228 608 1221 q 566 1246 578 1236 q 541 1263 554 1256 q 507 1271 528 1271 q 469 1260 486 1271 q 440 1221 451 1249 l 407 1239 q 449 1294 421 1271 q 515 1317 478 1317 q 553 1308 539 1317 q 581 1291 568 1300 q 606 1274 593 1282 q 640 1265 619 1265 q 707 1318 683 1265 l 738 1300 z "},"ẵ":{"ha":665,"x_min":79,"x_max":707,"o":"m 224 0 q 79 121 79 0 q 83 168 79 143 l 103 272 q 165 391 118 351 q 300 431 213 431 l 576 431 l 586 485 q 589 496 589 490 q 589 507 589 501 q 569 580 589 556 q 500 604 550 604 l 201 604 l 219 713 l 518 713 q 693 554 693 713 q 688 489 693 521 l 601 0 l 224 0 m 560 339 l 292 339 q 196 254 210 339 l 183 182 q 181 169 182 175 q 181 158 181 164 q 250 100 181 100 l 518 100 l 560 339 m 707 903 q 673 843 694 874 q 622 788 651 813 q 555 747 592 763 q 475 731 518 731 q 403 745 435 731 q 350 784 372 760 q 317 838 328 808 q 306 896 306 867 l 306 903 l 351 932 q 390 830 354 868 q 485 792 426 792 q 594 830 547 792 q 669 931 640 868 l 707 903 m 692 1039 q 653 983 679 1007 q 588 960 626 960 q 547 967 563 960 q 520 985 532 975 q 495 1002 508 994 q 461 1010 482 1010 q 423 999 440 1010 q 394 960 406 988 l 361 978 q 403 1033 375 1010 q 469 1056 432 1056 q 508 1047 493 1056 q 535 1030 522 1039 q 560 1013 547 1021 q 594 1004 574 1004 q 661 1057 638 1004 l 692 1039 z "},"Ặ":{"ha":694,"x_min":22,"x_max":822,"o":"m 556 0 l 539 193 l 213 193 l 129 0 l 22 0 l 453 974 l 578 974 l 672 0 l 556 0 m 486 824 l 251 285 l 531 285 l 486 824 m 822 1228 q 780 1160 807 1194 q 715 1097 753 1125 q 631 1051 678 1069 q 529 1033 583 1033 q 433 1051 475 1033 q 363 1097 390 1069 q 320 1160 335 1125 q 306 1228 306 1194 l 363 1260 q 416 1147 367 1192 q 540 1101 465 1101 q 680 1145 619 1101 q 776 1260 740 1189 l 822 1228 m 239 -268 l 268 -103 l 381 -103 l 351 -268 l 239 -268 z "},"ặ":{"ha":665,"x_min":79,"x_max":775,"o":"m 224 0 q 79 121 79 0 q 83 168 79 143 l 103 272 q 165 391 118 351 q 300 431 213 431 l 576 431 l 586 485 q 589 496 589 490 q 589 507 589 501 q 569 580 589 556 q 500 604 550 604 l 201 604 l 219 713 l 518 713 q 693 554 693 713 q 688 489 693 521 l 601 0 l 224 0 m 560 339 l 292 339 q 196 254 210 339 l 183 182 q 181 169 182 175 q 181 158 181 164 q 250 100 181 100 l 518 100 l 560 339 m 775 967 q 733 899 760 933 q 668 836 706 864 q 583 790 631 808 q 482 772 536 772 q 385 790 428 772 q 315 836 343 808 q 273 899 288 864 q 258 967 258 933 l 315 999 q 369 885 319 931 q 493 840 418 840 q 633 884 572 840 q 729 999 693 928 l 775 967 m 229 -268 l 258 -103 l 371 -103 l 342 -268 l 229 -268 z "},"Ẹ":{"ha":664,"x_min":68,"x_max":782,"o":"m 68 0 l 240 974 l 782 974 l 761 863 l 328 863 l 272 546 l 531 546 l 513 443 l 254 443 l 196 111 l 629 111 l 610 0 l 68 0 m 250 -268 l 279 -103 l 392 -103 l 363 -268 l 250 -268 z "},"ẹ":{"ha":667,"x_min":94,"x_max":697,"o":"m 269 0 q 94 160 94 0 q 96 192 94 175 q 100 224 97 208 l 147 489 q 394 713 188 713 l 521 713 q 697 554 697 713 q 696 521 697 538 q 692 489 694 504 l 661 313 l 218 313 l 203 226 q 199 190 199 207 q 289 107 199 107 l 606 107 l 586 0 l 269 0 m 592 492 q 594 503 594 497 q 594 514 594 508 q 575 587 594 563 q 506 611 556 611 l 378 611 q 249 492 269 611 l 233 404 l 576 404 l 592 492 m 229 -268 l 258 -103 l 371 -103 l 342 -268 l 229 -268 z "},"Ẻ":{"ha":664,"x_min":68,"x_max":782,"o":"m 68 0 l 240 974 l 782 974 l 761 863 l 328 863 l 272 546 l 531 546 l 513 443 l 254 443 l 196 111 l 629 111 l 610 0 l 68 0 m 447 982 q 483 1063 457 1035 q 560 1092 508 1092 q 613 1112 590 1092 q 636 1171 636 1132 q 569 1226 636 1226 l 421 1226 l 438 1324 l 619 1324 q 739 1217 739 1324 q 695 1095 739 1138 q 589 1053 651 1053 q 538 1036 553 1053 q 515 982 522 1019 l 447 982 z "},"ẻ":{"ha":667,"x_min":94,"x_max":697,"o":"m 269 0 q 94 160 94 0 q 96 192 94 175 q 100 224 97 208 l 147 489 q 394 713 188 713 l 521 713 q 697 554 697 713 q 696 521 697 538 q 692 489 694 504 l 661 313 l 218 313 l 203 226 q 199 190 199 207 q 289 107 199 107 l 606 107 l 586 0 l 269 0 m 592 492 q 594 503 594 497 q 594 514 594 508 q 575 587 594 563 q 506 611 556 611 l 378 611 q 249 492 269 611 l 233 404 l 576 404 l 592 492 m 390 721 q 426 802 400 774 q 503 831 451 831 q 556 851 533 831 q 579 910 579 871 q 513 965 579 965 l 364 965 l 381 1063 l 563 1063 q 682 956 682 1063 q 638 834 682 876 q 532 792 594 792 q 481 775 496 792 q 458 721 465 758 l 390 721 z "},"Ẽ":{"ha":664,"x_min":68,"x_max":824,"o":"m 68 0 l 240 974 l 782 974 l 761 863 l 328 863 l 272 546 l 531 546 l 513 443 l 254 443 l 196 111 l 629 111 l 610 0 l 68 0 m 824 1201 q 762 1120 804 1156 q 657 1085 719 1085 q 592 1095 618 1085 q 544 1119 567 1106 q 499 1142 522 1132 q 443 1153 476 1153 q 383 1136 408 1153 q 339 1082 357 1119 l 288 1111 q 349 1191 307 1157 q 454 1225 392 1225 q 519 1215 492 1225 q 569 1192 546 1204 q 615 1169 592 1179 q 668 1158 638 1158 q 769 1231 739 1158 l 824 1201 z "},"ẽ":{"ha":667,"x_min":94,"x_max":772,"o":"m 269 0 q 94 160 94 0 q 96 192 94 175 q 100 224 97 208 l 147 489 q 394 713 188 713 l 521 713 q 697 554 697 713 q 696 521 697 538 q 692 489 694 504 l 661 313 l 218 313 l 203 226 q 199 190 199 207 q 289 107 199 107 l 606 107 l 586 0 l 269 0 m 592 492 q 594 503 594 497 q 594 514 594 508 q 575 587 594 563 q 506 611 556 611 l 378 611 q 249 492 269 611 l 233 404 l 576 404 l 592 492 m 772 940 q 710 859 753 894 q 606 824 668 824 q 541 834 567 824 q 493 858 515 844 q 448 881 471 871 q 392 892 425 892 q 331 875 357 892 q 288 821 306 858 l 236 850 q 298 930 256 896 q 403 964 340 964 q 467 953 440 964 q 517 931 494 943 q 563 908 540 918 q 617 897 586 897 q 718 969 688 897 l 772 940 z "},"Ế":{"ha":664,"x_min":68,"x_max":1014,"o":"m 68 0 l 240 974 l 782 974 l 761 863 l 328 863 l 272 546 l 531 546 l 513 443 l 254 443 l 196 111 l 629 111 l 610 0 l 68 0 m 764 1065 l 742 1099 l 986 1249 l 1014 1194 l 764 1065 m 685 1065 l 551 1192 l 378 1065 l 353 1092 l 539 1249 l 586 1249 l 719 1092 l 685 1065 z "},"ế":{"ha":667,"x_min":94,"x_max":969,"o":"m 269 0 q 94 160 94 0 q 96 192 94 175 q 100 224 97 208 l 147 489 q 394 713 188 713 l 521 713 q 697 554 697 713 q 696 521 697 538 q 692 489 694 504 l 661 313 l 218 313 l 203 226 q 199 190 199 207 q 289 107 199 107 l 606 107 l 586 0 l 269 0 m 592 492 q 594 503 594 497 q 594 514 594 508 q 575 587 594 563 q 506 611 556 611 l 378 611 q 249 492 269 611 l 233 404 l 576 404 l 592 492 m 719 804 l 697 838 l 942 988 l 969 933 l 719 804 m 640 804 l 507 931 l 333 804 l 308 831 l 494 988 l 542 988 l 675 831 l 640 804 z "},"Ề":{"ha":664,"x_min":68,"x_max":782,"o":"m 68 0 l 240 974 l 782 974 l 761 863 l 328 863 l 272 546 l 531 546 l 513 443 l 254 443 l 196 111 l 629 111 l 610 0 l 68 0 m 100 1194 l 147 1249 l 338 1099 l 306 1065 l 100 1194 m 692 1065 l 561 1192 l 383 1065 l 358 1092 l 547 1249 l 593 1249 l 725 1092 l 692 1065 z "},"ề":{"ha":667,"x_min":46,"x_max":697,"o":"m 269 0 q 94 160 94 0 q 96 192 94 175 q 100 224 97 208 l 147 489 q 394 713 188 713 l 521 713 q 697 554 697 713 q 696 521 697 538 q 692 489 694 504 l 661 313 l 218 313 l 203 226 q 199 190 199 207 q 289 107 199 107 l 606 107 l 586 0 l 269 0 m 592 492 q 594 503 594 497 q 594 514 594 508 q 575 587 594 563 q 506 611 556 611 l 378 611 q 249 492 269 611 l 233 404 l 576 404 l 592 492 m 46 933 l 93 988 l 283 838 l 251 804 l 46 933 m 638 804 l 507 931 l 329 804 l 304 831 l 493 988 l 539 988 l 671 831 l 638 804 z "},"Ể":{"ha":664,"x_min":68,"x_max":985,"o":"m 68 0 l 240 974 l 782 974 l 761 863 l 328 863 l 272 546 l 531 546 l 513 443 l 254 443 l 196 111 l 629 111 l 610 0 l 68 0 m 781 1058 q 806 1116 788 1097 q 857 1135 824 1135 q 894 1150 878 1135 q 911 1189 911 1165 q 867 1226 911 1226 l 761 1226 l 774 1297 l 903 1297 q 985 1221 985 1297 q 955 1137 985 1167 q 878 1107 925 1107 q 846 1096 856 1107 q 831 1058 836 1085 l 781 1058 m 688 1065 l 554 1192 l 381 1065 l 356 1092 l 542 1249 l 589 1249 l 722 1092 l 688 1065 z "},"ể":{"ha":667,"x_min":94,"x_max":931,"o":"m 269 0 q 94 160 94 0 q 96 192 94 175 q 100 224 97 208 l 147 489 q 394 713 188 713 l 521 713 q 697 554 697 713 q 696 521 697 538 q 692 489 694 504 l 661 313 l 218 313 l 203 226 q 199 190 199 207 q 289 107 199 107 l 606 107 l 586 0 l 269 0 m 592 492 q 594 503 594 497 q 594 514 594 508 q 575 587 594 563 q 506 611 556 611 l 378 611 q 249 492 269 611 l 233 404 l 576 404 l 592 492 m 726 797 q 751 855 733 836 q 803 874 769 874 q 840 889 824 874 q 857 928 857 904 q 813 965 857 965 l 707 965 l 719 1036 l 849 1036 q 931 960 931 1036 q 901 876 931 906 q 824 846 871 846 q 792 835 801 846 q 776 797 782 824 l 726 797 m 633 804 l 500 931 l 326 804 l 301 831 l 488 988 l 535 988 l 668 831 l 633 804 z "},"Ễ":{"ha":664,"x_min":68,"x_max":790,"o":"m 68 0 l 240 974 l 782 974 l 761 863 l 328 863 l 272 546 l 531 546 l 513 443 l 254 443 l 196 111 l 629 111 l 610 0 l 68 0 m 700 990 l 540 1119 l 333 990 l 306 1017 l 522 1178 l 575 1178 l 738 1017 l 700 990 m 790 1286 q 737 1221 775 1249 q 650 1193 699 1193 q 597 1201 618 1193 q 556 1220 575 1210 q 518 1240 538 1231 q 471 1249 499 1249 q 425 1238 451 1249 q 382 1192 399 1226 l 338 1214 q 391 1278 353 1250 q 482 1306 429 1306 q 534 1297 513 1306 q 574 1277 556 1288 q 613 1258 593 1267 q 660 1249 632 1249 q 704 1263 681 1249 q 743 1308 728 1276 l 790 1286 z "},"ễ":{"ha":667,"x_min":94,"x_max":747,"o":"m 269 0 q 94 160 94 0 q 96 192 94 175 q 100 224 97 208 l 147 489 q 394 713 188 713 l 521 713 q 697 554 697 713 q 696 521 697 538 q 692 489 694 504 l 661 313 l 218 313 l 203 226 q 199 190 199 207 q 289 107 199 107 l 606 107 l 586 0 l 269 0 m 592 492 q 594 503 594 497 q 594 514 594 508 q 575 587 594 563 q 506 611 556 611 l 378 611 q 249 492 269 611 l 233 404 l 576 404 l 592 492 m 657 729 l 497 858 l 290 729 l 263 756 l 479 917 l 532 917 l 694 756 l 657 729 m 747 1025 q 694 960 732 988 q 607 932 656 932 q 553 940 575 932 q 513 959 532 949 q 475 978 494 969 q 428 988 456 988 q 382 976 408 988 q 339 931 356 965 l 294 953 q 348 1017 310 989 q 439 1044 386 1044 q 491 1035 469 1044 q 531 1016 513 1026 q 569 997 550 1006 q 617 988 589 988 q 661 1001 638 988 q 700 1047 685 1015 l 747 1025 z "},"Ệ":{"ha":664,"x_min":68,"x_max":810,"o":"m 68 0 l 240 974 l 782 974 l 761 863 l 328 863 l 272 546 l 531 546 l 513 443 l 254 443 l 196 111 l 629 111 l 610 0 l 68 0 m 765 1033 l 575 1208 l 325 1033 l 292 1067 l 558 1283 l 621 1283 l 810 1067 l 765 1033 m 242 -268 l 271 -103 l 383 -103 l 354 -268 l 242 -268 z "},"ệ":{"ha":667,"x_min":94,"x_max":733,"o":"m 269 0 q 94 160 94 0 q 96 192 94 175 q 100 224 97 208 l 147 489 q 394 713 188 713 l 521 713 q 697 554 697 713 q 696 521 697 538 q 692 489 694 504 l 661 313 l 218 313 l 203 226 q 199 190 199 207 q 289 107 199 107 l 606 107 l 586 0 l 269 0 m 592 492 q 594 503 594 497 q 594 514 594 508 q 575 587 594 563 q 506 611 556 611 l 378 611 q 249 492 269 611 l 233 404 l 576 404 l 592 492 m 689 772 l 499 947 l 249 772 l 215 806 l 482 1022 l 544 1022 l 733 806 l 689 772 m 229 -268 l 258 -103 l 371 -103 l 342 -268 l 229 -268 z "},"Ỉ":{"ha":258,"x_min":75,"x_max":544,"o":"m 75 0 l 247 974 l 356 974 l 183 0 l 75 0 m 253 982 q 288 1063 263 1035 q 365 1092 314 1092 q 419 1112 396 1092 q 442 1171 442 1132 q 375 1226 442 1226 l 226 1226 l 243 1324 l 425 1324 q 544 1217 544 1324 q 501 1095 544 1138 q 394 1053 457 1053 q 343 1036 358 1053 q 321 982 328 1019 l 253 982 z "},"ỉ":{"ha":256,"x_min":75,"x_max":499,"o":"m 75 0 l 200 713 l 306 713 l 181 0 l 75 0 m 207 721 q 242 802 217 774 q 319 831 268 831 q 373 851 350 831 q 396 910 396 871 q 329 965 396 965 l 181 965 l 197 1063 l 379 1063 q 499 956 499 1063 q 455 834 499 876 q 349 792 411 792 q 297 775 313 792 q 275 721 282 758 l 207 721 z "},"Ị":{"ha":258,"x_min":25,"x_max":356,"o":"m 75 0 l 247 974 l 356 974 l 183 0 l 75 0 m 25 -268 l 54 -103 l 167 -103 l 138 -268 l 25 -268 z "},"ị":{"ha":256,"x_min":24,"x_max":353,"o":"m 217 807 l 247 974 l 353 974 l 322 807 l 217 807 m 75 0 l 200 713 l 306 713 l 181 0 l 75 0 m 24 -268 l 53 -103 l 165 -103 l 136 -268 l 24 -268 z "},"Ọ":{"ha":732,"x_min":93,"x_max":810,"o":"m 267 0 q 134 41 175 0 q 93 157 93 82 q 94 186 93 172 q 99 214 96 200 l 194 758 q 272 916 213 858 q 439 974 331 974 l 638 974 q 769 933 729 974 q 810 817 810 892 q 808 787 810 801 q 804 758 807 772 l 708 214 q 633 58 692 117 q 465 0 574 0 l 267 0 m 696 758 q 698 775 697 767 q 699 790 699 783 q 617 863 699 863 l 418 863 q 340 835 369 863 q 303 758 311 807 l 207 215 q 204 205 204 210 q 204 196 204 200 q 222 132 204 153 q 286 111 240 111 l 485 111 q 563 139 533 111 q 600 215 592 167 l 696 758 m 263 -268 l 292 -103 l 404 -103 l 375 -268 l 263 -268 z "},"ọ":{"ha":683,"x_min":93,"x_max":715,"o":"m 292 0 q 138 32 182 0 q 93 142 93 64 q 96 188 93 163 q 104 242 99 213 l 144 471 q 176 589 157 542 q 227 663 196 636 q 304 701 258 690 q 417 713 350 713 l 517 713 q 671 680 626 713 q 715 568 715 647 q 713 522 715 546 q 706 471 710 497 l 665 242 q 591 60 643 119 q 432 0 539 0 l 292 0 m 604 489 q 608 536 608 515 q 591 589 608 574 q 535 604 574 604 l 361 604 q 254 506 271 604 l 204 222 q 200 176 200 194 q 217 123 200 139 q 274 107 235 107 l 447 107 q 554 206 538 107 l 604 489 m 238 -268 l 267 -103 l 379 -103 l 350 -268 l 238 -268 z "},"Ỏ":{"ha":732,"x_min":93,"x_max":810,"o":"m 267 0 q 134 41 175 0 q 93 157 93 82 q 94 186 93 172 q 99 214 96 200 l 194 758 q 272 916 213 858 q 439 974 331 974 l 638 974 q 769 933 729 974 q 810 817 810 892 q 808 787 810 801 q 804 758 807 772 l 708 214 q 633 58 692 117 q 465 0 574 0 l 267 0 m 696 758 q 698 775 697 767 q 699 790 699 783 q 617 863 699 863 l 418 863 q 340 835 369 863 q 303 758 311 807 l 207 215 q 204 205 204 210 q 204 196 204 200 q 222 132 204 153 q 286 111 240 111 l 485 111 q 563 139 533 111 q 600 215 592 167 l 696 758 m 475 982 q 510 1063 485 1035 q 588 1092 536 1092 q 641 1112 618 1092 q 664 1171 664 1132 q 597 1226 664 1226 l 449 1226 l 465 1324 l 647 1324 q 767 1217 767 1324 q 723 1095 767 1138 q 617 1053 679 1053 q 565 1036 581 1053 q 543 982 550 1019 l 475 982 z "},"ỏ":{"ha":683,"x_min":93,"x_max":715,"o":"m 292 0 q 138 32 182 0 q 93 142 93 64 q 96 188 93 163 q 104 242 99 213 l 144 471 q 176 589 157 542 q 227 663 196 636 q 304 701 258 690 q 417 713 350 713 l 517 713 q 671 680 626 713 q 715 568 715 647 q 713 522 715 546 q 706 471 710 497 l 665 242 q 591 60 643 119 q 432 0 539 0 l 292 0 m 604 489 q 608 536 608 515 q 591 589 608 574 q 535 604 574 604 l 361 604 q 254 506 271 604 l 204 222 q 200 176 200 194 q 217 123 200 139 q 274 107 235 107 l 447 107 q 554 206 538 107 l 604 489 m 406 721 q 441 802 415 774 q 518 831 467 831 q 572 851 549 831 q 594 910 594 871 q 528 965 594 965 l 379 965 l 396 1063 l 578 1063 q 697 956 697 1063 q 653 834 697 876 q 547 792 610 792 q 496 775 511 792 q 474 721 481 758 l 406 721 z "},"Ố":{"ha":732,"x_min":93,"x_max":1033,"o":"m 267 0 q 134 41 175 0 q 93 157 93 82 q 94 186 93 172 q 99 214 96 200 l 194 758 q 272 916 213 858 q 439 974 331 974 l 638 974 q 769 933 729 974 q 810 817 810 892 q 808 787 810 801 q 804 758 807 772 l 708 214 q 633 58 692 117 q 465 0 574 0 l 267 0 m 696 758 q 698 775 697 767 q 699 790 699 783 q 617 863 699 863 l 418 863 q 340 835 369 863 q 303 758 311 807 l 207 215 q 204 205 204 210 q 204 196 204 200 q 222 132 204 153 q 286 111 240 111 l 485 111 q 563 139 533 111 q 600 215 592 167 l 696 758 m 783 1065 l 761 1099 l 1006 1249 l 1033 1194 l 783 1065 m 704 1065 l 571 1192 l 397 1065 l 372 1092 l 558 1249 l 606 1249 l 739 1092 l 704 1065 z "},"ố":{"ha":683,"x_min":93,"x_max":967,"o":"m 292 0 q 138 32 182 0 q 93 142 93 64 q 96 188 93 163 q 104 242 99 213 l 144 471 q 176 589 157 542 q 227 663 196 636 q 304 701 258 690 q 417 713 350 713 l 517 713 q 671 680 626 713 q 715 568 715 647 q 713 522 715 546 q 706 471 710 497 l 665 242 q 591 60 643 119 q 432 0 539 0 l 292 0 m 604 489 q 608 536 608 515 q 591 589 608 574 q 535 604 574 604 l 361 604 q 254 506 271 604 l 204 222 q 200 176 200 194 q 217 123 200 139 q 274 107 235 107 l 447 107 q 554 206 538 107 l 604 489 m 717 804 l 694 838 l 939 988 l 967 933 l 717 804 m 638 804 l 504 931 l 331 804 l 306 831 l 492 988 l 539 988 l 672 831 l 638 804 z "},"Ồ":{"ha":732,"x_min":93,"x_max":810,"o":"m 267 0 q 134 41 175 0 q 93 157 93 82 q 94 186 93 172 q 99 214 96 200 l 194 758 q 272 916 213 858 q 439 974 331 974 l 638 974 q 769 933 729 974 q 810 817 810 892 q 808 787 810 801 q 804 758 807 772 l 708 214 q 633 58 692 117 q 465 0 574 0 l 267 0 m 696 758 q 698 775 697 767 q 699 790 699 783 q 617 863 699 863 l 418 863 q 340 835 369 863 q 303 758 311 807 l 207 215 q 204 205 204 210 q 204 196 204 200 q 222 132 204 153 q 286 111 240 111 l 485 111 q 563 139 533 111 q 600 215 592 167 l 696 758 m 121 1194 l 168 1249 l 358 1099 l 326 1065 l 121 1194 m 713 1065 l 582 1192 l 404 1065 l 379 1092 l 568 1249 l 614 1249 l 746 1092 l 713 1065 z "},"ồ":{"ha":683,"x_min":46,"x_max":715,"o":"m 292 0 q 138 32 182 0 q 93 142 93 64 q 96 188 93 163 q 104 242 99 213 l 144 471 q 176 589 157 542 q 227 663 196 636 q 304 701 258 690 q 417 713 350 713 l 517 713 q 671 680 626 713 q 715 568 715 647 q 713 522 715 546 q 706 471 710 497 l 665 242 q 591 60 643 119 q 432 0 539 0 l 292 0 m 604 489 q 608 536 608 515 q 591 589 608 574 q 535 604 574 604 l 361 604 q 254 506 271 604 l 204 222 q 200 176 200 194 q 217 123 200 139 q 274 107 235 107 l 447 107 q 554 206 538 107 l 604 489 m 46 933 l 93 988 l 283 838 l 251 804 l 46 933 m 638 804 l 507 931 l 329 804 l 304 831 l 493 988 l 539 988 l 671 831 l 638 804 z "},"Ổ":{"ha":732,"x_min":93,"x_max":1008,"o":"m 267 0 q 134 41 175 0 q 93 157 93 82 q 94 186 93 172 q 99 214 96 200 l 194 758 q 272 916 213 858 q 439 974 331 974 l 638 974 q 769 933 729 974 q 810 817 810 892 q 808 787 810 801 q 804 758 807 772 l 708 214 q 633 58 692 117 q 465 0 574 0 l 267 0 m 696 758 q 698 775 697 767 q 699 790 699 783 q 617 863 699 863 l 418 863 q 340 835 369 863 q 303 758 311 807 l 207 215 q 204 205 204 210 q 204 196 204 200 q 222 132 204 153 q 286 111 240 111 l 485 111 q 563 139 533 111 q 600 215 592 167 l 696 758 m 804 1058 q 829 1116 811 1097 q 881 1135 847 1135 q 918 1150 901 1135 q 935 1189 935 1165 q 890 1226 935 1226 l 785 1226 l 797 1297 l 926 1297 q 1008 1221 1008 1297 q 978 1137 1008 1167 q 901 1107 949 1107 q 869 1096 879 1107 q 854 1058 860 1085 l 804 1058 m 711 1065 l 578 1192 l 404 1065 l 379 1092 l 565 1249 l 613 1249 l 746 1092 l 711 1065 z "},"ổ":{"ha":683,"x_min":93,"x_max":925,"o":"m 292 0 q 138 32 182 0 q 93 142 93 64 q 96 188 93 163 q 104 242 99 213 l 144 471 q 176 589 157 542 q 227 663 196 636 q 304 701 258 690 q 417 713 350 713 l 517 713 q 671 680 626 713 q 715 568 715 647 q 713 522 715 546 q 706 471 710 497 l 665 242 q 591 60 643 119 q 432 0 539 0 l 292 0 m 604 489 q 608 536 608 515 q 591 589 608 574 q 535 604 574 604 l 361 604 q 254 506 271 604 l 204 222 q 200 176 200 194 q 217 123 200 139 q 274 107 235 107 l 447 107 q 554 206 538 107 l 604 489 m 721 797 q 746 855 728 836 q 797 874 764 874 q 835 889 818 874 q 851 928 851 904 q 807 965 851 965 l 701 965 l 714 1036 l 843 1036 q 925 960 925 1036 q 895 876 925 906 q 818 846 865 846 q 786 835 796 846 q 771 797 776 824 l 721 797 m 628 804 l 494 931 l 321 804 l 296 831 l 482 988 l 529 988 l 663 831 l 628 804 z "},"Ỗ":{"ha":732,"x_min":93,"x_max":813,"o":"m 267 0 q 134 41 175 0 q 93 157 93 82 q 94 186 93 172 q 99 214 96 200 l 194 758 q 272 916 213 858 q 439 974 331 974 l 638 974 q 769 933 729 974 q 810 817 810 892 q 808 787 810 801 q 804 758 807 772 l 708 214 q 633 58 692 117 q 465 0 574 0 l 267 0 m 696 758 q 698 775 697 767 q 699 790 699 783 q 617 863 699 863 l 418 863 q 340 835 369 863 q 303 758 311 807 l 207 215 q 204 205 204 210 q 204 196 204 200 q 222 132 204 153 q 286 111 240 111 l 485 111 q 563 139 533 111 q 600 215 592 167 l 696 758 m 722 990 l 563 1119 l 356 990 l 328 1017 l 544 1178 l 597 1178 l 760 1017 l 722 990 m 813 1286 q 759 1221 797 1249 q 672 1193 721 1193 q 619 1201 640 1193 q 578 1220 597 1210 q 540 1240 560 1231 q 493 1249 521 1249 q 447 1238 474 1249 q 404 1192 421 1226 l 360 1214 q 413 1278 375 1250 q 504 1306 451 1306 q 556 1297 535 1306 q 597 1277 578 1288 q 635 1258 615 1267 q 682 1249 654 1249 q 726 1263 703 1249 q 765 1308 750 1276 l 813 1286 z "},"ỗ":{"ha":683,"x_min":93,"x_max":742,"o":"m 292 0 q 138 32 182 0 q 93 142 93 64 q 96 188 93 163 q 104 242 99 213 l 144 471 q 176 589 157 542 q 227 663 196 636 q 304 701 258 690 q 417 713 350 713 l 517 713 q 671 680 626 713 q 715 568 715 647 q 713 522 715 546 q 706 471 710 497 l 665 242 q 591 60 643 119 q 432 0 539 0 l 292 0 m 604 489 q 608 536 608 515 q 591 589 608 574 q 535 604 574 604 l 361 604 q 254 506 271 604 l 204 222 q 200 176 200 194 q 217 123 200 139 q 274 107 235 107 l 447 107 q 554 206 538 107 l 604 489 m 651 729 l 492 858 l 285 729 l 257 756 l 474 917 l 526 917 l 689 756 l 651 729 m 742 1025 q 688 960 726 988 q 601 932 650 932 q 548 940 569 932 q 508 959 526 949 q 469 978 489 969 q 422 988 450 988 q 376 976 403 988 q 333 931 350 965 l 289 953 q 342 1017 304 989 q 433 1044 381 1044 q 485 1035 464 1044 q 526 1016 507 1026 q 564 997 544 1006 q 611 988 583 988 q 656 1001 632 988 q 694 1047 679 1015 l 742 1025 z "},"Ộ":{"ha":732,"x_min":93,"x_max":813,"o":"m 267 0 q 134 41 175 0 q 93 157 93 82 q 94 186 93 172 q 99 214 96 200 l 194 758 q 272 916 213 858 q 439 974 331 974 l 638 974 q 769 933 729 974 q 810 817 810 892 q 808 787 810 801 q 804 758 807 772 l 708 214 q 633 58 692 117 q 465 0 574 0 l 267 0 m 696 758 q 698 775 697 767 q 699 790 699 783 q 617 863 699 863 l 418 863 q 340 835 369 863 q 303 758 311 807 l 207 215 q 204 205 204 210 q 204 196 204 200 q 222 132 204 153 q 286 111 240 111 l 485 111 q 563 139 533 111 q 600 215 592 167 l 696 758 m 768 1033 l 578 1208 l 328 1033 l 294 1067 l 561 1283 l 624 1283 l 813 1067 l 768 1033 m 263 -268 l 292 -103 l 404 -103 l 375 -268 l 263 -268 z "},"ộ":{"ha":683,"x_min":93,"x_max":742,"o":"m 292 0 q 138 32 182 0 q 93 142 93 64 q 96 188 93 163 q 104 242 99 213 l 144 471 q 176 589 157 542 q 227 663 196 636 q 304 701 258 690 q 417 713 350 713 l 517 713 q 671 680 626 713 q 715 568 715 647 q 713 522 715 546 q 706 471 710 497 l 665 242 q 591 60 643 119 q 432 0 539 0 l 292 0 m 604 489 q 608 536 608 515 q 591 589 608 574 q 535 604 574 604 l 361 604 q 254 506 271 604 l 204 222 q 200 176 200 194 q 217 123 200 139 q 274 107 235 107 l 447 107 q 554 206 538 107 l 604 489 m 697 772 l 507 947 l 257 772 l 224 806 l 490 1022 l 553 1022 l 742 806 l 697 772 m 238 -268 l 267 -103 l 379 -103 l 350 -268 l 238 -268 z "},"Ớ":{"ha":903,"x_min":93,"x_max":1085,"o":"m 267 0 q 134 41 175 0 q 93 157 93 82 q 94 186 93 172 q 99 214 96 200 l 194 758 q 272 916 213 858 q 439 974 331 974 l 638 974 q 744 947 706 974 q 797 875 782 919 q 837 809 815 822 q 879 796 858 796 q 937 815 913 796 q 971 889 961 835 l 994 1022 l 1085 1022 l 1058 874 q 1006 760 1044 794 q 908 726 967 726 q 854 738 881 726 q 808 785 828 749 l 708 214 q 633 58 692 117 q 465 0 574 0 l 267 0 m 696 758 q 698 772 697 765 q 699 786 699 779 q 617 863 699 863 l 418 863 q 340 835 369 863 q 303 758 311 807 l 207 215 q 205 201 206 208 q 204 188 204 194 q 286 111 204 111 l 485 111 q 563 139 533 111 q 600 215 592 167 l 696 758 m 451 1033 l 431 1069 l 785 1283 l 814 1228 l 451 1033 z "},"ớ":{"ha":817,"x_min":92,"x_max":965,"o":"m 251 0 q 92 143 92 0 q 93 172 92 157 q 97 203 94 186 l 151 510 q 376 713 188 713 l 557 713 q 693 653 663 713 q 724 611 708 621 q 758 601 740 601 q 816 620 792 601 q 850 694 840 639 l 874 828 l 965 828 l 939 679 q 887 566 925 600 q 790 532 849 532 q 751 538 769 532 q 718 560 733 543 q 716 536 717 549 q 713 510 715 524 l 658 203 q 432 0 622 0 l 251 0 m 607 506 q 609 522 608 514 q 610 536 610 529 q 535 604 610 604 l 361 604 q 254 506 271 604 l 201 206 q 199 190 200 197 q 199 176 199 183 q 274 107 199 107 l 447 107 q 554 206 538 107 l 607 506 m 367 772 l 346 808 l 700 1022 l 729 967 l 367 772 z "},"Ờ":{"ha":903,"x_min":93,"x_max":1085,"o":"m 267 0 q 134 41 175 0 q 93 157 93 82 q 94 186 93 172 q 99 214 96 200 l 194 758 q 272 916 213 858 q 439 974 331 974 l 638 974 q 744 947 706 974 q 797 875 782 919 q 837 809 815 822 q 879 796 858 796 q 937 815 913 796 q 971 889 961 835 l 994 1022 l 1085 1022 l 1058 874 q 1006 760 1044 794 q 908 726 967 726 q 854 738 881 726 q 808 785 828 749 l 708 214 q 633 58 692 117 q 465 0 574 0 l 267 0 m 696 758 q 698 772 697 765 q 699 786 699 779 q 617 863 699 863 l 418 863 q 340 835 369 863 q 303 758 311 807 l 207 215 q 205 201 206 208 q 204 188 204 194 q 286 111 204 111 l 485 111 q 563 139 533 111 q 600 215 592 167 l 696 758 m 365 1228 l 414 1283 l 693 1069 l 658 1033 l 365 1228 z "},"ờ":{"ha":817,"x_min":92,"x_max":965,"o":"m 251 0 q 92 143 92 0 q 93 172 92 157 q 97 203 94 186 l 151 510 q 376 713 188 713 l 557 713 q 693 653 663 713 q 724 611 708 621 q 758 601 740 601 q 816 620 792 601 q 850 694 840 639 l 874 828 l 965 828 l 939 679 q 887 566 925 600 q 790 532 849 532 q 751 538 769 532 q 718 560 733 543 q 716 536 717 549 q 713 510 715 524 l 658 203 q 432 0 622 0 l 251 0 m 607 506 q 609 522 608 514 q 610 536 610 529 q 535 604 610 604 l 361 604 q 254 506 271 604 l 201 206 q 199 190 200 197 q 199 176 199 183 q 274 107 199 107 l 447 107 q 554 206 538 107 l 607 506 m 300 967 l 349 1022 l 628 808 l 593 772 l 300 967 z "},"Ở":{"ha":903,"x_min":93,"x_max":1085,"o":"m 267 0 q 134 41 175 0 q 93 157 93 82 q 94 186 93 172 q 99 214 96 200 l 194 758 q 272 916 213 858 q 439 974 331 974 l 638 974 q 744 947 706 974 q 797 875 782 919 q 837 809 815 822 q 879 796 858 796 q 937 815 913 796 q 971 889 961 835 l 994 1022 l 1085 1022 l 1058 874 q 1006 760 1044 794 q 908 726 967 726 q 854 738 881 726 q 808 785 828 749 l 708 214 q 633 58 692 117 q 465 0 574 0 l 267 0 m 696 758 q 698 772 697 765 q 699 786 699 779 q 617 863 699 863 l 418 863 q 340 835 369 863 q 303 758 311 807 l 207 215 q 205 201 206 208 q 204 188 204 194 q 286 111 204 111 l 485 111 q 563 139 533 111 q 600 215 592 167 l 696 758 m 464 982 q 499 1063 474 1035 q 576 1092 525 1092 q 630 1112 607 1092 q 653 1171 653 1132 q 586 1226 653 1226 l 438 1226 l 454 1324 l 636 1324 q 756 1217 756 1324 q 712 1095 756 1138 q 606 1053 668 1053 q 554 1036 569 1053 q 532 982 539 1019 l 464 982 z "},"ở":{"ha":817,"x_min":92,"x_max":965,"o":"m 251 0 q 92 143 92 0 q 93 172 92 157 q 97 203 94 186 l 151 510 q 376 713 188 713 l 557 713 q 693 653 663 713 q 724 611 708 621 q 758 601 740 601 q 816 620 792 601 q 850 694 840 639 l 874 828 l 965 828 l 939 679 q 887 566 925 600 q 790 532 849 532 q 751 538 769 532 q 718 560 733 543 q 716 536 717 549 q 713 510 715 524 l 658 203 q 432 0 622 0 l 251 0 m 607 506 q 609 522 608 514 q 610 536 610 529 q 535 604 610 604 l 361 604 q 254 506 271 604 l 201 206 q 199 190 200 197 q 199 176 199 183 q 274 107 199 107 l 447 107 q 554 206 538 107 l 607 506 m 414 721 q 449 802 424 774 q 526 831 475 831 q 580 851 557 831 q 603 910 603 871 q 536 965 603 965 l 388 965 l 404 1063 l 586 1063 q 706 956 706 1063 q 662 834 706 876 q 556 792 618 792 q 504 775 519 792 q 482 721 489 758 l 414 721 z "},"Ỡ":{"ha":903,"x_min":93,"x_max":1085,"o":"m 267 0 q 134 41 175 0 q 93 157 93 82 q 94 186 93 172 q 99 214 96 200 l 194 758 q 272 916 213 858 q 439 974 331 974 l 638 974 q 744 947 706 974 q 797 875 782 919 q 837 809 815 822 q 879 796 858 796 q 937 815 913 796 q 971 889 961 835 l 994 1022 l 1085 1022 l 1058 874 q 1006 760 1044 794 q 908 726 967 726 q 854 738 881 726 q 808 785 828 749 l 708 214 q 633 58 692 117 q 465 0 574 0 l 267 0 m 696 758 q 698 772 697 765 q 699 786 699 779 q 617 863 699 863 l 418 863 q 340 835 369 863 q 303 758 311 807 l 207 215 q 205 201 206 208 q 204 188 204 194 q 286 111 204 111 l 485 111 q 563 139 533 111 q 600 215 592 167 l 696 758 m 839 1201 q 777 1120 819 1156 q 672 1085 735 1085 q 608 1095 633 1085 q 560 1119 582 1106 q 515 1142 538 1132 q 458 1153 492 1153 q 398 1136 424 1153 q 354 1082 372 1119 l 303 1111 q 365 1191 322 1157 q 469 1225 407 1225 q 534 1215 507 1225 q 584 1192 561 1204 q 630 1169 607 1179 q 683 1158 653 1158 q 785 1231 754 1158 l 839 1201 z "},"ỡ":{"ha":817,"x_min":92,"x_max":965,"o":"m 251 0 q 92 143 92 0 q 93 172 92 157 q 97 203 94 186 l 151 510 q 376 713 188 713 l 557 713 q 693 653 663 713 q 724 611 708 621 q 758 601 740 601 q 816 620 792 601 q 850 694 840 639 l 874 828 l 965 828 l 939 679 q 887 566 925 600 q 790 532 849 532 q 751 538 769 532 q 718 560 733 543 q 716 536 717 549 q 713 510 715 524 l 658 203 q 432 0 622 0 l 251 0 m 607 506 q 609 522 608 514 q 610 536 610 529 q 535 604 610 604 l 361 604 q 254 506 271 604 l 201 206 q 199 190 200 197 q 199 176 199 183 q 274 107 199 107 l 447 107 q 554 206 538 107 l 607 506 m 792 940 q 730 859 772 894 q 625 824 688 824 q 560 834 586 824 q 513 858 535 844 q 467 881 490 871 q 411 892 444 892 q 351 875 376 892 q 307 821 325 858 l 256 850 q 317 930 275 896 q 422 964 360 964 q 487 953 460 964 q 537 931 514 943 q 583 908 560 918 q 636 897 606 897 q 738 969 707 897 l 792 940 z "},"Ợ":{"ha":903,"x_min":93,"x_max":1085,"o":"m 267 0 q 134 41 175 0 q 93 157 93 82 q 94 186 93 172 q 99 214 96 200 l 194 758 q 272 916 213 858 q 439 974 331 974 l 638 974 q 744 947 706 974 q 797 875 782 919 q 837 809 815 822 q 879 796 858 796 q 937 815 913 796 q 971 889 961 835 l 994 1022 l 1085 1022 l 1058 874 q 1006 760 1044 794 q 908 726 967 726 q 854 738 881 726 q 808 785 828 749 l 708 214 q 633 58 692 117 q 465 0 574 0 l 267 0 m 696 758 q 698 772 697 765 q 699 786 699 779 q 617 863 699 863 l 418 863 q 340 835 369 863 q 303 758 311 807 l 207 215 q 205 201 206 208 q 204 188 204 194 q 286 111 204 111 l 485 111 q 563 139 533 111 q 600 215 592 167 l 696 758 m 265 -268 l 294 -103 l 407 -103 l 378 -268 l 265 -268 z "},"ợ":{"ha":817,"x_min":92,"x_max":965,"o":"m 251 0 q 92 143 92 0 q 93 172 92 157 q 97 203 94 186 l 151 510 q 376 713 188 713 l 557 713 q 693 653 663 713 q 724 611 708 621 q 758 601 740 601 q 816 620 792 601 q 850 694 840 639 l 874 828 l 965 828 l 939 679 q 887 566 925 600 q 790 532 849 532 q 751 538 769 532 q 718 560 733 543 q 716 536 717 549 q 713 510 715 524 l 658 203 q 432 0 622 0 l 251 0 m 607 506 q 609 522 608 514 q 610 536 610 529 q 535 604 610 604 l 361 604 q 254 506 271 604 l 201 206 q 199 190 200 197 q 199 176 199 183 q 274 107 199 107 l 447 107 q 554 206 538 107 l 607 506 m 236 -268 l 265 -103 l 378 -103 l 349 -268 l 236 -268 z "},"Ụ":{"ha":725,"x_min":99,"x_max":833,"o":"m 297 0 q 99 171 99 0 q 101 201 99 185 q 106 238 103 218 l 236 974 l 344 974 l 214 238 q 210 201 210 217 q 314 111 210 111 l 451 111 q 594 238 572 111 l 725 974 l 833 974 l 703 238 q 428 0 661 0 l 297 0 m 258 -268 l 288 -103 l 400 -103 l 371 -268 l 258 -268 z "},"ụ":{"ha":686,"x_min":94,"x_max":743,"o":"m 517 0 l 532 86 q 467 19 504 38 q 369 0 431 0 l 225 0 q 94 140 94 0 q 103 218 94 174 l 189 713 l 292 713 l 206 224 q 201 185 201 200 q 271 107 201 107 l 435 107 q 516 136 489 107 q 554 225 543 165 l 639 713 l 743 713 l 618 0 l 517 0 m 239 -268 l 268 -103 l 381 -103 l 351 -268 l 239 -268 z "},"Ủ":{"ha":725,"x_min":99,"x_max":833,"o":"m 297 0 q 99 171 99 0 q 101 201 99 185 q 106 238 103 218 l 236 974 l 344 974 l 214 238 q 210 201 210 217 q 314 111 210 111 l 451 111 q 594 238 572 111 l 725 974 l 833 974 l 703 238 q 428 0 661 0 l 297 0 m 465 982 q 501 1063 475 1035 q 578 1092 526 1092 q 631 1112 608 1092 q 654 1171 654 1132 q 588 1226 654 1226 l 439 1226 l 456 1324 l 638 1324 q 757 1217 757 1324 q 713 1095 757 1138 q 607 1053 669 1053 q 556 1036 571 1053 q 533 982 540 1019 l 465 982 z "},"ủ":{"ha":686,"x_min":94,"x_max":743,"o":"m 517 0 l 532 86 q 467 19 504 38 q 369 0 431 0 l 225 0 q 94 140 94 0 q 103 218 94 174 l 189 713 l 292 713 l 206 224 q 201 185 201 200 q 271 107 201 107 l 435 107 q 516 136 489 107 q 554 225 543 165 l 639 713 l 743 713 l 618 0 l 517 0 m 393 721 q 428 802 403 774 q 506 831 454 831 q 559 851 536 831 q 582 910 582 871 q 515 965 582 965 l 367 965 l 383 1063 l 565 1063 q 685 956 685 1063 q 641 834 685 876 q 535 792 597 792 q 483 775 499 792 q 461 721 468 758 l 393 721 z "},"Ứ":{"ha":900,"x_min":99,"x_max":1097,"o":"m 297 0 q 99 171 99 0 q 101 201 99 185 q 106 238 103 218 l 236 974 l 344 974 l 214 238 q 210 201 210 217 q 314 111 210 111 l 451 111 q 594 238 572 111 l 725 974 l 833 974 l 815 878 q 853 810 833 824 q 894 796 874 796 q 949 816 926 796 q 982 889 972 836 l 1006 1022 l 1097 1022 l 1071 874 q 1018 760 1057 794 q 921 726 979 726 q 858 743 888 726 q 806 815 828 760 l 703 238 q 428 0 661 0 l 297 0 m 442 1033 l 421 1069 l 775 1283 l 804 1228 l 442 1033 z "},"ứ":{"ha":850,"x_min":94,"x_max":1011,"o":"m 517 0 l 532 86 q 467 19 504 38 q 369 0 431 0 l 225 0 q 94 140 94 0 q 103 218 94 174 l 189 713 l 292 713 l 206 224 q 201 185 201 200 q 271 107 201 107 l 435 107 q 516 136 489 107 q 554 225 543 165 l 639 713 l 743 713 l 736 668 q 769 613 751 625 q 808 601 788 601 q 863 622 840 601 q 896 694 886 642 l 919 828 l 1011 828 l 985 679 q 933 566 971 600 q 836 532 894 532 q 776 546 804 532 q 725 608 747 560 l 618 0 l 517 0 m 378 772 l 357 808 l 711 1022 l 740 967 l 378 772 z "},"Ừ":{"ha":900,"x_min":99,"x_max":1097,"o":"m 297 0 q 99 171 99 0 q 101 201 99 185 q 106 238 103 218 l 236 974 l 344 974 l 214 238 q 210 201 210 217 q 314 111 210 111 l 451 111 q 594 238 572 111 l 725 974 l 833 974 l 815 878 q 853 810 833 824 q 894 796 874 796 q 949 816 926 796 q 982 889 972 836 l 1006 1022 l 1097 1022 l 1071 874 q 1018 760 1057 794 q 921 726 979 726 q 858 743 888 726 q 806 815 828 760 l 703 238 q 428 0 661 0 l 297 0 m 364 1228 l 413 1283 l 692 1069 l 657 1033 l 364 1228 z "},"ừ":{"ha":850,"x_min":94,"x_max":1011,"o":"m 517 0 l 532 86 q 467 19 504 38 q 369 0 431 0 l 225 0 q 94 140 94 0 q 103 218 94 174 l 189 713 l 292 713 l 206 224 q 201 185 201 200 q 271 107 201 107 l 435 107 q 516 136 489 107 q 554 225 543 165 l 639 713 l 743 713 l 736 668 q 769 613 751 625 q 808 601 788 601 q 863 622 840 601 q 896 694 886 642 l 919 828 l 1011 828 l 985 679 q 933 566 971 600 q 836 532 894 532 q 776 546 804 532 q 725 608 747 560 l 618 0 l 517 0 m 294 967 l 343 1022 l 622 808 l 588 772 l 294 967 z "},"Ử":{"ha":900,"x_min":99,"x_max":1097,"o":"m 297 0 q 99 171 99 0 q 101 201 99 185 q 106 238 103 218 l 236 974 l 344 974 l 214 238 q 210 201 210 217 q 314 111 210 111 l 451 111 q 594 238 572 111 l 725 974 l 833 974 l 815 878 q 853 810 833 824 q 894 796 874 796 q 949 816 926 796 q 982 889 972 836 l 1006 1022 l 1097 1022 l 1071 874 q 1018 760 1057 794 q 921 726 979 726 q 858 743 888 726 q 806 815 828 760 l 703 238 q 428 0 661 0 l 297 0 m 476 982 q 512 1063 486 1035 q 589 1092 538 1092 q 642 1112 619 1092 q 665 1171 665 1132 q 599 1226 665 1226 l 450 1226 l 467 1324 l 649 1324 q 768 1217 768 1324 q 724 1095 768 1138 q 618 1053 681 1053 q 567 1036 582 1053 q 544 982 551 1019 l 476 982 z "},"ử":{"ha":850,"x_min":94,"x_max":1011,"o":"m 517 0 l 532 86 q 467 19 504 38 q 369 0 431 0 l 225 0 q 94 140 94 0 q 103 218 94 174 l 189 713 l 292 713 l 206 224 q 201 185 201 200 q 271 107 201 107 l 435 107 q 516 136 489 107 q 554 225 543 165 l 639 713 l 743 713 l 736 668 q 769 613 751 625 q 808 601 788 601 q 863 622 840 601 q 896 694 886 642 l 919 828 l 1011 828 l 985 679 q 933 566 971 600 q 836 532 894 532 q 776 546 804 532 q 725 608 747 560 l 618 0 l 517 0 m 419 721 q 455 802 429 774 q 532 831 481 831 q 585 851 563 831 q 608 910 608 871 q 542 965 608 965 l 393 965 l 410 1063 l 592 1063 q 711 956 711 1063 q 667 834 711 876 q 561 792 624 792 q 510 775 525 792 q 488 721 494 758 l 419 721 z "},"Ữ":{"ha":900,"x_min":99,"x_max":1097,"o":"m 297 0 q 99 171 99 0 q 101 201 99 185 q 106 238 103 218 l 236 974 l 344 974 l 214 238 q 210 201 210 217 q 314 111 210 111 l 451 111 q 594 238 572 111 l 725 974 l 833 974 l 815 878 q 853 810 833 824 q 894 796 874 796 q 949 816 926 796 q 982 889 972 836 l 1006 1022 l 1097 1022 l 1071 874 q 1018 760 1057 794 q 921 726 979 726 q 858 743 888 726 q 806 815 828 760 l 703 238 q 428 0 661 0 l 297 0 m 824 1201 q 762 1120 804 1156 q 657 1085 719 1085 q 592 1095 618 1085 q 544 1119 567 1106 q 499 1142 522 1132 q 443 1153 476 1153 q 383 1136 408 1153 q 339 1082 357 1119 l 288 1111 q 349 1191 307 1157 q 454 1225 392 1225 q 519 1215 492 1225 q 569 1192 546 1204 q 615 1169 592 1179 q 668 1158 638 1158 q 769 1231 739 1158 l 824 1201 z "},"ữ":{"ha":850,"x_min":94,"x_max":1011,"o":"m 517 0 l 532 86 q 467 19 504 38 q 369 0 431 0 l 225 0 q 94 140 94 0 q 103 218 94 174 l 189 713 l 292 713 l 206 224 q 201 185 201 200 q 271 107 201 107 l 435 107 q 516 136 489 107 q 554 225 543 165 l 639 713 l 743 713 l 736 668 q 769 613 751 625 q 808 601 788 601 q 863 622 840 601 q 896 694 886 642 l 919 828 l 1011 828 l 985 679 q 933 566 971 600 q 836 532 894 532 q 776 546 804 532 q 725 608 747 560 l 618 0 l 517 0 m 767 940 q 705 859 747 894 q 600 824 663 824 q 535 834 561 824 q 488 858 510 844 q 442 881 465 871 q 386 892 419 892 q 326 875 351 892 q 282 821 300 858 l 231 850 q 292 930 250 896 q 397 964 335 964 q 462 953 435 964 q 512 931 489 943 q 558 908 535 918 q 611 897 581 897 q 713 969 682 897 l 767 940 z "},"Ự":{"ha":900,"x_min":99,"x_max":1097,"o":"m 297 0 q 99 171 99 0 q 101 201 99 185 q 106 238 103 218 l 236 974 l 344 974 l 214 238 q 210 201 210 217 q 314 111 210 111 l 451 111 q 594 238 572 111 l 725 974 l 833 974 l 815 878 q 853 810 833 824 q 894 796 874 796 q 949 816 926 796 q 982 889 972 836 l 1006 1022 l 1097 1022 l 1071 874 q 1018 760 1057 794 q 921 726 979 726 q 858 743 888 726 q 806 815 828 760 l 703 238 q 428 0 661 0 l 297 0 m 263 -268 l 292 -103 l 404 -103 l 375 -268 l 263 -268 z "},"ự":{"ha":850,"x_min":94,"x_max":1011,"o":"m 517 0 l 532 86 q 467 19 504 38 q 369 0 431 0 l 225 0 q 94 140 94 0 q 103 218 94 174 l 189 713 l 292 713 l 206 224 q 201 185 201 200 q 271 107 201 107 l 435 107 q 516 136 489 107 q 554 225 543 165 l 639 713 l 743 713 l 736 668 q 769 613 751 625 q 808 601 788 601 q 863 622 840 601 q 896 694 886 642 l 919 828 l 1011 828 l 985 679 q 933 566 971 600 q 836 532 894 532 q 776 546 804 532 q 725 608 747 560 l 618 0 l 517 0 m 238 -268 l 267 -103 l 379 -103 l 350 -268 l 238 -268 z "},"Ỳ":{"ha":682,"x_min":189,"x_max":838,"o":"m 285 0 l 364 449 l 189 974 l 307 974 l 444 565 l 728 974 l 838 974 l 472 449 l 393 0 l 285 0 m 338 1228 l 386 1283 l 665 1069 l 631 1033 l 338 1228 z "},"ỳ":{"ha":667,"x_min":107,"x_max":725,"o":"m 151 -221 l 168 -122 l 369 -122 q 451 -90 418 -122 q 496 4 485 -58 l 506 63 l 283 63 q 107 217 107 63 q 109 247 107 232 q 114 281 111 263 l 189 713 l 293 713 l 217 276 q 213 242 213 257 q 304 160 213 160 l 522 160 l 619 713 l 725 713 l 601 8 q 363 -221 561 -221 l 151 -221 m 285 967 l 333 1022 l 613 808 l 578 772 l 285 967 z "},"–":{"ha":783,"x_min":122,"x_max":831,"o":"m 122 439 l 135 511 l 831 511 l 818 439 l 122 439 z "},"—":{"ha":1089,"x_min":122,"x_max":1135,"o":"m 122 439 l 135 511 l 1135 511 l 1122 439 l 122 439 z "},"‘":{"ha":272,"x_min":185,"x_max":371,"o":"m 185 636 l 293 974 l 371 974 l 297 636 l 185 636 z "},"’":{"ha":272,"x_min":185,"x_max":371,"o":"m 185 636 l 258 974 l 371 974 l 263 636 l 185 636 z "},"‚":{"ha":272,"x_min":50,"x_max":235,"o":"m 50 -129 l 122 208 l 235 208 l 128 -129 l 50 -129 z "},"“":{"ha":544,"x_min":185,"x_max":643,"o":"m 185 636 l 293 974 l 371 974 l 297 636 l 185 636 m 457 636 l 565 974 l 643 974 l 569 636 l 457 636 z "},"”":{"ha":544,"x_min":185,"x_max":643,"o":"m 185 636 l 258 974 l 371 974 l 263 636 l 185 636 m 457 636 l 531 974 l 643 974 l 535 636 l 457 636 z "},"„":{"ha":544,"x_min":50,"x_max":507,"o":"m 50 -129 l 122 208 l 235 208 l 128 -129 l 50 -129 m 322 -129 l 394 208 l 507 208 l 400 -129 l 322 -129 z "},"†":{"ha":692,"x_min":196,"x_max":764,"o":"m 313 -1 l 440 726 l 196 726 l 208 793 l 453 793 l 485 974 l 561 974 l 529 793 l 764 793 l 751 726 l 517 726 l 389 -1 l 313 -1 z "},"‡":{"ha":692,"x_min":100,"x_max":764,"o":"m 421 182 l 389 -1 l 313 -1 l 344 182 l 100 182 l 113 249 l 357 249 l 440 726 l 196 726 l 208 793 l 453 793 l 485 974 l 561 974 l 529 793 l 764 793 l 751 726 l 517 726 l 433 249 l 668 249 l 656 182 l 421 182 z "},"•":{"ha":414,"x_min":157,"x_max":435,"o":"m 296 346 q 197 386 236 346 q 157 488 157 426 q 167 542 157 517 q 197 587 178 568 q 241 617 215 606 q 296 628 267 628 q 350 617 325 628 q 394 587 375 606 q 424 542 413 568 q 435 488 435 517 q 424 431 435 457 q 394 385 413 404 q 350 356 375 367 q 296 346 325 346 z "},"…":{"ha":1285,"x_min":75,"x_max":1244,"o":"m 75 0 l 111 208 l 217 208 l 181 0 l 75 0 m 589 0 l 625 208 l 731 208 l 694 0 l 589 0 m 1103 0 l 1139 208 l 1244 208 l 1208 0 l 1103 0 z "},"‰":{"ha":1418,"x_min":53,"x_max":1425,"o":"m 293 501 q 215 569 215 501 q 216 583 215 576 q 218 599 217 590 l 269 890 q 303 962 278 936 q 378 988 329 988 l 499 988 q 576 919 576 988 q 576 905 576 913 q 574 890 575 897 l 522 599 q 488 527 514 553 q 414 501 463 501 l 293 501 m 518 881 q 519 888 518 883 q 519 894 519 892 q 478 932 519 932 l 379 932 q 322 881 331 932 l 274 608 q 272 594 272 604 q 314 557 272 557 l 413 557 q 469 608 460 557 l 518 881 m 53 -44 l 1079 1024 l 1183 1024 l 157 -44 l 53 -44 m 735 -14 q 657 54 657 -14 q 658 68 657 61 q 660 83 658 75 l 711 375 q 745 447 719 421 q 819 472 771 472 l 940 472 q 1018 404 1018 472 q 1017 390 1018 397 q 1015 375 1017 382 l 964 83 q 930 12 956 38 q 856 -14 904 -14 l 735 -14 m 960 365 q 960 372 960 368 q 961 379 961 376 q 919 417 961 417 l 821 417 q 764 365 772 417 l 715 93 q 714 79 714 89 q 756 42 714 42 l 854 42 q 911 93 901 42 l 960 365 m 1142 -14 q 1064 54 1064 -14 q 1065 68 1064 61 q 1067 83 1065 75 l 1118 375 q 1152 447 1126 421 q 1226 472 1178 472 l 1347 472 q 1425 404 1425 472 q 1424 390 1425 397 q 1422 375 1424 382 l 1371 83 q 1337 12 1363 38 q 1263 -14 1311 -14 l 1142 -14 m 1367 365 q 1367 372 1367 368 q 1368 379 1368 376 q 1326 417 1368 417 l 1228 417 q 1171 365 1179 417 l 1122 93 q 1121 79 1121 89 q 1163 42 1121 42 l 1261 42 q 1318 93 1308 42 l 1367 365 z "},"‹":{"ha":411,"x_min":119,"x_max":497,"o":"m 315 125 l 119 458 l 432 790 l 497 719 l 247 458 l 406 194 l 315 125 z "},"›":{"ha":411,"x_min":75,"x_max":453,"o":"m 75 196 l 325 458 l 167 719 l 258 790 l 453 458 l 142 125 l 75 196 z "},"⁄":{"ha":292,"x_min":-333,"x_max":797,"o":"m -333 -44 l 693 1024 l 797 1024 l -229 -44 l -333 -44 z "},"⁰":{"ha":407,"x_min":153,"x_max":514,"o":"m 231 501 q 153 569 153 501 q 153 583 153 576 q 156 599 154 590 l 207 890 q 241 962 215 936 q 315 988 267 988 l 436 988 q 514 919 514 988 q 513 905 514 913 q 511 890 513 897 l 460 599 q 426 527 451 553 q 351 501 400 501 l 231 501 m 456 881 q 456 888 456 883 q 457 894 457 892 q 415 932 457 932 l 317 932 q 260 881 268 932 l 211 608 q 210 594 210 604 q 251 557 210 557 l 350 557 q 407 608 397 557 l 456 881 z "},"⁴":{"ha":381,"x_min":140,"x_max":474,"o":"m 336 501 l 351 589 l 140 589 l 147 632 l 410 988 l 474 988 l 413 636 l 450 636 l 442 589 l 404 589 l 389 501 l 336 501 m 408 911 l 200 636 l 360 636 l 408 911 z "},"⁵":{"ha":394,"x_min":154,"x_max":508,"o":"m 240 501 q 154 574 154 501 q 155 587 154 581 q 157 600 156 593 l 167 653 l 219 653 l 210 601 q 209 597 210 599 q 208 592 208 594 q 250 556 208 556 l 333 556 q 394 613 383 556 l 407 683 q 408 692 407 688 q 408 699 408 696 q 367 738 408 738 l 186 738 l 229 988 l 508 988 l 499 932 l 268 932 l 243 786 l 379 786 q 464 711 464 786 q 463 697 464 704 q 461 683 463 690 l 449 613 q 324 501 429 501 l 240 501 z "},"⁶":{"ha":394,"x_min":154,"x_max":499,"o":"m 246 501 q 154 581 154 501 q 158 615 154 596 l 206 881 q 331 988 225 988 l 410 988 q 499 913 499 988 q 499 899 499 906 q 497 886 499 893 l 488 836 l 435 836 l 444 886 l 444 896 q 400 932 444 932 l 321 932 q 260 881 268 932 l 242 776 l 381 776 q 463 711 463 776 q 462 697 463 704 q 460 681 461 689 l 447 608 q 325 501 428 501 l 246 501 m 407 681 q 408 696 408 685 q 368 729 408 729 l 233 729 l 213 615 q 211 599 211 611 q 256 556 211 556 l 335 556 q 394 610 383 556 l 407 681 z "},"⁷":{"ha":354,"x_min":157,"x_max":499,"o":"m 157 501 l 411 933 l 210 933 l 218 988 l 499 988 l 217 501 l 157 501 z "},"⁸":{"ha":397,"x_min":156,"x_max":497,"o":"m 249 501 q 176 524 196 501 q 156 594 156 547 q 156 604 156 600 q 158 615 156 608 l 168 665 q 194 724 175 701 q 240 751 214 747 q 201 806 201 757 q 202 818 201 811 q 204 832 203 825 l 215 897 q 332 988 231 988 l 408 988 q 497 921 497 988 q 497 909 497 914 q 494 897 496 904 l 483 832 q 417 751 471 760 q 450 731 438 747 q 463 686 463 714 q 463 676 463 682 q 461 665 463 671 l 451 615 q 322 501 429 501 l 249 501 m 407 668 l 407 679 q 358 729 407 729 l 293 729 q 245 713 263 729 q 222 668 228 696 l 213 617 q 211 600 211 613 q 261 557 211 557 l 328 557 q 397 617 385 557 l 407 668 m 440 879 q 441 886 440 882 q 442 893 442 890 q 399 932 442 932 l 322 932 q 263 879 271 932 l 253 824 q 251 810 251 819 q 294 771 251 771 l 371 771 q 412 785 397 771 q 431 824 426 800 l 440 879 z "},"⁹":{"ha":394,"x_min":153,"x_max":497,"o":"m 244 501 q 153 576 153 501 q 153 589 153 583 q 156 601 154 594 l 165 653 l 218 653 l 208 601 q 208 597 208 599 q 207 592 207 594 q 253 556 207 556 l 332 556 q 374 569 360 556 q 393 608 388 582 l 413 714 l 274 714 q 208 731 226 714 q 190 792 190 749 q 193 810 190 803 l 206 879 q 328 988 224 988 l 407 988 q 497 907 497 988 q 497 892 497 900 q 494 874 496 883 l 447 608 q 322 501 428 501 l 244 501 m 440 874 q 442 892 442 878 q 397 932 442 932 l 318 932 q 258 879 267 932 l 246 811 q 244 799 244 807 q 286 763 244 763 l 421 763 l 440 874 z "},"₀":{"ha":407,"x_min":63,"x_max":424,"o":"m 140 -14 q 63 54 63 -14 q 63 68 63 61 q 65 83 64 75 l 117 375 q 151 447 125 421 q 225 472 176 472 l 346 472 q 424 404 424 472 q 423 390 424 397 q 421 375 422 382 l 369 83 q 335 12 361 38 q 261 -14 310 -14 l 140 -14 m 365 365 q 366 372 365 368 q 367 379 367 376 q 325 417 367 417 l 226 417 q 169 365 178 417 l 121 93 q 119 79 119 89 q 161 42 119 42 l 260 42 q 317 93 307 42 l 365 365 z "},"₁":{"ha":236,"x_min":118,"x_max":258,"o":"m 119 -14 l 194 417 l 118 417 l 128 472 l 258 472 l 174 -14 l 119 -14 z "},"₂":{"ha":397,"x_min":50,"x_max":408,"o":"m 50 -14 l 76 139 q 117 218 86 192 q 206 244 147 244 l 274 244 q 344 308 335 244 l 351 353 q 353 374 353 357 q 301 417 353 417 l 238 417 q 171 358 181 417 l 164 321 l 111 321 l 118 358 q 160 445 129 418 q 249 472 190 472 l 311 472 q 388 448 367 472 q 408 375 408 424 q 408 364 408 369 q 406 353 408 358 l 399 308 q 356 225 390 254 q 269 196 322 196 l 200 196 q 152 182 168 196 q 131 139 136 168 l 114 42 l 347 42 l 338 -14 l 50 -14 z "},"₃":{"ha":394,"x_min":64,"x_max":408,"o":"m 153 -14 q 64 60 64 -14 q 65 74 64 67 q 67 88 65 81 l 75 138 l 128 138 l 119 88 q 118 76 118 85 q 163 42 118 42 l 239 42 q 308 101 296 42 l 318 153 q 319 159 318 156 q 319 167 319 163 q 307 201 319 188 q 269 214 294 214 l 196 214 l 203 256 l 281 256 q 323 270 308 256 q 342 308 338 285 l 351 364 q 352 371 351 367 q 353 378 353 375 q 310 417 353 417 l 229 417 q 171 367 179 417 l 163 321 l 110 321 l 118 367 q 239 472 136 472 l 319 472 q 408 406 408 472 q 408 394 408 399 q 406 382 407 389 l 394 317 q 369 260 388 281 q 328 236 351 240 q 361 215 349 232 q 374 171 374 199 q 374 161 374 167 q 372 150 374 156 l 363 100 q 233 -14 340 -14 l 153 -14 z "},"₄":{"ha":381,"x_min":50,"x_max":383,"o":"m 246 -14 l 261 74 l 50 74 l 57 117 l 319 472 l 383 472 l 322 121 l 360 121 l 351 74 l 314 74 l 299 -14 l 246 -14 m 318 396 l 110 121 l 269 121 l 318 396 z "},"₅":{"ha":394,"x_min":64,"x_max":418,"o":"m 150 -14 q 64 58 64 -14 q 65 72 64 65 q 67 85 65 78 l 76 138 l 129 138 l 119 86 q 119 81 119 83 q 118 76 118 79 q 160 40 118 40 l 243 40 q 304 97 293 40 l 317 168 q 317 176 317 172 q 318 183 318 181 q 276 222 318 222 l 96 222 l 139 472 l 418 472 l 408 417 l 178 417 l 153 271 l 289 271 q 374 196 374 271 q 373 182 374 189 q 371 168 372 175 l 358 97 q 233 -14 339 -14 l 150 -14 z "},"₆":{"ha":394,"x_min":64,"x_max":408,"o":"m 156 -14 q 64 65 64 -14 q 68 100 64 81 l 115 365 q 240 472 135 472 l 319 472 q 408 397 408 472 q 408 384 408 390 q 407 371 408 378 l 397 321 l 344 321 l 354 371 l 354 381 q 310 417 354 417 l 231 417 q 169 365 178 417 l 151 261 l 290 261 q 372 196 372 261 q 372 181 372 189 q 369 165 371 174 l 357 93 q 235 -14 338 -14 l 156 -14 m 317 165 q 318 181 318 169 q 278 214 318 214 l 143 214 l 122 100 q 121 83 121 96 q 165 40 121 40 l 244 40 q 304 94 293 40 l 317 165 z "},"₇":{"ha":354,"x_min":67,"x_max":408,"o":"m 67 -14 l 321 418 l 119 418 l 128 472 l 408 472 l 126 -14 l 67 -14 z "},"₈":{"ha":397,"x_min":65,"x_max":407,"o":"m 158 -14 q 85 9 106 -14 q 65 79 65 32 q 65 89 65 85 q 68 100 65 93 l 78 150 q 104 209 85 186 q 150 236 124 232 q 111 290 111 242 q 112 303 111 296 q 114 317 113 310 l 125 382 q 242 472 140 472 l 318 472 q 407 406 407 472 q 406 394 407 399 q 404 382 406 389 l 393 317 q 326 236 381 244 q 360 215 347 232 q 372 171 372 199 q 372 161 372 167 q 371 150 372 156 l 361 100 q 232 -14 339 -14 l 158 -14 m 317 153 l 317 164 q 268 214 317 214 l 203 214 q 155 197 172 214 q 132 153 138 181 l 122 101 q 121 85 121 97 q 171 42 121 42 l 238 42 q 307 101 294 42 l 317 153 m 350 364 q 351 371 350 367 q 351 378 351 375 q 308 417 351 417 l 232 417 q 172 364 181 417 l 163 308 q 161 294 161 304 q 204 256 161 256 l 281 256 q 322 270 307 256 q 340 308 336 285 l 350 364 z "},"₉":{"ha":394,"x_min":63,"x_max":407,"o":"m 154 -14 q 63 61 63 -14 q 63 74 63 68 q 65 86 64 79 l 75 138 l 128 138 l 118 86 q 117 81 118 83 q 117 76 117 79 q 163 40 117 40 l 242 40 q 283 53 269 40 q 303 93 297 67 l 322 199 l 183 199 q 118 216 136 199 q 100 276 100 233 q 103 294 100 288 l 115 364 q 238 472 133 472 l 317 472 q 407 392 407 472 q 406 376 407 385 q 404 358 406 368 l 357 93 q 232 -14 338 -14 l 154 -14 m 350 358 q 351 376 351 363 q 307 417 351 417 l 228 417 q 168 364 176 417 l 156 296 q 154 283 154 292 q 196 247 154 247 l 331 247 l 350 358 z "},"€":{"ha":888,"x_min":101,"x_max":1026,"o":"m 415 0 q 172 218 172 0 q 182 315 172 263 l 190 361 l 101 361 l 139 435 l 203 435 l 221 536 l 132 536 l 169 610 l 233 610 l 242 657 q 353 895 269 817 q 588 974 438 974 l 1026 974 l 940 838 l 563 838 q 445 797 483 838 q 389 654 407 756 l 381 610 l 807 610 l 761 536 l 368 536 l 350 435 l 703 435 l 658 361 l 338 361 l 329 314 q 325 283 326 297 q 324 256 324 268 q 354 164 324 193 q 438 135 385 135 l 808 135 l 785 0 l 415 0 z "},"℗":{"ha":1115,"x_min":150,"x_max":1151,"o":"m 1151 485 q 1112 291 1151 382 q 1005 132 1072 200 q 846 24 938 64 q 650 -15 754 -15 q 456 24 547 -15 q 297 132 365 64 q 190 291 229 200 q 150 485 150 382 q 190 681 150 589 q 297 840 229 772 q 456 947 365 908 q 650 986 547 986 q 846 947 754 986 q 1005 840 938 908 q 1112 681 1072 772 q 1151 485 1151 589 m 1067 485 q 1034 648 1067 572 q 945 780 1001 724 q 813 868 889 836 q 650 900 738 900 q 488 868 564 900 q 356 780 413 836 q 266 648 299 724 q 233 485 233 572 q 266 324 233 399 q 356 192 299 249 q 488 102 413 135 q 650 69 564 69 q 813 102 738 69 q 945 192 889 135 q 1034 324 1001 249 q 1067 485 1067 399 m 550 376 l 550 260 l 457 260 l 457 711 l 746 711 q 854 679 817 711 q 892 589 892 647 l 892 497 q 856 410 892 443 q 753 376 819 376 l 550 376 m 799 585 q 746 632 799 632 l 550 632 l 550 449 l 746 449 q 799 501 799 449 l 799 585 z "},"™":{"ha":969,"x_min":211,"x_max":1078,"o":"m 913 508 l 981 901 l 803 508 l 683 508 l 636 901 l 568 508 l 486 508 l 568 974 l 724 974 l 756 576 l 928 974 l 1078 974 l 996 508 l 913 508 m 250 508 l 317 892 l 211 892 l 226 974 l 510 974 l 494 892 l 392 892 l 325 508 l 250 508 z "},"Ω":{"ha":938,"x_min":68,"x_max":958,"o":"m 610 0 l 629 107 q 706 183 669 138 q 769 290 742 229 q 812 427 796 351 q 828 594 828 503 q 778 788 828 721 q 619 854 729 854 q 485 831 542 854 q 391 769 429 808 q 330 678 353 729 q 294 571 307 626 q 278 458 282 515 q 275 350 275 400 q 294 200 275 261 q 347 107 314 139 l 328 0 l 68 0 l 83 89 l 239 89 q 181 188 207 119 q 156 368 156 256 q 178 589 156 481 q 256 783 200 697 q 405 922 311 869 q 642 975 499 975 q 786 950 726 975 q 884 878 846 925 q 940 767 922 832 q 958 622 958 701 q 935 421 958 508 q 878 268 913 333 q 804 159 844 203 q 729 89 764 115 l 885 89 l 869 0 l 610 0 z "},"⅓":{"ha":1113,"x_min":53,"x_max":1183,"o":"m 304 501 l 379 932 l 303 932 l 313 988 l 443 988 l 358 501 l 304 501 m 53 -44 l 1079 1024 l 1183 1024 l 157 -44 l 53 -44 m 858 -14 q 769 60 769 -14 q 770 74 769 67 q 772 88 771 81 l 781 138 l 833 138 l 825 88 q 824 76 824 85 q 868 42 824 42 l 944 42 q 1014 101 1001 42 l 1024 153 q 1024 159 1024 156 q 1025 167 1025 163 q 1013 201 1025 188 q 975 214 1000 214 l 901 214 l 908 256 l 986 256 q 1028 270 1014 256 q 1047 308 1043 285 l 1057 364 q 1058 371 1057 367 q 1058 378 1058 375 q 1015 417 1058 417 l 935 417 q 876 367 885 417 l 868 321 l 815 321 l 824 367 q 944 472 842 472 l 1025 472 q 1114 406 1114 472 q 1113 394 1114 399 q 1111 382 1113 389 l 1100 317 q 1075 260 1093 281 q 1033 236 1057 240 q 1067 215 1054 232 q 1079 171 1079 199 q 1079 161 1079 167 q 1078 150 1079 156 l 1068 100 q 939 -14 1046 -14 l 858 -14 z "},"⅔":{"ha":1064,"x_min":53,"x_max":1183,"o":"m 171 501 l 197 654 q 238 733 207 707 q 326 760 268 760 l 394 760 q 465 824 456 760 l 472 868 q 474 889 474 872 q 422 932 474 932 l 358 932 q 292 874 301 932 l 285 836 l 232 836 l 239 874 q 281 960 250 933 q 369 988 311 988 l 432 988 q 508 963 488 988 q 529 890 529 939 q 529 879 529 885 q 526 868 529 874 l 519 824 q 477 740 511 769 q 390 711 443 711 l 321 711 q 273 697 289 711 q 251 654 257 683 l 235 557 l 468 557 l 458 501 l 171 501 m 53 -44 l 1079 1024 l 1183 1024 l 157 -44 l 53 -44 m 789 -14 q 700 60 700 -14 q 701 74 700 67 q 703 88 701 81 l 711 138 l 764 138 l 756 88 q 754 76 754 85 q 799 42 754 42 l 875 42 q 944 101 932 42 l 954 153 q 955 159 954 156 q 956 167 956 163 q 943 201 956 188 q 906 214 931 214 l 832 214 l 839 256 l 917 256 q 959 270 944 256 q 978 308 974 285 l 988 364 q 988 371 988 367 q 989 378 989 375 q 946 417 989 417 l 865 417 q 807 367 815 417 l 799 321 l 746 321 l 754 367 q 875 472 772 472 l 956 472 q 1044 406 1044 472 q 1044 394 1044 399 q 1042 382 1043 389 l 1031 317 q 1006 260 1024 281 q 964 236 988 240 q 997 215 985 232 q 1010 171 1010 199 q 1010 161 1010 167 q 1008 150 1010 156 l 999 100 q 869 -14 976 -14 l 789 -14 z "},"⅛":{"ha":1097,"x_min":53,"x_max":1183,"o":"m 304 501 l 379 932 l 303 932 l 313 988 l 443 988 l 358 501 l 304 501 m 53 -44 l 1079 1024 l 1183 1024 l 157 -44 l 53 -44 m 850 -14 q 777 9 797 -14 q 757 79 757 32 q 757 89 757 85 q 760 100 757 93 l 769 150 q 796 209 776 186 q 842 236 815 232 q 803 290 803 242 q 803 303 803 296 q 806 317 804 310 l 817 382 q 933 472 832 472 l 1010 472 q 1099 406 1099 472 q 1098 394 1099 399 q 1096 382 1097 389 l 1085 317 q 1018 236 1072 244 q 1051 215 1039 232 q 1064 171 1064 199 q 1064 161 1064 167 q 1063 150 1064 156 l 1053 100 q 924 -14 1031 -14 l 850 -14 m 1008 153 l 1008 164 q 960 214 1008 214 l 894 214 q 847 197 864 214 q 824 153 829 181 l 814 101 q 813 85 813 97 q 863 42 813 42 l 929 42 q 999 101 986 42 l 1008 153 m 1042 364 q 1042 371 1042 367 q 1043 378 1043 375 q 1000 417 1043 417 l 924 417 q 864 364 872 417 l 854 308 q 853 294 853 304 q 896 256 853 256 l 972 256 q 1013 270 999 256 q 1032 308 1028 285 l 1042 364 z "},"⅜":{"ha":1064,"x_min":53,"x_max":1183,"o":"m 290 501 q 201 575 201 501 q 202 589 201 582 q 204 603 203 596 l 213 653 l 265 653 l 257 603 q 256 592 256 600 q 300 557 256 557 l 376 557 q 446 617 433 557 l 456 668 q 456 674 456 671 q 457 682 457 678 q 444 716 457 703 q 407 729 432 729 l 333 729 l 340 771 l 418 771 q 460 785 446 771 q 479 824 475 800 l 489 879 q 490 886 489 882 q 490 893 490 890 q 447 932 490 932 l 367 932 q 308 882 317 932 l 300 836 l 247 836 l 256 882 q 376 988 274 988 l 457 988 q 546 921 546 988 q 545 909 546 914 q 543 897 544 904 l 532 832 q 507 776 525 796 q 465 751 489 756 q 499 731 486 747 q 511 686 511 714 q 511 676 511 682 q 510 665 511 671 l 500 615 q 371 501 478 501 l 290 501 m 53 -44 l 1079 1024 l 1183 1024 l 157 -44 l 53 -44 m 794 -14 q 722 9 742 -14 q 701 79 701 32 q 701 89 701 85 q 704 100 701 93 l 714 150 q 740 209 721 186 q 786 236 760 232 q 747 290 747 242 q 748 303 747 296 q 750 317 749 310 l 761 382 q 878 472 776 472 l 954 472 q 1043 406 1043 472 q 1042 394 1043 399 q 1040 382 1042 389 l 1029 317 q 963 236 1017 244 q 996 215 983 232 q 1008 171 1008 199 q 1008 161 1008 167 q 1007 150 1008 156 l 997 100 q 868 -14 975 -14 l 794 -14 m 953 153 l 953 164 q 904 214 953 214 l 839 214 q 791 197 808 214 q 768 153 774 181 l 758 101 q 757 85 757 97 q 807 42 757 42 l 874 42 q 943 101 931 42 l 953 153 m 986 364 q 987 371 986 367 q 988 378 988 375 q 944 417 988 417 l 868 417 q 808 364 817 417 l 799 308 q 797 294 797 304 q 840 256 797 256 l 917 256 q 958 270 943 256 q 976 308 972 285 l 986 364 z "},"⅝":{"ha":1064,"x_min":53,"x_max":1183,"o":"m 288 501 q 201 574 201 501 q 202 587 201 581 q 204 600 203 593 l 214 653 l 267 653 l 257 601 q 256 597 257 599 q 256 592 256 594 q 297 556 256 556 l 381 556 q 442 613 431 556 l 454 683 q 455 692 454 688 q 456 699 456 696 q 414 738 456 738 l 233 738 l 276 988 l 556 988 l 546 932 l 315 932 l 290 786 l 426 786 q 511 711 511 786 q 510 697 511 704 q 508 683 510 690 l 496 613 q 371 501 476 501 l 288 501 m 53 -44 l 1079 1024 l 1183 1024 l 157 -44 l 53 -44 m 794 -14 q 722 9 742 -14 q 701 79 701 32 q 701 89 701 85 q 704 100 701 93 l 714 150 q 740 209 721 186 q 786 236 760 232 q 747 290 747 242 q 748 303 747 296 q 750 317 749 310 l 761 382 q 878 472 776 472 l 954 472 q 1043 406 1043 472 q 1042 394 1043 399 q 1040 382 1042 389 l 1029 317 q 963 236 1017 244 q 996 215 983 232 q 1008 171 1008 199 q 1008 161 1008 167 q 1007 150 1008 156 l 997 100 q 868 -14 975 -14 l 794 -14 m 953 153 l 953 164 q 904 214 953 214 l 839 214 q 791 197 808 214 q 768 153 774 181 l 758 101 q 757 85 757 97 q 807 42 757 42 l 874 42 q 943 101 931 42 l 953 153 m 986 364 q 987 371 986 367 q 988 378 988 375 q 944 417 988 417 l 868 417 q 808 364 817 417 l 799 308 q 797 294 797 304 q 840 256 797 256 l 917 256 q 958 270 943 256 q 976 308 972 285 l 986 364 z "},"⅞":{"ha":1083,"x_min":53,"x_max":1183,"o":"m 231 501 l 485 933 l 283 933 l 292 988 l 572 988 l 290 501 l 231 501 m 53 -44 l 1079 1024 l 1183 1024 l 157 -44 l 53 -44 m 836 -14 q 763 9 783 -14 q 743 79 743 32 q 743 89 743 85 q 746 100 743 93 l 756 150 q 782 209 763 186 q 828 236 801 232 q 789 290 789 242 q 790 303 789 296 q 792 317 790 310 l 803 382 q 919 472 818 472 l 996 472 q 1085 406 1085 472 q 1084 394 1085 399 q 1082 382 1083 389 l 1071 317 q 1004 236 1058 244 q 1038 215 1025 232 q 1050 171 1050 199 q 1050 161 1050 167 q 1049 150 1050 156 l 1039 100 q 910 -14 1017 -14 l 836 -14 m 994 153 l 994 164 q 946 214 994 214 l 881 214 q 833 197 850 214 q 810 153 815 181 l 800 101 q 799 85 799 97 q 849 42 799 42 l 915 42 q 985 101 972 42 l 994 153 m 1028 364 q 1028 371 1028 367 q 1029 378 1029 375 q 986 417 1029 417 l 910 417 q 850 364 858 417 l 840 308 q 839 294 839 304 q 882 256 839 256 l 958 256 q 999 270 985 256 q 1018 308 1014 285 l 1028 364 z "},"∂":{"ha":849,"x_min":113,"x_max":883,"o":"m 260 904 q 311 931 281 917 q 378 956 342 944 q 454 976 414 968 q 535 983 494 983 q 673 966 610 983 q 783 908 736 949 q 857 800 831 868 q 883 631 883 732 q 873 486 883 561 q 839 339 863 411 q 778 202 815 267 q 688 88 740 138 q 565 10 635 39 q 406 -19 494 -19 q 287 0 340 -19 q 194 56 233 19 q 134 144 156 93 q 113 258 113 196 q 142 410 113 339 q 225 535 172 482 q 350 618 278 588 q 508 649 422 649 q 589 638 549 649 q 665 609 629 628 q 731 563 701 590 q 778 500 760 535 q 790 628 790 571 q 769 758 790 704 q 713 843 749 811 q 628 890 676 875 q 525 904 581 904 q 398 884 461 904 q 276 835 335 864 l 260 904 m 764 418 q 656 531 728 492 q 506 569 585 569 q 392 547 446 569 q 297 485 338 525 q 233 390 257 446 q 208 265 208 333 q 264 116 208 172 q 419 60 319 60 q 553 87 496 60 q 653 162 611 114 q 722 275 694 210 q 764 418 749 340 z "},"∆":{"ha":694,"x_min":22,"x_max":672,"o":"m 22 0 l 453 974 l 578 974 l 672 0 l 22 0 m 481 796 l 167 92 l 551 92 l 481 796 z "},"∏":{"ha":954,"x_min":29,"x_max":1058,"o":"m 757 -222 l 954 894 l 317 894 l 119 -222 l 29 -222 l 240 975 l 1058 975 l 847 -222 l 757 -222 z "},"∑":{"ha":754,"x_min":33,"x_max":864,"o":"m 33 -174 l 44 -111 l 425 399 l 224 910 l 236 975 l 864 975 l 847 886 l 342 886 l 532 399 l 171 -86 l 676 -86 l 661 -174 l 33 -174 z "},"−":{"ha":857,"x_min":142,"x_max":892,"o":"m 142 449 l 161 554 l 892 554 l 872 449 l 142 449 z "},"√":{"ha":926,"x_min":167,"x_max":1031,"o":"m 394 0 l 279 558 l 167 558 l 181 640 l 375 640 l 479 111 l 928 975 l 1031 975 l 525 0 l 394 0 z "},"∞":{"ha":1265,"x_min":146,"x_max":1293,"o":"m 706 413 q 637 304 675 353 q 556 222 599 256 q 465 169 513 188 q 371 150 418 150 q 270 171 313 150 q 200 227 228 192 q 159 311 172 263 q 146 417 146 360 q 169 573 146 497 q 236 707 192 649 q 344 800 281 765 q 492 835 408 835 q 652 765 588 835 q 733 572 717 694 q 882 765 796 694 q 1068 835 968 835 q 1167 814 1125 835 q 1238 758 1210 793 q 1279 673 1265 722 q 1293 568 1293 624 q 1270 410 1293 486 q 1203 277 1247 335 q 1094 185 1158 219 q 947 150 1029 150 q 787 220 851 150 q 706 413 722 290 m 757 490 q 783 390 765 436 q 826 311 800 344 q 887 259 853 278 q 961 240 921 240 q 1074 269 1028 240 q 1151 342 1121 297 q 1196 440 1182 386 q 1210 547 1210 494 q 1201 621 1210 586 q 1172 682 1192 656 q 1122 724 1153 708 q 1049 739 1092 739 q 969 721 1008 739 q 892 670 929 703 q 820 592 854 638 q 757 490 786 546 m 683 494 q 656 594 674 549 q 612 674 638 640 q 553 725 586 707 q 478 743 519 743 q 365 715 411 743 q 288 643 318 688 q 243 544 257 599 q 229 439 229 490 q 238 364 229 399 q 267 303 247 329 q 317 261 286 276 q 390 246 347 246 q 469 264 429 246 q 546 315 508 282 q 618 393 583 347 q 683 494 653 439 z "},"∫":{"ha":829,"x_min":36,"x_max":926,"o":"m 492 718 q 536 844 506 794 q 610 924 567 894 q 705 964 653 953 q 814 975 757 975 q 880 966 846 975 q 926 938 914 957 l 913 857 q 866 890 894 881 q 806 899 838 899 q 665 858 722 899 q 589 715 607 817 l 468 33 q 424 -92 454 -43 q 350 -171 393 -142 q 255 -211 307 -200 q 147 -222 203 -222 q 81 -213 115 -222 q 36 -185 47 -204 l 49 -108 q 71 -128 57 -121 q 99 -138 85 -135 q 128 -143 114 -142 q 156 -144 143 -144 q 297 -104 239 -144 q 372 38 354 -64 l 492 718 z "},"≈":{"ha":857,"x_min":106,"x_max":933,"o":"m 850 299 q 625 207 767 207 q 543 226 581 207 q 470 270 506 246 q 397 314 435 294 q 313 333 358 333 q 209 310 258 333 q 106 219 160 286 l 128 349 q 210 413 161 389 q 326 438 258 438 q 419 417 378 438 q 497 373 460 397 q 569 328 533 349 q 649 308 606 308 q 770 338 715 308 q 874 438 825 367 l 850 299 m 910 658 q 685 567 826 567 q 603 586 640 567 q 530 630 565 606 q 456 674 494 654 q 372 693 418 693 q 269 669 318 693 q 165 579 219 646 l 188 708 q 269 773 221 749 q 386 797 318 797 q 478 777 438 797 q 556 733 519 757 q 629 688 593 708 q 708 668 665 668 q 830 697 775 668 q 933 797 885 726 l 910 658 z "},"≠":{"ha":857,"x_min":-50,"x_max":1078,"o":"m 682 611 l 468 389 l 863 389 l 843 282 l 365 282 l 53 -44 l -50 -44 l 261 282 l 113 282 l 132 389 l 365 389 l 578 611 l 171 611 l 190 718 l 682 718 l 974 1024 l 1078 1024 l 785 718 l 921 718 l 901 611 l 682 611 z "},"≤":{"ha":857,"x_min":61,"x_max":943,"o":"m 140 435 l 154 515 l 943 844 l 922 726 l 324 476 l 835 225 l 814 108 l 140 435 m 61 -22 l 81 83 l 811 83 l 792 -22 l 61 -22 z "},"≥":{"ha":857,"x_min":61,"x_max":885,"o":"m 83 108 l 104 225 l 701 476 l 192 726 l 213 844 l 885 515 l 871 435 l 83 108 m 61 -22 l 81 83 l 811 83 l 792 -22 l 61 -22 z "},"⋅":{"ha":257,"x_min":143,"x_max":285,"o":"m 143 389 l 179 597 l 285 597 l 249 389 l 143 389 z "}}}
